<?xml version="1.0" encoding="UTF-8" standalone="no"?>
<!DOCTYPE svg  PUBLIC '-//W3C//DTD SVG 1.1//EN'  'http://www.w3.org/Graphics/SVG/1.1/DTD/svg11.dtd'>
<svg xmlns="http://www.w3.org/2000/svg">
<defs>
<font id="SegoeUI-SemiBold" horiz-adv-x="0">
<font-face underline-position="-119" font-weight="600" descent="-410" panose-1="2 11 7 2 4 2 4 2 2 3" units-per-em="2048" unicode-range="U+000D-FE23" bbox="-887 -514 2811 2159" x-height="1024" underline-thickness="119" font-family="SegoeUI" ascent="1638" cap-height="1434"/>
<missing-glyph d="M314 148h694v1102h-694v-1102zM166 0v1398h990v-1398h-990z" horiz-adv-x="1322"/>
<glyph glyph-name=".notdef" d="M314 148h694v1102h-694v-1102zM166 0v1398h990v-1398h-990z" horiz-adv-x="1322"/>
<glyph glyph-name=".null"/>
<glyph glyph-name="nonmarkingreturn" horiz-adv-x="154"/>
<glyph glyph-name="null" unicode=""/>
<glyph glyph-name="space" horiz-adv-x="563" unicode=" "/>
<glyph glyph-name="exclam" horiz-adv-x="622" unicode="!" d="M311 -20q-60 0 -102 38.5t-42 93.5q0 57 42 97t102 40q58 0 100.5 -40t42.5 -97q0 -55 -42.5 -93.5t-100.5 -38.5zM422 1434l-19 -1012h-190l-26 1012h235z"/>
<glyph glyph-name="quotedbl" horiz-adv-x="896" unicode='&quot;' d="M735 1442l-30 -447h-153l-30 447h213zM374 1442l-30 -447h-152l-30 447h212z"/>
<glyph glyph-name="numbersign" horiz-adv-x="1211" unicode="#" d="M754 909h-244l-60 -276h245zM1170 1049l-31 -140h-227l-58 -276h248l-35 -140h-242l-82 -370h-159l80 370h-242l-78 -370h-159l78 370h-229l28 140h232l55 276h-244l29 140h244l80 385h161l-79 -385h242l82 385h158l-80 -385h228z"/>
<glyph glyph-name="dollar" horiz-adv-x="1137" unicode="$" d="M642 575v-385q170 36 170 177q0 118 -170 208zM519 852v399q-75 -15 -119 -64t-44 -119q0 -74 36 -121t127 -95zM642 8v-217h-123v209q-222 0 -361 86v223q61 -53 165.5 -89t195.5 -36v445q-236 109 -305.5 201t-69.5 218q0 149 106 257.5t269 130.5v180h123v-176 q210 -6 290 -56v-214q-109 80 -290 86v-461q220 -102 301 -198t81 -217q0 -147 -101 -246t-281 -126z"/>
<glyph glyph-name="percent" horiz-adv-x="1721" unicode="%" d="M1272 579q-82 0 -129.5 -63t-47.5 -173q0 -108 46.5 -168t127.5 -60t127 62.5t46 173.5q0 108 -45.5 168t-124.5 60zM1258 -22q-152 0 -242 97.5t-90 260.5q0 178 95.5 280.5t257.5 102.5q157 0 243.5 -95t86.5 -267t-97 -275.5t-254 -103.5zM1387 1434l-920 -1444h-143 l919 1444h144zM430 1315q-82 0 -129.5 -63t-47.5 -173q0 -108 46.5 -168t127.5 -60t127 62.5t46 173.5q0 108 -45.5 168t-124.5 60zM416 714q-152 0 -242 97.5t-90 260.5q0 178 95.5 280.5t257.5 102.5q157 0 243.5 -95t86.5 -267t-97 -275.5t-254 -103.5z"/>
<glyph glyph-name="ampersand" horiz-adv-x="1684" unicode="&amp;" d="M838 1129q0 43 -16 73.5t-40.5 50.5t-54.5 29t-59 9q-85 0 -135 -46t-51 -125q0 -35 10.5 -66.5t30 -58.5t45.5 -47.5t55 -35.5q108 38 161.5 89t53.5 128zM629 163q70 0 128.5 15t108 39.5t90 57t73.5 68.5q-58 85 -107 145.5t-98.5 104t-106 75t-130.5 58.5 q-55 -22 -101 -49.5t-79.5 -64.5t-52.5 -86.5t-19 -115.5q0 -61 23 -107.5t63 -77.5t93 -46.5t115 -15.5zM1479 -23q-63 0 -111 14t-88.5 40t-78.5 63t-80 85q-41 -39 -94.5 -75t-119 -64.5t-143 -45t-168.5 -16.5q-110 0 -202 27t-157.5 79.5t-101.5 129.5t-36 176 q0 153 88 261.5t247 177.5q-30 22 -60 51.5t-53.5 67t-38 83t-14.5 99.5q0 79 30.5 140t84.5 103t127.5 63.5t158.5 21.5q84 0 154 -21.5t120 -61.5t78 -96t28 -124q0 -121 -68.5 -200t-205.5 -135q69 -25 125 -60.5t103.5 -79.5t85 -94.5t73.5 -104.5q75 108 113 237.5 t38 271.5q0 36 -4.5 68t-12.5 63h208q10 -32 12 -60t5 -68q0 -87 -21 -175t-56 -171t-82 -166t-98 -160q35 -38 64 -66.5t59.5 -47.5t62 -28t71.5 -9q31 0 62 8t64 20v-185q-40 -18 -83.5 -27t-84.5 -9z"/>
<glyph glyph-name="quotesingle" horiz-adv-x="529" unicode="&apos;" d="M371 1442l-30 -447h-153l-30 447h213z"/>
<glyph glyph-name="parenleft" horiz-adv-x="680" unicode="(" d="M660 -326h-196q-316 354 -316 873q0 521 316 887h197q-310 -380 -310 -885q0 -501 309 -875z"/>
<glyph glyph-name="parenright" horiz-adv-x="680" unicode=")" d="M217 -326h-196q310 374 310 875q0 505 -311 885h198q317 -366 317 -887q0 -519 -318 -873z"/>
<glyph glyph-name="asterisk" horiz-adv-x="889" unicode="*" d="M818 1081l-274 -47l192 -229l-142 -98l-148 260l-148 -260l-143 98l193 229l-275 47l57 160l257 -103l-32 296h182l-32 -296l257 103z"/>
<glyph glyph-name="plus" horiz-adv-x="1422" unicode="+" d="M1190 510h-395v-395h-165v395h-395v165h395v396h165v-396h395v-165z"/>
<glyph glyph-name="comma" horiz-adv-x="494" unicode="," d="M368 239l-155 -499h-174l110 499h219z"/>
<glyph glyph-name="hyphen" horiz-adv-x="823" unicode="-" d="M690 474h-546v171h546v-171z"/>
<glyph glyph-name="period" horiz-adv-x="494" unicode="." d="M247 -22q-60 0 -102 39.5t-42 94.5q0 56 42 96t102 40q61 0 103.5 -40t42.5 -96q0 -55 -42.5 -94.5t-103.5 -39.5z"/>
<glyph glyph-name="slash" horiz-adv-x="847" unicode="/" d="M867 1434l-693 -1672h-211l690 1672h214z"/>
<glyph glyph-name="zero" horiz-adv-x="1137" unicode="0" d="M576 1273q-261 0 -261 -575q0 -538 256 -538q252 0 252 547q0 566 -247 566zM553 -24q-224 0 -349.5 183t-125.5 529q0 380 131 575t378 195q473 0 473 -735q0 -364 -133.5 -555.5t-373.5 -191.5z"/>
<glyph glyph-name="one" horiz-adv-x="1137" unicode="1" d="M1027 0h-854v192h312v1014l-320 -85v202l552 138v-1269h310v-192z"/>
<glyph glyph-name="two" horiz-adv-x="1137" unicode="2" d="M1001 0h-900v191l397 385q152 147 217 244.5t65 208.5q0 114 -67.5 176.5t-192.5 62.5q-183 0 -350 -164v223q177 131 411 131q202 0 318 -101.5t116 -293.5q0 -129 -72 -252.5t-277 -323.5l-295 -283v-5h630v-199z"/>
<glyph glyph-name="three" horiz-adv-x="1137" unicode="3" d="M138 53v218q140 -111 316 -111q143 0 228.5 65t85.5 176q0 244 -373 244h-111v186h106q331 0 331 230q0 212 -258 212q-144 0 -271 -103v206q146 82 345 82q191 0 306 -96t115 -246q0 -283 -288 -364v-4q155 -15 245 -108.5t90 -233.5q0 -193 -145 -311.5t-382 -118.5 q-213 0 -340 77z"/>
<glyph glyph-name="four" horiz-adv-x="1137" unicode="4" d="M677 521v555q0 59 4 132h-4q-12 -32 -49 -98l-390 -589h439zM1074 346h-179v-346h-218v346h-652v150l622 938h248v-913h179v-175z"/>
<glyph glyph-name="five" horiz-adv-x="1137" unicode="5" d="M164 33v223q141 -95 286 -95q146 0 235 74.5t89 198.5q0 122 -90.5 190t-259.5 68q-58 0 -215 -12v754h737v-198h-533v-359q65 4 121 4q228 0 352.5 -117t124.5 -320q0 -213 -142.5 -341.5t-391.5 -128.5q-210 0 -313 59z"/>
<glyph glyph-name="six" horiz-adv-x="1137" unicode="6" d="M593 726q-108 0 -175.5 -75.5t-67.5 -178.5q0 -129 67 -220.5t178 -91.5q105 0 170 79.5t65 201.5q0 134 -62 209.5t-175 75.5zM967 1417v-201q-107 57 -225 57q-183 0 -293 -148t-110 -397h4q97 180 320 180q183 0 291 -122t108 -326q0 -214 -133.5 -349t-338.5 -135 q-227 0 -356 172t-129 483q0 377 168.5 602t446.5 225q156 0 247 -41z"/>
<glyph glyph-name="seven" horiz-adv-x="1137" unicode="7" d="M1048 1340l-540 -1340h-244l525 1236h-699v198h958v-94z"/>
<glyph glyph-name="eight" horiz-adv-x="1137" unicode="8" d="M560 651q-242 -97 -242 -280q0 -95 70.5 -156t185.5 -61q109 0 178.5 60t69.5 151q0 192 -262 286zM780 1091q0 87 -54.5 137.5t-148.5 50.5q-88 0 -149 -52.5t-61 -133.5q0 -165 205 -249q208 86 208 247zM392 752v4q-253 120 -253 347q0 156 127 255.5t327 99.5 q181 0 297 -93t116 -239q0 -238 -266 -370v-4q308 -112 308 -388q0 -178 -135 -283t-376 -105q-195 0 -320.5 104t-125.5 270q0 276 301 402z"/>
<glyph glyph-name="nine" horiz-adv-x="1137" unicode="9" d="M554 1273q-101 0 -169 -79t-68 -200q0 -134 66.5 -210t180.5 -76q99 0 167.5 69.5t68.5 170.5q0 143 -68.5 234t-177.5 91zM166 27v201q116 -68 246 -68q189 0 294 137.5t105 390.5q-2 -1 -4 0q-89 -166 -310 -166q-179 0 -294.5 126.5t-115.5 325.5q0 212 136 348 t347 136q222 0 346.5 -167.5t124.5 -488.5q0 -396 -162 -611t-450 -215q-152 0 -263 51z"/>
<glyph glyph-name="colon" horiz-adv-x="494" unicode=":" d="M247 769q-60 0 -102 39.5t-42 94.5q0 56 42 96t102 40q61 0 103.5 -40t42.5 -96q0 -55 -42.5 -94.5t-103.5 -39.5zM247 -22q-60 0 -102 39.5t-42 94.5q0 56 42 96t102 40q61 0 103.5 -40t42.5 -96q0 -55 -42.5 -94.5t-103.5 -39.5z"/>
<glyph glyph-name="semicolon" horiz-adv-x="494" unicode=";" d="M368 239l-152 -503h-177l109 503h220zM247 771q-59 0 -99.5 40.5t-40.5 96.5t40.5 95t99.5 39q57 0 98 -39t41 -95t-41 -96.5t-98 -40.5z"/>
<glyph glyph-name="less" horiz-adv-x="1422" unicode="&lt;" d="M1159 98l-893 429v106l893 466v-190l-653 -324v-4l653 -294v-189z"/>
<glyph glyph-name="equal" horiz-adv-x="1422" unicode="=" d="M1190 295h-955v164h955v-164zM1190 724h-955v165h955v-165z"/>
<glyph glyph-name="greater" horiz-adv-x="1422" unicode="&gt;" d="M1159 533l-893 -429v189l654 291v6l-654 324v190l893 -465v-106z"/>
<glyph glyph-name="question" horiz-adv-x="909" unicode="?" d="M417 -18q-57 0 -101 39q-42 38 -42 94q0 57 42 94q43 40 101 40q57 0 100 -40q42 -37 42 -94q0 -56 -42 -94q-44 -39 -100 -39zM303 405q-9 25 -16 65t-7 79q0 61 24.5 110.5t61 92.5t79 83t79 78t61 80t24.5 92q0 45 -18 78.5t-49.5 56t-72 33.5t-86.5 11 q-149 0 -284 -133v231q164 96 340 96q81 0 153 -21t126 -62t85 -102t31 -142q0 -77 -26 -137t-65.5 -110.5t-85 -89.5t-85 -78t-65.5 -81t-26 -93q0 -43 11 -78t22 -59h-211z"/>
<glyph glyph-name="at" horiz-adv-x="1955" unicode="@" d="M988 934q-110 0 -177.5 -108t-67.5 -269q0 -108 45.5 -170.5t121.5 -62.5q110 0 174 113.5t64 300.5q0 196 -160 196zM1147 397h-5q-72 -215 -282 -215q-134 0 -216 100.5t-82 270.5q0 225 112.5 374t296.5 149q70 0 125 -38.5t71 -92.5h3q3 28 15 115h166 q-47 -528 -47 -538q0 -198 103 -198q94 0 156 110.5t62 286.5q0 260 -167.5 424.5t-464.5 164.5q-285 0 -472 -199t-187 -498q0 -295 180 -476t485 -181q240 0 411 82v-154q-175 -74 -437 -74q-368 0 -593 220t-225 576q0 366 238 607t608 241q347 0 574.5 -202t227.5 -527 q0 -238 -123.5 -390.5t-301.5 -152.5q-230 0 -231 215z"/>
<glyph glyph-name="A" horiz-adv-x="1375" unicode="A" d="M902 559l-199 572q-9 28 -19 90h-4q-9 -57 -20 -90l-197 -572h439zM1355 0h-261l-129 365h-564l-124 -365h-260l537 1434h268z"/>
<glyph glyph-name="B" horiz-adv-x="1237" unicode="B" d="M414 644v-454h203q133 0 205.5 61.5t72.5 169.5q0 223 -309 223h-172zM414 1243v-408h154q124 0 194.5 58.5t70.5 165.5q0 184 -246 184h-173zM177 0v1434h455q208 0 329.5 -91t121.5 -237q0 -122 -69 -212t-191 -128v-4q148 -17 236.5 -109.5t88.5 -240.5 q0 -184 -145 -298t-366 -114h-460z"/>
<glyph glyph-name="C" horiz-adv-x="1272" unicode="C" d="M1177 60q-162 -84 -403 -84q-312 0 -500 197t-188 517q0 344 211.5 556t534.5 212q208 0 345 -59v-236q-145 86 -320 86q-233 0 -377.5 -149t-144.5 -398q0 -237 135 -377.5t355 -140.5q203 0 352 96v-220z"/>
<glyph glyph-name="D" horiz-adv-x="1469" unicode="D" d="M414 1232v-1031h190q251 0 390.5 138t139.5 390q0 503 -521 503h-199zM177 0v1434h414q793 0 793 -699q0 -332 -220 -533.5t-590 -201.5h-397z"/>
<glyph glyph-name="E" horiz-adv-x="1060" unicode="E" d="M982 0h-805v1434h773v-202h-535v-406h493v-201h-493v-424h567v-201z"/>
<glyph glyph-name="F" horiz-adv-x="1029" unicode="F" d="M951 1232h-536v-431h494v-201h-494v-600h-238v1434h774v-202z"/>
<glyph glyph-name="G" horiz-adv-x="1428" unicode="G" d="M1296 98q-224 -122 -499 -122q-318 0 -515 198t-197 524q0 333 215.5 546.5t547.5 213.5q239 0 402 -70v-245q-165 110 -393 110q-229 0 -375.5 -151t-146.5 -391q0 -247 126 -388.5t342 -141.5q148 0 256 57v341h-302v200h539v-681z"/>
<glyph glyph-name="H" horiz-adv-x="1506" unicode="H" d="M1329 0h-239v622h-675v-622h-238v1434h238v-603h675v603h239v-1434z"/>
<glyph glyph-name="I" horiz-adv-x="592" unicode="I" d="M546 1434v-192h-131v-1050h131v-192h-500v192h131v1050h-131v192h500z"/>
<glyph glyph-name="J" horiz-adv-x="812" unicode="J" d="M648 514q0 -255 -126 -396.5t-336 -141.5q-98 0 -161 23v224q57 -39 147 -39q238 0 238 368v882h238v-920z"/>
<glyph glyph-name="K" horiz-adv-x="1251" unicode="K" d="M1262 0h-310l-499 656q-28 37 -34 50h-4v-706h-238v1434h238v-674h4q12 22 34 49l481 625h285l-563 -688z"/>
<glyph glyph-name="L" horiz-adv-x="1001" unicode="L" d="M971 0h-794v1434h238v-1233h556v-201z"/>
<glyph glyph-name="M" horiz-adv-x="1893" unicode="M" d="M1717 0h-236v928q0 114 14 279h-4q-22 -94 -39 -135l-428 -1072h-164l-429 1064q-18 47 -38 143h-4q8 -86 8 -281v-926h-220v1434h335l377 -955q43 -110 56 -164h5q37 113 60 168l384 951h323v-1434z"/>
<glyph glyph-name="N" horiz-adv-x="1571" unicode="N" d="M1393 0h-260l-685 1054q-26 40 -43 83h-6q8 -46 8 -197v-940h-230v1434h277l662 -1029q42 -64 54 -88h4q-10 57 -10 193v924h229v-1434z"/>
<glyph glyph-name="O" horiz-adv-x="1548" unicode="O" d="M779 1249q-197 0 -320.5 -147t-123.5 -387q0 -239 120 -385t314 -146q206 0 325 139t119 389q0 257 -115.5 397t-318.5 140zM768 -24q-310 0 -496.5 201t-186.5 523q0 346 190 552t516 206q302 0 486.5 -200t184.5 -523q0 -351 -189 -555t-505 -204z"/>
<glyph glyph-name="P" horiz-adv-x="1197" unicode="P" d="M414 1238v-524h154q153 0 233 71t80 200q0 253 -294 253h-173zM414 520v-520h-237v1434h435q247 0 383 -115t136 -324t-142 -342t-384 -133h-191z"/>
<glyph glyph-name="Q" horiz-adv-x="1548" unicode="Q" d="M779 1249q-198 0 -322 -147q-123 -147 -123 -387q0 -238 120 -386q121 -145 314 -145q207 0 326 139t119 389q0 258 -116 397q-115 140 -318 140zM741 -23q-63 0 -128.5 12.5t-127 38t-117.5 63.5t-102 88q-181 201 -181 525q0 346 189 551q191 206 522 206 q297 0 482 -200t185 -523q0 -134 -29 -253t-87.5 -215t-147 -162.5t-210.5 -95.5q53 -51 99.5 -90t92.5 -65.5t96 -40.5t110 -14q16 0 35 1.5t38 5t36.5 8t32.5 10.5v-212q-17 -6 -39 -10t-44 -7t-43.5 -4.5t-40.5 -1.5q-104 0 -186.5 30t-154.5 82.5t-139 122.5t-141 150z "/>
<glyph glyph-name="R" horiz-adv-x="1275" unicode="R" d="M414 1241v-466h198q55 0 101.5 17t80.5 49t53 78t19 103q0 103 -65 161t-187 58h-200zM1285 0h-278l-229 384q-31 53 -60.5 90.5t-60 61.5t-66.5 35t-81 11h-96v-582h-237v1434h472q101 0 186 -24t148 -72.5t98.5 -121t35.5 -169.5q0 -76 -22.5 -139.5t-64 -113 t-100 -84.5t-131.5 -54v-4q39 -22 68 -48.5t55 -54.5t51.5 -63.5t56.5 -82.5z"/>
<glyph glyph-name="S" horiz-adv-x="1115" unicode="S" d="M111 57v245q33 -30 78.5 -54t96.5 -40.5t102 -25.5t94 -9q150 0 223.5 50t73.5 145q0 51 -24.5 88.5t-68.5 68.5t-103.5 59.5t-127.5 59.5q-73 39 -136 79t-109.5 88.5t-73 109.5t-26.5 143q0 101 45.5 175.5t120 123t169.5 72t194 23.5q225 0 328 -51v-235 q-122 88 -314 88q-53 0 -105.5 -10t-94 -33t-67.5 -59t-26 -87q0 -48 20 -83t58.5 -64t94 -56.5t128.5 -59.5q75 -39 141.5 -82t117 -95t80 -115.5t29.5 -144.5q0 -109 -44 -184t-118.5 -122t-171.5 -68t-205 -21q-36 0 -88.5 5.5t-107.5 16t-104 25.5t-79 34z"/>
<glyph glyph-name="T" horiz-adv-x="1130" unicode="T" d="M1097 1232h-412v-1232h-238v1232h-411v202h1061v-202z"/>
<glyph glyph-name="U" horiz-adv-x="1440" unicode="U" d="M1280 580q0 -604 -572 -604q-548 0 -548 581v877h238v-828q0 -422 328 -422q316 0 316 407v843h238v-854z"/>
<glyph glyph-name="V" horiz-adv-x="1314" unicode="V" d="M1301 1434l-515 -1434h-266l-506 1434h260l354 -1088q17 -52 26 -121h4q7 57 29 123l362 1086h252z"/>
<glyph glyph-name="W" horiz-adv-x="1978" unicode="W" d="M1956 1434l-393 -1434h-269l-273 1003q-17 64 -21 140h-4q-5 -71 -24 -138l-274 -1005h-275l-401 1434h261l260 -1050q16 -66 20 -138h5q4 51 28 138l294 1050h245l272 -1058q14 -54 21 -128h4q3 50 23 132l255 1054h246z"/>
<glyph glyph-name="X" horiz-adv-x="1268" unicode="X" d="M1249 0h-285l-294 526q-13 24 -29 68h-4q-9 -22 -30 -68l-303 -526h-287l470 721l-432 713h291l259 -484q25 -48 45 -96h3q29 63 50 100l269 480h268l-442 -711z"/>
<glyph glyph-name="Y" horiz-adv-x="1182" unicode="Y" d="M1176 1434l-470 -913v-521h-238v516l-458 918h271l282 -615q5 -11 30 -83h3q9 32 33 83l295 615h252z"/>
<glyph glyph-name="Z" horiz-adv-x="1202" unicode="Z" d="M1155 1330l-786 -1129h776v-201h-1109v109l789 1123h-728v202h1058v-104z"/>
<glyph glyph-name="bracketleft" horiz-adv-x="680" unicode="[" d="M621 -326h-413v1760h413v-156h-216v-1448h216v-156z"/>
<glyph glyph-name="backslash" horiz-adv-x="829" unicode="\" d="M869 -240h-206l-676 1674h210z"/>
<glyph glyph-name="bracketright" horiz-adv-x="680" unicode="]" d="M474 -326h-413v156h216v1448h-216v156h413v-1760z"/>
<glyph glyph-name="asciicircum" horiz-adv-x="1422" unicode="^" d="M1208 618h-192l-312 604h-6l-291 -604h-189l425 840h109z"/>
<glyph glyph-name="underscore" horiz-adv-x="850" unicode="_" d="M850 -297h-850v119h850v-119z"/>
<glyph glyph-name="grave" horiz-adv-x="591" unicode="`" d="M527 1204h-173l-262 328h214z"/>
<glyph glyph-name="a" horiz-adv-x="1069" unicode="a" d="M713 503l-215 -30q-100 -13 -150.5 -48.5t-50.5 -124.5q0 -65 46.5 -106.5t124.5 -41.5q106 0 175.5 74.5t69.5 187.5v89zM937 0h-225v160h-4q-106 -184 -311 -184q-151 0 -236.5 82t-85.5 217q0 290 334 338l304 43q0 219 -208 219q-183 0 -330 -126v203q162 96 374 96 q388 0 388 -382v-666z"/>
<glyph glyph-name="b" horiz-adv-x="1234" unicode="b" d="M381 555v-127q0 -112 71.5 -190t181.5 -78q129 0 202.5 100.5t73.5 280.5q0 151 -68.5 236.5t-185.5 85.5q-124 0 -199.5 -88t-75.5 -220zM387 148h-4v-148h-232v1516h232v-672h4q119 204 348 204q194 0 303.5 -137.5t109.5 -368.5q0 -257 -123 -411.5t-336 -154.5 q-200 0 -302 172z"/>
<glyph glyph-name="c" horiz-adv-x="963" unicode="c" d="M884 47q-123 -71 -291 -71q-228 0 -368 142.5t-140 369.5q0 253 150.5 406.5t402.5 153.5q140 0 247 -49v-216q-107 80 -228 80q-147 0 -241 -99.5t-94 -260.5q0 -159 88.5 -251t237.5 -92q125 0 236 89v-202z"/>
<glyph glyph-name="d" horiz-adv-x="1234" unicode="d" d="M853 468v134q0 109 -71 185t-181 76q-130 0 -204.5 -97t-74.5 -269q0 -156 71.5 -246.5t192.5 -90.5q119 0 193 87.5t74 220.5zM1082 0h-232v174h-4q-112 -198 -345 -198q-189 0 -302.5 137.5t-113.5 374.5q0 254 125.5 407t334.5 153q207 0 301 -166h4v634h232v-1516z "/>
<glyph glyph-name="e" horiz-adv-x="1088" unicode="e" d="M794 613q-1 125 -59 194.5t-160 69.5q-100 0 -169.5 -73t-85.5 -191h474zM1018 449h-698q4 -142 87.5 -219t229.5 -77q164 0 301 98v-187q-140 -88 -370 -88q-226 0 -354.5 139.5t-128.5 392.5q0 239 141.5 389.5t351.5 150.5t325 -135t115 -375v-89z"/>
<glyph glyph-name="f" horiz-adv-x="706" unicode="f" d="M730 1327q-47 27 -107 27q-169 0 -169 -191v-139h238v-182h-237v-842h-232v842h-175v182h175v166q0 162 106 255.5t265 93.5q86 0 136 -19v-193z"/>
<glyph glyph-name="g" horiz-adv-x="1234" unicode="g" d="M853 469v133q0 108 -71.5 184.5t-178.5 76.5q-132 0 -206.5 -97.5t-74.5 -272.5q0 -151 71.5 -241.5t189.5 -90.5q120 0 195 86.5t75 221.5zM1083 82q0 -564 -567 -564q-200 0 -349 67v212q168 -96 319 -96q365 0 365 359v112h-4q-115 -196 -346 -196 q-187 0 -301.5 136.5t-114.5 366.5q0 261 123 415t338 154q203 0 301 -166h4v142h232v-942z"/>
<glyph glyph-name="h" horiz-adv-x="1192" unicode="h" d="M1061 0h-232v560q0 304 -203 304q-102 0 -172 -88t-70 -225v-551h-233v1516h233v-662h4q116 194 332 194q341 0 341 -417v-631z"/>
<glyph glyph-name="i" horiz-adv-x="535" unicode="i" d="M383 0h-232v1024h232v-1024zM268 1239q-57 0 -97.5 37t-40.5 94t40.5 95t97.5 38q59 0 100 -38t41 -95q0 -54 -41 -92.5t-100 -38.5z"/>
<glyph glyph-name="j" horiz-adv-x="535" unicode="j" d="M269 1239q-57 0 -97.5 37t-40.5 94t40.5 95t97.5 38q58 0 99 -38t41 -95q0 -54 -41 -92.5t-99 -38.5zM383 43q0 -252 -106 -388.5t-303 -136.5q-73 0 -142 32v199q65 -45 123 -45q196 0 196 346v974h232v-981z"/>
<glyph glyph-name="k" horiz-adv-x="1075" unicode="k" d="M1080 0h-294l-398 492h-4v-492h-233v1516h233v-961h4l376 469h279l-423 -494z"/>
<glyph glyph-name="l" horiz-adv-x="535" unicode="l" d="M384 0h-233v1516h233v-1516z"/>
<glyph glyph-name="m" horiz-adv-x="1814" unicode="m" d="M1682 0h-232v558q0 161 -45.5 233t-153.5 72q-91 0 -154.5 -91t-63.5 -218v-554h-233v577q0 286 -202 286q-94 0 -154.5 -86t-60.5 -223v-554h-232v1024h232v-162h4q111 186 323 186q106 0 185.5 -58.5t108.5 -153.5q114 212 340 212q338 0 338 -417v-631z"/>
<glyph glyph-name="n" horiz-adv-x="1195" unicode="n" d="M1063 0h-232v577q0 287 -203 287q-106 0 -175 -79.5t-69 -200.5v-584h-233v1024h233v-170h4q115 194 332 194q167 0 255 -108.5t88 -313.5v-626z"/>
<glyph glyph-name="o" horiz-adv-x="1223" unicode="o" d="M616 863q-136 0 -215 -95t-79 -262q0 -161 80 -253.5t214 -92.5q137 0 210.5 91t73.5 259q0 169 -73.5 261t-210.5 92zM605 -24q-237 0 -378.5 143.5t-141.5 380.5q0 258 147.5 403t397.5 145q240 0 374 -141t134 -391q0 -245 -144.5 -392.5t-388.5 -147.5z"/>
<glyph glyph-name="p" horiz-adv-x="1234" unicode="p" d="M381 555v-127q0 -112 71.5 -190t181.5 -78q129 0 202.5 100.5t73.5 280.5q0 151 -68.5 236.5t-185.5 85.5q-124 0 -199.5 -88t-75.5 -220zM387 151h-4v-622h-232v1495h232v-180h4q119 204 348 204q195 0 304 -137t109 -368q0 -256 -123 -410t-336 -154q-196 0 -302 172z "/>
<glyph glyph-name="q" horiz-adv-x="1234" unicode="q" d="M853 466v132q0 111 -71.5 188t-181.5 77q-129 0 -203.5 -96.5t-74.5 -272.5q0 -156 72 -245t186 -89q125 0 199 87t74 219zM1082 -471h-232v647h-4q-105 -200 -343 -200q-189 0 -303.5 137.5t-114.5 374.5q0 255 125.5 407.5t337.5 152.5q206 0 298 -166h4v142h232v-1495 z"/>
<glyph glyph-name="r" horiz-adv-x="758" unicode="r" d="M745 803q-42 33 -121 33q-103 0 -172 -93t-69 -253v-490h-232v1024h232v-211h4q34 108 104.5 168.5t157.5 60.5q63 0 96 -19v-220z"/>
<glyph glyph-name="s" horiz-adv-x="883" unicode="s" d="M87 32v215q130 -99 287 -99q210 0 210 124q0 35 -18 59.5t-48.5 43.5t-72 34t-92.5 34q-63 25 -113.5 53t-84 63.5t-50.5 80.5t-17 105q0 74 35 130.5t94 95t134 58t155 19.5q142 0 254 -43v-203q-108 74 -248 74q-44 0 -79.5 -9t-60.5 -25t-39 -38.5t-14 -49.5 q0 -33 14 -56t41.5 -40.5t66 -32t88.5 -31.5q66 -27 118.5 -55t89.5 -63.5t57 -82t20 -110.5q0 -78 -36 -136t-96 -96t-138.5 -56.5t-165.5 -18.5q-168 0 -291 56z"/>
<glyph glyph-name="t" horiz-adv-x="740" unicode="t" d="M691 11q-68 -34 -179 -34q-298 0 -298 286v579h-171v182h171v237l232 66v-303h245v-182h-245v-512q0 -91 33 -130t110 -39q59 0 102 34v-184z"/>
<glyph glyph-name="u" horiz-adv-x="1195" unicode="u" d="M1044 0h-232v162h-4q-101 -186 -314 -186q-363 0 -363 436v612h232v-588q0 -276 213 -276q103 0 169.5 76t66.5 199v589h232v-1024z"/>
<glyph glyph-name="v" horiz-adv-x="1039" unicode="v" d="M1033 1024l-396 -1024h-251l-377 1024h252l227 -716q26 -79 32 -138h3q9 74 28 134l238 720h244z"/>
<glyph glyph-name="w" horiz-adv-x="1549" unicode="w" d="M1528 1024l-302 -1024h-243l-186 694q-11 40 -14 90h-4q-2 -34 -18 -88l-202 -696h-238l-301 1024h240l186 -738q9 -33 12 -88h7q3 42 16 90l207 736h218l184 -741q9 -35 13 -88h7q2 37 15 88l182 741h221z"/>
<glyph glyph-name="x" horiz-adv-x="1026" unicode="x" d="M1007 1024l-341 -518l337 -506h-269l-180 317q-17 29 -40 74h-4q-4 -9 -42 -74l-183 -317h-268l348 502l-330 522h270l177 -333q20 -37 39 -76h3l229 409h254z"/>
<glyph glyph-name="y" horiz-adv-x="1041" unicode="y" d="M1038 1024l-462 -1188q-144 -318 -404 -318q-73 0 -122 13v193q55 -18 100 -18q130 0 194 128l69 168l-407 1022h257l244 -744q4 -14 18 -74h5q5 23 18 72l256 746h234z"/>
<glyph glyph-name="z" horiz-adv-x="951" unicode="z" d="M907 927l-553 -746h551v-181h-876v87l565 756h-511v181h824v-97z"/>
<glyph glyph-name="braceleft" horiz-adv-x="680" unicode="{" d="M608 -326q-356 4 -356 304v295q0 198 -156 208v146q156 10 156 212v287q0 304 356 308v-155q-159 -4 -159 -191v-282q0 -202 -199 -249v-3q199 -44 199 -247v-279q0 -107 35.5 -152.5t123.5 -47.5v-154z"/>
<glyph glyph-name="bar" horiz-adv-x="570" unicode="|" d="M383 -482h-194v2048h194v-2048z"/>
<glyph glyph-name="braceright" horiz-adv-x="680" unicode="}" d="M583 481q-155 -10 -155 -208v-295q0 -300 -354 -304v154q87 2 123.5 48t36.5 152v279q0 203 197 247v3q-197 47 -197 249v282q0 187 -160 191v155q354 -4 354 -308v-287q0 -202 155 -212v-146z"/>
<glyph glyph-name="asciitilde" horiz-adv-x="1422" unicode="~" d="M1220 759q-7 -159 -80.5 -246.5t-199.5 -87.5q-109 0 -266 98q-97 67 -159 67q-140 0 -146 -169h-166q5 155 79.5 245t201.5 90q113 0 236 -76q132 -91 197 -91q61 0 98 47t39 123h166z"/>
<glyph glyph-name="uni00A0" horiz-adv-x="563" unicode=" "/>
<glyph glyph-name="exclamdown" horiz-adv-x="622" unicode="¡" d="M435 -406h-244l27 1011h189zM311 778q-60 0 -102 39t-42 95t42.5 95.5t102.5 39.5q58 0 100 -39.5t42 -95.5t-42.5 -95t-100.5 -39z"/>
<glyph glyph-name="cent" horiz-adv-x="1137" unicode="¢" d="M631 339v670q-107 -27 -167.5 -117.5t-60.5 -222.5t61 -219t167 -111zM975 208q-88 -58 -203 -68v-189h-141v191q-208 22 -331 161t-123 346q0 219 123 366.5t331 184.5v214h141v-203q113 -2 203 -52v-213q-93 67 -203 74v-690q112 12 203 86v-208z"/>
<glyph glyph-name="sterling" horiz-adv-x="1137" unicode="£" d="M1055 0h-932v176q206 62 206 281v168h-185v175h185v245q0 181 115.5 297t299.5 116q124 0 226 -41v-201q-95 57 -201 57q-218 0 -218 -267v-206h284v-175h-284v-138q0 -215 -193 -301h697v-186z"/>
<glyph glyph-name="currency" horiz-adv-x="1138" unicode="¤" d="M570 985q-109 0 -184 -76t-75 -182t76 -182t183 -76q106 0 183 76t77 182t-78 182t-182 76zM1060 356l-114 -118l-140 139q-104 -71 -236 -71q-137 0 -241 68l-137 -136l-114 118l140 136q-72 111 -72 233q0 127 72 233l-140 138l114 118l141 -139q109 72 237 72t235 -72 l141 139l114 -118l-139 -138q74 -110 74 -233q0 -119 -74 -233z"/>
<glyph glyph-name="yen" horiz-adv-x="1137" unicode="¥" d="M1093 1434l-355 -650h270v-161h-321v-183h321v-161h-321v-279h-228v279h-331v161h331v183h-331v161h275l-348 650h250l231 -494q26 -56 43 -107h4q12 40 45 113l229 488h236z"/>
<glyph glyph-name="brokenbar" horiz-adv-x="570" unicode="¦" d="M383 -482h-194v872h194v-872zM383 701h-194v865h194v-865z"/>
<glyph glyph-name="section" horiz-adv-x="952" unicode="§" d="M423 884q-95 -45 -95 -141q0 -64 53 -112t185 -104q83 60 83 152q0 64 -49.5 109t-176.5 96zM697 424q90 -75 90 -189q0 -134 -107 -217.5t-273 -83.5q-140 0 -255 56v196q132 -79 253 -79q85 0 131.5 35.5t46.5 90.5q0 47 -35.5 80t-181.5 103q-235 120 -235 313 q0 161 145 241q-106 84 -106 226q0 129 99.5 212t261.5 83q138 0 233 -43v-191q-100 62 -221 62q-166 0 -166 -128q0 -48 41 -88t206 -109q225 -107 225 -294q0 -170 -152 -276z"/>
<glyph glyph-name="dieresis" horiz-adv-x="892" unicode="¨" d="M233 1203q-52 0 -89 34.5t-37 82.5q0 49 35.5 82t86.5 33t88.5 -33.5t37.5 -81.5q0 -49 -36 -83t-86 -34zM649 1203q-50 0 -86.5 33t-36.5 84q0 49 35 82t85 33q53 0 89.5 -33.5t36.5 -81.5q0 -49 -35 -83t-88 -34z"/>
<glyph glyph-name="copyright" horiz-adv-x="1808" unicode="©" d="M1206 275q-113 -65 -268 -65q-207 0 -347.5 138t-140.5 345q0 241 143.5 384.5t373.5 143.5q132 0 235 -51v-190q-88 72 -234 72q-144 0 -237.5 -93t-93.5 -249q0 -152 95.5 -244t242.5 -92q135 0 231 78v-177zM905 1364q-269 0 -459 -189.5t-190 -457.5t190 -457.5 t459 -189.5t458.5 189.5t189.5 457.5t-189.5 457.5t-458.5 189.5zM905 -29q-314 0 -535.5 218.5t-221.5 527.5t221.5 527.5t535.5 218.5q313 0 534.5 -218.5t221.5 -527.5t-221.5 -527.5t-534.5 -218.5z"/>
<glyph glyph-name="ordfeminine" horiz-adv-x="820" unicode="ª" d="M544 1066l-155 -22q-144 -20 -144 -116q0 -46 34 -74.5t91 -28.5q69 0 121.5 53.5t52.5 128.5v59zM711 717h-167v100h-4q-77 -120 -225 -120q-107 0 -172.5 60.5t-65.5 154.5q0 204 243 237l224 31q0 143 -145 143q-134 0 -251 -82v150q115 64 276 64q135 0 211 -71.5 t76 -201.5v-465z"/>
<glyph glyph-name="guillemotleft" horiz-adv-x="1105" unicode="«" d="M599 200h-212l-313 336l313 344h211l-317 -344zM1032 200h-214l-311 336l311 344h214l-318 -344z"/>
<glyph glyph-name="logicalnot" horiz-adv-x="1422" unicode="¬" d="M1190 259h-164v412h-791v164h955v-576z"/>
<glyph glyph-name="uni00AD" horiz-adv-x="823" unicode="­" d="M690 474h-546v171h546v-171z"/>
<glyph glyph-name="registered" horiz-adv-x="1808" unicode="®" d="M762 1053v-283h126q173 0 173 142q0 77 -46.5 109t-147.5 32h-105zM1293 255h-210l-92 217q-70 163 -151 163h-78v-380h-168v940h282q176 0 271.5 -69t95.5 -187q0 -97 -58.5 -165t-172.5 -91v-4q79 -17 157 -174zM905 1364q-269 0 -459 -189.5t-190 -457.5t190 -457.5 t459 -189.5t458.5 189.5t189.5 457.5t-189.5 457.5t-458.5 189.5zM905 -29q-314 0 -535.5 218.5t-221.5 527.5t221.5 527.5t535.5 218.5q313 0 534.5 -218.5t221.5 -527.5t-221.5 -527.5t-534.5 -218.5z"/>
<glyph glyph-name="uni00AF" horiz-adv-x="850" unicode="¯" d="M850 1396h-850v120h850v-120z"/>
<glyph glyph-name="degree" horiz-adv-x="775" unicode="°" d="M392 1321q-60 0 -102.5 -42t-42.5 -102q0 -61 41.5 -104.5t101.5 -43.5q59 0 102.5 44t43.5 104q0 61 -42.5 102.5t-101.5 41.5zM392 896q-117 0 -199 82t-82 200q0 116 81 196t197 80q118 0 200.5 -80.5t82.5 -195.5q0 -118 -82 -200t-198 -82z"/>
<glyph glyph-name="plusminus" horiz-adv-x="1422" unicode="±" d="M1189 0h-954v164h954v-164zM1190 671h-395v-396h-163v396h-396v164h396v398h163v-398h395v-164z"/>
<glyph glyph-name="uni00B2" horiz-adv-x="785" unicode="²" d="M686 884h-577v133l230 220q99 95 126 146t27 102t-33.5 83t-88.5 32q-117 0 -214 -102v179q87 77 242 77q126 0 199.5 -68.5t73.5 -180.5q0 -143 -193 -325l-155 -145v-4h363v-147z"/>
<glyph glyph-name="uni00B3" horiz-adv-x="785" unicode="³" d="M130 916v160q104 -73 219 -73q75 0 118.5 33t43.5 89q0 124 -215 124h-82v140h78q192 0 192 117q0 106 -132 106q-97 0 -192 -67v155q92 54 225 54q122 0 194 -60.5t72 -157.5q0 -147 -144 -200v-4q174 -42 174 -200q0 -119 -90 -194t-241 -75q-140 0 -220 53z"/>
<glyph glyph-name="acute" horiz-adv-x="597" unicode="´" d="M568 1546l-286 -328h-172l242 328h216z"/>
<glyph glyph-name="uni00B5" horiz-adv-x="1215" unicode="µ" d="M1098 0h-239q-23 69 -23 161h-5q-73 -184 -244 -184q-141 0 -201 96h-3v-468h-232v1419h232v-610q0 -112 59 -178.5t154 -66.5q103 0 167.5 78t64.5 210v567h235v-759q0 -188 35 -265z"/>
<glyph glyph-name="paragraph" horiz-adv-x="985" unicode="¶" d="M884 1304h-123v-1304h-136v1304h-140v-1304h-139v874q-113 0 -187.5 80t-74.5 202q0 123 79.5 200.5t193.5 77.5h527v-130z"/>
<glyph glyph-name="periodcentered" horiz-adv-x="494" unicode="·" d="M245 499q-59 0 -100.5 40t-41.5 96q0 57 42.5 96.5t102.5 39.5t102.5 -39.5t42.5 -96.5q0 -56 -43 -96t-105 -40z"/>
<glyph glyph-name="cedilla" horiz-adv-x="429" unicode="¸" d="M420 -248q0 -194 -288 -194q-47 0 -81 3v111q44 -6 71 -6q133 0 133 82q0 74 -121 74q-10 0 -39 -4v182h136v-94q87 0 138 -40.5t51 -113.5z"/>
<glyph glyph-name="uni00B9" horiz-adv-x="759" unicode="¹" d="M676 884h-531v139h181v541l-192 -48v149l361 90v-732h181v-139z"/>
<glyph glyph-name="ordmasculine" horiz-adv-x="905" unicode="º" d="M453 1315q-92 0 -146 -64.5t-54 -177.5q0 -111 51.5 -174t147.5 -63q91 0 144.5 65t53.5 176t-52.5 174.5t-144.5 63.5zM446 696q-174 0 -273 101.5t-99 275.5q0 179 106 280t281 101q170 0 268.5 -99t98.5 -270q0 -178 -103.5 -283.5t-278.5 -105.5z"/>
<glyph glyph-name="guillemotright" horiz-adv-x="1105" unicode="»" d="M600 538l-312 -338h-214l320 338l-320 342h214zM1033 538l-313 -338h-211l315 338l-315 342h211z"/>
<glyph glyph-name="onequarter" horiz-adv-x="1898" unicode="¼" d="M657 584h-531v139h181v541l-192 -48v149l361 90v-732h181v-139zM1447 1434l-875 -1434h-189l873 1434h191zM1494 704h-5q-12 -31 -39 -74l-195 -308h235v300q0 30 4 82zM1769 192h-110v-191h-169v191h-394v114l361 545h202v-529h110v-130z"/>
<glyph glyph-name="onehalf" horiz-adv-x="1938" unicode="½" d="M657 584h-531v139h181v541l-192 -48v149l361 90v-732h181v-139zM1790 1h-577v133l230 220q99 95 126 146t27 102t-33.5 83t-88.5 32q-117 0 -214 -102v179q87 77 242 77q126 0 199.5 -68.5t73.5 -180.5q0 -143 -193 -325l-155 -145v-4h363v-147zM1445 1434l-875 -1434 h-189l873 1434h191z"/>
<glyph glyph-name="threequarters" horiz-adv-x="1975" unicode="¾" d="M130 616v160q104 -73 219 -73q75 0 118.5 33t43.5 89q0 124 -215 124h-82v140h78q192 0 192 117q0 106 -132 106q-97 0 -192 -67v155q92 54 225 54q122 0 194 -60.5t72 -157.5q0 -147 -144 -200v-4q174 -42 174 -200q0 -119 -90 -194t-241 -75q-140 0 -220 53zM1511 1434 l-875 -1434h-189l873 1434h191zM1550 704h-5q-12 -31 -39 -74l-195 -308h235v300q0 30 4 82zM1825 192h-110v-191h-169v191h-394v114l361 545h202v-529h110v-130z"/>
<glyph glyph-name="questiondown" horiz-adv-x="909" unicode="¿" d="M519 1047q57 0 102 -39q43 -38 43 -96q0 -56 -43 -95q-43 -40 -102 -40q-58 0 -100 40q-43 39 -43 95q0 58 43 96q43 39 100 39zM634 621q9 -25 16 -64t7 -78q0 -60 -24 -109t-60 -91.5t-78 -81.5t-78 -79t-60 -84t-24 -97q0 -42 16 -74.5t43 -54.5t63 -33t76 -11 q176 0 306 132v-232q-161 -94 -334 -94q-83 0 -155.5 21.5t-127 63.5t-86.5 105t-32 146q0 73 26 130.5t65.5 106t85.5 90t85.5 82.5t65.5 85.5t26 98.5q0 38 -9.5 69t-18.5 53h206z"/>
<glyph glyph-name="Agrave" horiz-adv-x="1375" unicode="À" d="M902 559l-199 572q-9 28 -19 90h-4q-9 -57 -20 -90l-197 -572h439zM1355 0h-261l-129 365h-564l-124 -365h-260l537 1434h268zM828 1566h-173l-262 328h214z"/>
<glyph glyph-name="Aacute" horiz-adv-x="1375" unicode="Á" d="M902 559l-199 572q-9 28 -19 90h-4q-9 -57 -20 -90l-197 -572h439zM1355 0h-261l-129 365h-564l-124 -365h-260l537 1434h268zM954 1908l-286 -328h-172l242 328h216z"/>
<glyph glyph-name="Acircumflex" horiz-adv-x="1375" unicode="Â" d="M902 559l-199 572q-9 28 -19 90h-4q-9 -57 -20 -90l-197 -572h439zM1355 0h-261l-129 365h-564l-124 -365h-260l537 1434h268zM994 1566h-160l-161 211l-157 -211h-155l224 328h184z"/>
<glyph glyph-name="Atilde" horiz-adv-x="1375" unicode="Ã" d="M902 559l-199 572q-9 28 -19 90h-4q-9 -57 -20 -90l-197 -572h439zM1355 0h-261l-129 365h-564l-124 -365h-260l537 1434h268zM1021 1836q0 -116 -51.5 -189.5t-139.5 -73.5q-72 0 -165 48q-78 45 -121 45q-84 0 -84 -111h-115q0 119 51 190.5t143 71.5q68 0 157 -51 q72 -44 125 -44q81 0 81 114h119z"/>
<glyph glyph-name="Adieresis" horiz-adv-x="1375" unicode="Ä" d="M902 559l-199 572q-9 28 -19 90h-4q-9 -57 -20 -90l-197 -572h439zM1355 0h-261l-129 365h-564l-124 -365h-260l537 1434h268zM470 1565q-52 0 -89 34.5t-37 82.5q0 49 35.5 82t86.5 33t88.5 -33.5t37.5 -81.5q0 -49 -36 -83t-86 -34zM886 1565q-50 0 -86.5 33t-36.5 84 q0 49 35 82t85 33q53 0 89.5 -33.5t36.5 -81.5q0 -49 -35 -83t-88 -34z"/>
<glyph glyph-name="Aring" horiz-adv-x="1375" unicode="Å" d="M902 559l-199 572q-9 28 -19 90h-4q-9 -57 -20 -90l-197 -572h439zM1355 0h-261l-129 365h-564l-124 -365h-260l537 1434h268zM679 1643q-45 0 -74.5 -30t-29.5 -74q0 -104 104 -104q48 0 79.5 29.5t31.5 74.5t-31.5 74.5t-79.5 29.5zM679 1333q-94 0 -155.5 54 t-61.5 142q0 98 63 156t161 58q96 0 157.5 -58.5t61.5 -149.5q0 -87 -65.5 -144.5t-160.5 -57.5z"/>
<glyph glyph-name="AE" horiz-adv-x="1831" unicode="Æ" d="M945 559v673h-87l-317 -673h404zM1749 0h-804v365h-492l-172 -365h-275l710 1434h1000v-202h-534v-406h497v-201h-497v-424h567v-201z"/>
<glyph glyph-name="Ccedilla" horiz-adv-x="1272" unicode="Ç" d="M1177 60q-162 -84 -403 -84q-312 0 -500 197t-188 517q0 344 211.5 556t534.5 212q208 0 345 -59v-236q-145 86 -320 86q-233 0 -377.5 -149t-144.5 -398q0 -237 135 -377.5t355 -140.5q203 0 352 96v-220zM984 -248q0 -194 -288 -194q-47 0 -81 3v111q44 -6 71 -6 q133 0 133 82q0 74 -121 74q-10 0 -39 -4v182h136v-94q87 0 138 -40.5t51 -113.5z"/>
<glyph glyph-name="Egrave" horiz-adv-x="1060" unicode="È" d="M982 0h-805v1434h773v-202h-535v-406h493v-201h-493v-424h567v-201zM731 1566h-173l-262 328h214z"/>
<glyph glyph-name="Eacute" horiz-adv-x="1060" unicode="É" d="M982 0h-805v1434h773v-202h-535v-406h493v-201h-493v-424h567v-201zM873 1908l-286 -328h-172l242 328h216z"/>
<glyph glyph-name="Ecircumflex" horiz-adv-x="1060" unicode="Ê" d="M982 0h-805v1434h773v-202h-535v-406h493v-201h-493v-424h567v-201zM873 1567h-160l-161 211l-157 -211h-155l224 328h184z"/>
<glyph glyph-name="Edieresis" horiz-adv-x="1060" unicode="Ë" d="M982 0h-805v1434h773v-202h-535v-406h493v-201h-493v-424h567v-201zM360 1565q-52 0 -89 34.5t-37 82.5q0 49 35.5 82t86.5 33t88.5 -33.5t37.5 -81.5q0 -49 -36 -83t-86 -34zM776 1565q-50 0 -86.5 33t-36.5 84q0 49 35 82t85 33q53 0 89.5 -33.5t36.5 -81.5 q0 -49 -35 -83t-88 -34z"/>
<glyph glyph-name="Igrave" horiz-adv-x="592" unicode="Ì" d="M546 1434v-192h-131v-1050h131v-192h-500v192h131v1050h-131v192h500zM469 1566h-173l-262 328h214z"/>
<glyph glyph-name="Iacute" horiz-adv-x="592" unicode="Í" d="M546 1434v-192h-131v-1050h131v-192h-500v192h131v1050h-131v192h500zM584 1908l-286 -328h-172l242 328h216z"/>
<glyph glyph-name="Icircumflex" horiz-adv-x="592" unicode="Î" d="M546 1434v-192h-131v-1050h131v-192h-500v192h131v1050h-131v192h500zM620 1567h-160l-161 211l-157 -211h-155l224 328h184z"/>
<glyph glyph-name="Idieresis" horiz-adv-x="592" unicode="Ï" d="M546 1434v-192h-131v-1050h131v-192h-500v192h131v1050h-131v192h500zM95 1565q-52 0 -89 34.5t-37 82.5q0 49 35.5 82t86.5 33t88.5 -33.5t37.5 -81.5q0 -49 -36 -83t-86 -34zM511 1565q-50 0 -86.5 33t-36.5 84q0 49 35 82t85 33q53 0 89.5 -33.5t36.5 -81.5 q0 -49 -35 -83t-88 -34z"/>
<glyph glyph-name="Eth" horiz-adv-x="1469" unicode="Ð" d="M414 1232v-411h307v-205h-307v-415h190q251 0 390.5 138t139.5 392q0 501 -521 501h-199zM177 0v616h-162v205h162v613h414q793 0 793 -699q0 -334 -220 -534.5t-590 -200.5h-397z"/>
<glyph glyph-name="Ntilde" horiz-adv-x="1571" unicode="Ñ" d="M1393 0h-260l-685 1054q-26 40 -43 83h-6q8 -46 8 -197v-940h-230v1434h277l662 -1029q42 -64 54 -88h4q-10 57 -10 193v924h229v-1434zM1154 1836q0 -116 -51.5 -189.5t-139.5 -73.5q-72 0 -165 48q-78 45 -121 45q-84 0 -84 -111h-115q0 119 51 190.5t143 71.5 q68 0 157 -51q72 -44 125 -44q81 0 81 114h119z"/>
<glyph glyph-name="Ograve" horiz-adv-x="1548" unicode="Ò" d="M779 1249q-197 0 -320.5 -147t-123.5 -387q0 -239 120 -385t314 -146q206 0 325 139t119 389q0 257 -115.5 397t-318.5 140zM768 -24q-310 0 -496.5 201t-186.5 523q0 346 190 552t516 206q302 0 486.5 -200t184.5 -523q0 -351 -189 -555t-505 -204zM920 1566h-173 l-262 328h214z"/>
<glyph glyph-name="Oacute" horiz-adv-x="1548" unicode="Ó" d="M779 1249q-197 0 -320.5 -147t-123.5 -387q0 -239 120 -385t314 -146q206 0 325 139t119 389q0 257 -115.5 397t-318.5 140zM768 -24q-310 0 -496.5 201t-186.5 523q0 346 190 552t516 206q302 0 486.5 -200t184.5 -523q0 -351 -189 -555t-505 -204zM1076 1908l-286 -328 h-172l242 328h216z"/>
<glyph glyph-name="Ocircumflex" horiz-adv-x="1548" unicode="Ô" d="M779 1249q-197 0 -320.5 -147t-123.5 -387q0 -239 120 -385t314 -146q206 0 325 139t119 389q0 257 -115.5 397t-318.5 140zM768 -24q-310 0 -496.5 201t-186.5 523q0 346 190 552t516 206q302 0 486.5 -200t184.5 -523q0 -351 -189 -555t-505 -204zM1101 1566h-160 l-161 211l-157 -211h-155l224 328h184z"/>
<glyph glyph-name="Otilde" horiz-adv-x="1548" unicode="Õ" d="M779 1249q-197 0 -320.5 -147t-123.5 -387q0 -239 120 -385t314 -146q206 0 325 139t119 389q0 257 -115.5 397t-318.5 140zM768 -24q-310 0 -496.5 201t-186.5 523q0 346 190 552t516 206q302 0 486.5 -200t184.5 -523q0 -351 -189 -555t-505 -204zM1122 1835 q0 -116 -51.5 -189.5t-139.5 -73.5q-72 0 -165 48q-78 45 -121 45q-84 0 -84 -111h-115q0 119 51 190.5t143 71.5q68 0 157 -51q72 -44 125 -44q81 0 81 114h119z"/>
<glyph glyph-name="Odieresis" horiz-adv-x="1548" unicode="Ö" d="M779 1249q-197 0 -320.5 -147t-123.5 -387q0 -239 120 -385t314 -146q206 0 325 139t119 389q0 257 -115.5 397t-318.5 140zM768 -24q-310 0 -496.5 201t-186.5 523q0 346 190 552t516 206q302 0 486.5 -200t184.5 -523q0 -351 -189 -555t-505 -204zM567 1564 q-52 0 -89 34.5t-37 82.5q0 49 35.5 82t86.5 33t88.5 -33.5t37.5 -81.5q0 -49 -36 -83t-86 -34zM983 1564q-50 0 -86.5 33t-36.5 84q0 49 35 82t85 33q53 0 89.5 -33.5t36.5 -81.5q0 -49 -35 -83t-88 -34z"/>
<glyph glyph-name="multiply" horiz-adv-x="1422" unicode="×" d="M1168 253l-116 -116l-340 340l-339 -340l-117 117l340 337l-340 340l115 117l341 -340l341 340l114 -119l-339 -338z"/>
<glyph glyph-name="Oslash" horiz-adv-x="1548" unicode="Ø" d="M1136 1069l-659 -780q114 -117 291 -117q212 0 334 142.5t122 397.5q0 222 -88 357zM1057 1171q-111 90 -276 90q-204 0 -330.5 -151.5t-126.5 -394.5q0 -192 75 -321zM335 121l-148 -177l-99 83l154 184q-157 193 -157 489q0 343 189.5 550.5t517.5 207.5 q233 0 401 -125l132 157l99 -81l-137 -162q176 -194 176 -512q0 -351 -189 -555t-506 -204q-261 0 -433 145z"/>
<glyph glyph-name="Ugrave" horiz-adv-x="1440" unicode="Ù" d="M1280 580q0 -604 -572 -604q-548 0 -548 581v877h238v-828q0 -422 328 -422q316 0 316 407v843h238v-854zM870 1566h-173l-262 328h214z"/>
<glyph glyph-name="Uacute" horiz-adv-x="1440" unicode="Ú" d="M1280 580q0 -604 -572 -604q-548 0 -548 581v877h238v-828q0 -422 328 -422q316 0 316 407v843h238v-854zM1029 1908l-286 -328h-172l242 328h216z"/>
<glyph glyph-name="Ucircumflex" horiz-adv-x="1440" unicode="Û" d="M1280 580q0 -604 -572 -604q-548 0 -548 581v877h238v-828q0 -422 328 -422q316 0 316 407v843h238v-854zM1037 1567h-160l-161 211l-157 -211h-155l224 328h184z"/>
<glyph glyph-name="Udieresis" horiz-adv-x="1440" unicode="Ü" d="M1280 580q0 -604 -572 -604q-548 0 -548 581v877h238v-828q0 -422 328 -422q316 0 316 407v843h238v-854zM511 1566q-52 0 -89 34.5t-37 82.5q0 49 35.5 82t86.5 33t88.5 -33.5t37.5 -81.5q0 -49 -36 -83t-86 -34zM927 1566q-50 0 -86.5 33t-36.5 84q0 49 35 82t85 33 q53 0 89.5 -33.5t36.5 -81.5q0 -49 -35 -83t-88 -34z"/>
<glyph glyph-name="Yacute" horiz-adv-x="1182" unicode="Ý" d="M1176 1434l-470 -913v-521h-238v516l-458 918h271l282 -615q5 -11 30 -83h3q9 32 33 83l295 615h252zM908 1894l-286 -328h-172l242 328h216z"/>
<glyph glyph-name="Thorn" horiz-adv-x="1197" unicode="Þ" d="M415 1020v-524h154q151 0 231.5 69t80.5 198q0 257 -294 257h-172zM415 301v-301h-238v1434h238v-219h207q245 0 377 -115t132 -326q0 -209 -143 -341t-385 -132h-188z"/>
<glyph glyph-name="germandbls" horiz-adv-x="1191" unicode="ß" d="M498 2v206q70 -48 158 -48q102 0 166 64.5t64 172.5q0 131 -95.5 213t-263.5 99v171q109 18 180 92.5t71 176.5q0 97 -50 150.5t-136 53.5q-209 0 -209 -280v-1073h-232v1084q0 206 123.5 330t332.5 124q186 0 297.5 -96t111.5 -253q0 -129 -73 -231t-190 -141v-5 q371 -74 371 -422q0 -176 -119.5 -295t-316.5 -119q-107 0 -190 26z"/>
<glyph glyph-name="agrave" horiz-adv-x="1069" unicode="à" d="M713 503l-215 -30q-100 -13 -150.5 -48.5t-50.5 -124.5q0 -65 46.5 -106.5t124.5 -41.5q106 0 175.5 74.5t69.5 187.5v89zM937 0h-225v160h-4q-106 -184 -311 -184q-151 0 -236.5 82t-85.5 217q0 290 334 338l304 43q0 219 -208 219q-183 0 -330 -126v203q162 96 374 96 q388 0 388 -382v-666zM719 1204h-173l-262 328h214z"/>
<glyph glyph-name="aacute" horiz-adv-x="1069" unicode="á" d="M713 503l-215 -30q-100 -13 -150.5 -48.5t-50.5 -124.5q0 -65 46.5 -106.5t124.5 -41.5q106 0 175.5 74.5t69.5 187.5v89zM937 0h-225v160h-4q-106 -184 -311 -184q-151 0 -236.5 82t-85.5 217q0 290 334 338l304 43q0 219 -208 219q-183 0 -330 -126v203q162 96 374 96 q388 0 388 -382v-666zM828 1546l-286 -328h-172l242 328h216z"/>
<glyph glyph-name="acircumflex" horiz-adv-x="1069" unicode="â" d="M713 503l-215 -30q-100 -13 -150.5 -48.5t-50.5 -124.5q0 -65 46.5 -106.5t124.5 -41.5q106 0 175.5 74.5t69.5 187.5v89zM937 0h-225v160h-4q-106 -184 -311 -184q-151 0 -236.5 82t-85.5 217q0 290 334 338l304 43q0 219 -208 219q-183 0 -330 -126v203q162 96 374 96 q388 0 388 -382v-666zM854 1204h-160l-161 211l-157 -211h-155l224 328h184z"/>
<glyph glyph-name="atilde" horiz-adv-x="1069" unicode="ã" d="M713 503l-215 -30q-100 -13 -150.5 -48.5t-50.5 -124.5q0 -65 46.5 -106.5t124.5 -41.5q106 0 175.5 74.5t69.5 187.5v89zM937 0h-225v160h-4q-106 -184 -311 -184q-151 0 -236.5 82t-85.5 217q0 290 334 338l304 43q0 219 -208 219q-183 0 -330 -126v203q162 96 374 96 q388 0 388 -382v-666zM872 1475q0 -116 -51.5 -189.5t-139.5 -73.5q-72 0 -165 48q-78 45 -121 45q-84 0 -84 -111h-115q0 119 51 190.5t143 71.5q68 0 157 -51q72 -44 125 -44q81 0 81 114h119z"/>
<glyph glyph-name="adieresis" horiz-adv-x="1069" unicode="ä" d="M713 503l-215 -30q-100 -13 -150.5 -48.5t-50.5 -124.5q0 -65 46.5 -106.5t124.5 -41.5q106 0 175.5 74.5t69.5 187.5v89zM937 0h-225v160h-4q-106 -184 -311 -184q-151 0 -236.5 82t-85.5 217q0 290 334 338l304 43q0 219 -208 219q-183 0 -330 -126v203q162 96 374 96 q388 0 388 -382v-666zM326 1203q-52 0 -89 34.5t-37 82.5q0 49 35.5 82t86.5 33t88.5 -33.5t37.5 -81.5q0 -49 -36 -83t-86 -34zM742 1203q-50 0 -86.5 33t-36.5 84q0 49 35 82t85 33q53 0 89.5 -33.5t36.5 -81.5q0 -49 -35 -83t-88 -34z"/>
<glyph glyph-name="aring" horiz-adv-x="1069" unicode="å" d="M713 503l-215 -30q-100 -13 -150.5 -48.5t-50.5 -124.5q0 -65 46.5 -106.5t124.5 -41.5q106 0 175.5 74.5t69.5 187.5v89zM937 0h-225v160h-4q-106 -184 -311 -184q-151 0 -236.5 82t-85.5 217q0 290 334 338l304 43q0 219 -208 219q-183 0 -330 -126v203q162 96 374 96 q388 0 388 -382v-666zM541 1490q-45 0 -74.5 -30t-29.5 -74q0 -104 104 -104q48 0 79.5 29.5t31.5 74.5t-31.5 74.5t-79.5 29.5zM541 1180q-94 0 -155.5 54t-61.5 142q0 98 63 156t161 58q96 0 157.5 -58.5t61.5 -149.5q0 -87 -65.5 -144.5t-160.5 -57.5z"/>
<glyph glyph-name="ae" horiz-adv-x="1700" unicode="æ" d="M713 412v55l-177 -11q-121 -7 -180.5 -43t-59.5 -119q0 -64 46.5 -103t125.5 -39q103 0 174 74t71 186zM1406 613q-2 127 -59 195.5t-160 68.5q-98 0 -168.5 -72t-86.5 -192h474zM1630 449h-699q3 -142 85 -219.5t225 -77.5q171 0 310 99v-186q-135 -89 -367 -89 q-275 0 -390 206h-4q-140 -206 -372 -206q-160 0 -251.5 82.5t-91.5 220.5q0 306 379 331l259 16q0 250 -201 250q-178 0 -336 -115v196q152 91 357 91q240 0 311 -170h4q114 170 349 170q206 0 319.5 -135.5t113.5 -376.5v-87z"/>
<glyph glyph-name="ccedilla" horiz-adv-x="963" unicode="ç" d="M884 47q-123 -71 -291 -71q-228 0 -368 142.5t-140 369.5q0 253 150.5 406.5t402.5 153.5q140 0 247 -49v-216q-107 80 -228 80q-147 0 -241 -99.5t-94 -260.5q0 -159 88.5 -251t237.5 -92q125 0 236 89v-202zM801 -248q0 -194 -288 -194q-47 0 -81 3v111q44 -6 71 -6 q133 0 133 82q0 74 -121 74q-10 0 -39 -4v182h136v-94q87 0 138 -40.5t51 -113.5z"/>
<glyph glyph-name="egrave" horiz-adv-x="1088" unicode="è" d="M794 613q-1 125 -59 194.5t-160 69.5q-100 0 -169.5 -73t-85.5 -191h474zM1018 449h-698q4 -142 87.5 -219t229.5 -77q164 0 301 98v-187q-140 -88 -370 -88q-226 0 -354.5 139.5t-128.5 392.5q0 239 141.5 389.5t351.5 150.5t325 -135t115 -375v-89zM756 1204h-173 l-262 328h214z"/>
<glyph glyph-name="eacute" horiz-adv-x="1088" unicode="é" d="M794 613q-1 125 -59 194.5t-160 69.5q-100 0 -169.5 -73t-85.5 -191h474zM1018 449h-698q4 -142 87.5 -219t229.5 -77q164 0 301 98v-187q-140 -88 -370 -88q-226 0 -354.5 139.5t-128.5 392.5q0 239 141.5 389.5t351.5 150.5t325 -135t115 -375v-89zM863 1546l-286 -328 h-172l242 328h216z"/>
<glyph glyph-name="ecircumflex" horiz-adv-x="1088" unicode="ê" d="M794 613q-1 125 -59 194.5t-160 69.5q-100 0 -169.5 -73t-85.5 -191h474zM1018 449h-698q4 -142 87.5 -219t229.5 -77q164 0 301 98v-187q-140 -88 -370 -88q-226 0 -354.5 139.5t-128.5 392.5q0 239 141.5 389.5t351.5 150.5t325 -135t115 -375v-89zM888 1204h-160 l-161 211l-157 -211h-155l224 328h184z"/>
<glyph glyph-name="edieresis" horiz-adv-x="1088" unicode="ë" d="M794 613q-1 125 -59 194.5t-160 69.5q-100 0 -169.5 -73t-85.5 -191h474zM1018 449h-698q4 -142 87.5 -219t229.5 -77q164 0 301 98v-187q-140 -88 -370 -88q-226 0 -354.5 139.5t-128.5 392.5q0 239 141.5 389.5t351.5 150.5t325 -135t115 -375v-89zM357 1203 q-52 0 -89 34.5t-37 82.5q0 49 35.5 82t86.5 33t88.5 -33.5t37.5 -81.5q0 -49 -36 -83t-86 -34zM773 1203q-50 0 -86.5 33t-36.5 84q0 49 35 82t85 33q53 0 89.5 -33.5t36.5 -81.5q0 -49 -35 -83t-88 -34z"/>
<glyph glyph-name="igrave" horiz-adv-x="535" unicode="ì" d="M384 0h-233v1024h233v-1024zM435 1204h-173l-262 328h214z"/>
<glyph glyph-name="iacute" horiz-adv-x="535" unicode="í" d="M384 0h-233v1024h233v-1024zM551 1546l-286 -328h-172l242 328h216z"/>
<glyph glyph-name="icircumflex" horiz-adv-x="535" unicode="î" d="M384 0h-233v1024h233v-1024zM582 1204h-160l-161 211l-157 -211h-155l224 328h184z"/>
<glyph glyph-name="idieresis" horiz-adv-x="535" unicode="ï" d="M384 0h-233v1024h233v-1024zM58 1203q-52 0 -89 34.5t-37 82.5q0 49 35.5 82t86.5 33t88.5 -33.5t37.5 -81.5q0 -49 -36 -83t-86 -34zM474 1203q-50 0 -86.5 33t-36.5 84q0 49 35 82t85 33q53 0 89.5 -33.5t36.5 -81.5q0 -49 -35 -83t-88 -34z"/>
<glyph glyph-name="eth" horiz-adv-x="1176" unicode="ð" d="M595 863q-127 0 -200 -95t-73 -259q0 -161 71 -255t198 -94q121 0 191.5 96.5t70.5 257.5q0 349 -258 349zM772 966l4 3q-90 154 -197 253l-295 -148l-65 118l257 123q-119 105 -266 201h280q67 -45 153 -119l282 139l65 -113l-242 -119q342 -307 342 -762 q0 -247 -136 -405.5t-370 -158.5q-235 0 -367 141.5t-132 386.5q0 239 129.5 388t349.5 149q122 0 208 -77z"/>
<glyph glyph-name="ntilde" horiz-adv-x="1195" unicode="ñ" d="M1063 0h-232v577q0 287 -203 287q-106 0 -175 -79.5t-69 -200.5v-584h-233v1024h233v-170h4q115 194 332 194q167 0 255 -108.5t88 -313.5v-626zM941 1475q0 -116 -51.5 -189.5t-139.5 -73.5q-72 0 -165 48q-78 45 -121 45q-84 0 -84 -111h-115q0 119 51 190.5t143 71.5 q68 0 157 -51q72 -44 125 -44q81 0 81 114h119z"/>
<glyph glyph-name="ograve" horiz-adv-x="1223" unicode="ò" d="M616 863q-136 0 -215 -95t-79 -262q0 -161 80 -253.5t214 -92.5q137 0 210.5 91t73.5 259q0 169 -73.5 261t-210.5 92zM605 -24q-237 0 -378.5 143.5t-141.5 380.5q0 258 147.5 403t397.5 145q240 0 374 -141t134 -391q0 -245 -144.5 -392.5t-388.5 -147.5zM794 1204 h-173l-262 328h214z"/>
<glyph glyph-name="oacute" horiz-adv-x="1223" unicode="ó" d="M616 863q-136 0 -215 -95t-79 -262q0 -161 80 -253.5t214 -92.5q137 0 210.5 91t73.5 259q0 169 -73.5 261t-210.5 92zM605 -24q-237 0 -378.5 143.5t-141.5 380.5q0 258 147.5 403t397.5 145q240 0 374 -141t134 -391q0 -245 -144.5 -392.5t-388.5 -147.5zM912 1546 l-286 -328h-172l242 328h216z"/>
<glyph glyph-name="ocircumflex" horiz-adv-x="1223" unicode="ô" d="M616 863q-136 0 -215 -95t-79 -262q0 -161 80 -253.5t214 -92.5q137 0 210.5 91t73.5 259q0 169 -73.5 261t-210.5 92zM605 -24q-237 0 -378.5 143.5t-141.5 380.5q0 258 147.5 403t397.5 145q240 0 374 -141t134 -391q0 -245 -144.5 -392.5t-388.5 -147.5zM931 1204 h-160l-161 211l-157 -211h-155l224 328h184z"/>
<glyph glyph-name="otilde" horiz-adv-x="1223" unicode="õ" d="M616 863q-136 0 -215 -95t-79 -262q0 -161 80 -253.5t214 -92.5q137 0 210.5 91t73.5 259q0 169 -73.5 261t-210.5 92zM605 -24q-237 0 -378.5 143.5t-141.5 380.5q0 258 147.5 403t397.5 145q240 0 374 -141t134 -391q0 -245 -144.5 -392.5t-388.5 -147.5zM955 1475 q0 -116 -51.5 -189.5t-139.5 -73.5q-72 0 -165 48q-78 45 -121 45q-84 0 -84 -111h-115q0 119 51 190.5t143 71.5q68 0 157 -51q72 -44 125 -44q81 0 81 114h119z"/>
<glyph glyph-name="odieresis" horiz-adv-x="1223" unicode="ö" d="M616 863q-136 0 -215 -95t-79 -262q0 -161 80 -253.5t214 -92.5q137 0 210.5 91t73.5 259q0 169 -73.5 261t-210.5 92zM605 -24q-237 0 -378.5 143.5t-141.5 380.5q0 258 147.5 403t397.5 145q240 0 374 -141t134 -391q0 -245 -144.5 -392.5t-388.5 -147.5zM406 1203 q-52 0 -89 34.5t-37 82.5q0 49 35.5 82t86.5 33t88.5 -33.5t37.5 -81.5q0 -49 -36 -83t-86 -34zM822 1203q-50 0 -86.5 33t-36.5 84q0 49 35 82t85 33q53 0 89.5 -33.5t36.5 -81.5q0 -49 -35 -83t-88 -34z"/>
<glyph glyph-name="divide" horiz-adv-x="1422" unicode="÷" d="M714 82q-51 0 -86.5 34.5t-35.5 83.5q0 51 34.5 88.5t87.5 37.5q117 0 117 -124q0 -51 -33.5 -85.5t-83.5 -34.5zM1190 509h-956v165h956v-165zM723 858q-53 0 -89.5 34.5t-36.5 84.5q0 52 33.5 88.5t87.5 36.5q118 0 118 -123q0 -53 -33.5 -87t-79.5 -34z"/>
<glyph glyph-name="oslash" horiz-adv-x="1223" unicode="ø" d="M877 701l-456 -488q76 -62 194 -62q145 0 221 94.5t76 266.5q0 110 -35 189zM798 815q-67 59 -181 59q-141 0 -222.5 -97t-81.5 -268q0 -105 35 -178zM1188 1030l-155 -164q105 -137 105 -344q0 -252 -145.5 -399t-387.5 -147q-194 0 -322 95l-140 -151l-99 90l144 155 q-103 137 -103 341q0 256 147 399.5t395 143.5q185 0 310 -91l151 163z"/>
<glyph glyph-name="ugrave" horiz-adv-x="1195" unicode="ù" d="M1044 0h-232v162h-4q-101 -186 -314 -186q-363 0 -363 436v612h232v-588q0 -276 213 -276q103 0 169.5 76t66.5 199v589h232v-1024zM740 1204h-173l-262 328h214z"/>
<glyph glyph-name="uacute" horiz-adv-x="1195" unicode="ú" d="M1044 0h-232v162h-4q-101 -186 -314 -186q-363 0 -363 436v612h232v-588q0 -276 213 -276q103 0 169.5 76t66.5 199v589h232v-1024zM913 1546l-286 -328h-172l242 328h216z"/>
<glyph glyph-name="ucircumflex" horiz-adv-x="1195" unicode="û" d="M1044 0h-232v162h-4q-101 -186 -314 -186q-363 0 -363 436v612h232v-588q0 -276 213 -276q103 0 169.5 76t66.5 199v589h232v-1024zM905 1204h-160l-161 211l-157 -211h-155l224 328h184z"/>
<glyph glyph-name="udieresis" horiz-adv-x="1195" unicode="ü" d="M1044 0h-232v162h-4q-101 -186 -314 -186q-363 0 -363 436v612h232v-588q0 -276 213 -276q103 0 169.5 76t66.5 199v589h232v-1024zM386 1203q-52 0 -89 34.5t-37 82.5q0 49 35.5 82t86.5 33t88.5 -33.5t37.5 -81.5q0 -49 -36 -83t-86 -34zM802 1203q-50 0 -86.5 33 t-36.5 84q0 49 35 82t85 33q53 0 89.5 -33.5t36.5 -81.5q0 -49 -35 -83t-88 -34z"/>
<glyph glyph-name="yacute" horiz-adv-x="1041" unicode="ý" d="M1038 1024l-462 -1188q-144 -318 -404 -318q-73 0 -122 13v193q55 -18 100 -18q130 0 194 128l69 168l-407 1022h257l244 -744q4 -14 18 -74h5q5 23 18 72l256 746h234zM845 1546l-286 -328h-172l242 328h216z"/>
<glyph glyph-name="thorn" horiz-adv-x="1234" unicode="þ" d="M381 551v-116q0 -115 71 -195t181 -80q130 0 203.5 102t73.5 283q0 149 -69 233.5t-187 84.5q-123 0 -198 -89t-75 -223zM383 134v-605h-232v1987h232v-661h4q117 193 343 193q197 0 307.5 -137.5t110.5 -368.5q0 -257 -124.5 -411.5t-340.5 -154.5q-194 0 -300 158z"/>
<glyph glyph-name="ydieresis" horiz-adv-x="1041" unicode="ÿ" d="M1038 1024l-462 -1188q-144 -318 -404 -318q-73 0 -122 13v193q55 -18 100 -18q130 0 194 128l69 168l-407 1022h257l244 -744q4 -14 18 -74h5q5 23 18 72l256 746h234zM319 1203q-52 0 -89 34.5t-37 82.5q0 49 35.5 82t86.5 33t88.5 -33.5t37.5 -81.5q0 -49 -36 -83 t-86 -34zM735 1203q-50 0 -86.5 33t-36.5 84q0 49 35 82t85 33q53 0 89.5 -33.5t36.5 -81.5q0 -49 -35 -83t-88 -34z"/>
<glyph glyph-name="Amacron" horiz-adv-x="1375" unicode="Ā" d="M902 559l-199 572q-9 28 -19 90h-4q-9 -57 -20 -90l-197 -572h439zM1355 0h-261l-129 365h-564l-124 -365h-260l537 1434h268zM957 1567h-543v137h543v-137z"/>
<glyph glyph-name="amacron" horiz-adv-x="1069" unicode="ā" d="M713 503l-215 -30q-100 -13 -150.5 -48.5t-50.5 -124.5q0 -65 46.5 -106.5t124.5 -41.5q106 0 175.5 74.5t69.5 187.5v89zM937 0h-225v160h-4q-106 -184 -311 -184q-151 0 -236.5 82t-85.5 217q0 290 334 338l304 43q0 219 -208 219q-183 0 -330 -126v203q162 96 374 96 q388 0 388 -382v-666zM828 1204h-543v137h543v-137z"/>
<glyph glyph-name="Abreve" horiz-adv-x="1375" unicode="Ă" d="M902 559l-199 572q-9 28 -19 90h-4q-9 -57 -20 -90l-197 -572h439zM1355 0h-261l-129 365h-564l-124 -365h-260l537 1434h268zM988 1843q-11 -124 -97.5 -200t-209.5 -76q-130 0 -211.5 75.5t-87.5 200.5h136q12 -146 166 -146q65 0 111 39.5t56 106.5h137z"/>
<glyph glyph-name="abreve" horiz-adv-x="1069" unicode="ă" d="M713 503l-215 -30q-100 -13 -150.5 -48.5t-50.5 -124.5q0 -65 46.5 -106.5t124.5 -41.5q106 0 175.5 74.5t69.5 187.5v89zM937 0h-225v160h-4q-106 -184 -311 -184q-151 0 -236.5 82t-85.5 217q0 290 334 338l304 43q0 219 -208 219q-183 0 -330 -126v203q162 96 374 96 q388 0 388 -382v-666zM851 1480q-11 -124 -97.5 -200t-209.5 -76q-130 0 -211.5 75.5t-87.5 200.5h136q12 -146 166 -146q65 0 111 39.5t56 106.5h137z"/>
<glyph glyph-name="Aogonek" horiz-adv-x="1375" unicode="Ą" d="M902 559l-199 572q-9 28 -19 90h-4q-9 -57 -20 -90l-197 -572h439zM1355 0h-261l-129 365h-564l-124 -365h-260l537 1434h268zM1227 0q-151 -137 -151 -216q0 -68 65 -68q36 0 68 13v-121q-38 -16 -105 -16q-78 0 -125.5 42t-47.5 116q0 122 161 250h135z"/>
<glyph glyph-name="aogonek" horiz-adv-x="1069" unicode="ą" d="M713 503l-215 -30q-100 -13 -150.5 -48.5t-50.5 -124.5q0 -65 46.5 -106.5t124.5 -41.5q106 0 175.5 74.5t69.5 187.5v89zM937 0h-225v160h-4q-106 -184 -311 -184q-151 0 -236.5 82t-85.5 217q0 290 334 338l304 43q0 219 -208 219q-183 0 -330 -126v203q162 96 374 96 q388 0 388 -382v-666zM845 0q-151 -137 -151 -216q0 -68 65 -68q36 0 68 13v-121q-38 -16 -105 -16q-78 0 -125.5 42t-47.5 116q0 122 161 250h135z"/>
<glyph glyph-name="Cacute" horiz-adv-x="1272" unicode="Ć" d="M1177 60q-162 -84 -403 -84q-312 0 -500 197t-188 517q0 344 211.5 556t534.5 212q208 0 345 -59v-236q-145 86 -320 86q-233 0 -377.5 -149t-144.5 -398q0 -237 135 -377.5t355 -140.5q203 0 352 96v-220zM1079 1908l-286 -328h-172l242 328h216z"/>
<glyph glyph-name="cacute" horiz-adv-x="963" unicode="ć" d="M884 47q-123 -71 -291 -71q-228 0 -368 142.5t-140 369.5q0 253 150.5 406.5t402.5 153.5q140 0 247 -49v-216q-107 80 -228 80q-147 0 -241 -99.5t-94 -260.5q0 -159 88.5 -251t237.5 -92q125 0 236 89v-202zM876 1546l-286 -328h-172l242 328h216z"/>
<glyph glyph-name="Ccircumflex" horiz-adv-x="1272" unicode="Ĉ" d="M1177 60q-162 -84 -403 -84q-312 0 -500 197t-188 517q0 344 211.5 556t534.5 212q208 0 345 -59v-236q-145 86 -320 86q-233 0 -377.5 -149t-144.5 -398q0 -237 135 -377.5t355 -140.5q203 0 352 96v-220zM1097 1567h-160l-161 211l-157 -211h-155l224 328h184z"/>
<glyph glyph-name="ccircumflex" horiz-adv-x="963" unicode="ĉ" d="M884 47q-123 -71 -291 -71q-228 0 -368 142.5t-140 369.5q0 253 150.5 406.5t402.5 153.5q140 0 247 -49v-216q-107 80 -228 80q-147 0 -241 -99.5t-94 -260.5q0 -159 88.5 -251t237.5 -92q125 0 236 89v-202zM890 1204h-160l-161 211l-157 -211h-155l224 328h184z"/>
<glyph glyph-name="Cdotaccent" horiz-adv-x="1272" unicode="Ċ" d="M1177 60q-162 -84 -403 -84q-312 0 -500 197t-188 517q0 344 211.5 556t534.5 212q208 0 345 -59v-236q-145 86 -320 86q-233 0 -377.5 -149t-144.5 -398q0 -237 135 -377.5t355 -140.5q203 0 352 96v-220zM790 1566q-50 0 -86.5 33.5t-36.5 82.5q0 48 36 81t87 33 t87 -32.5t36 -81.5q0 -48 -36 -82t-87 -34z"/>
<glyph glyph-name="cdotaccent" horiz-adv-x="963" unicode="ċ" d="M884 47q-123 -71 -291 -71q-228 0 -368 142.5t-140 369.5q0 253 150.5 406.5t402.5 153.5q140 0 247 -49v-216q-107 80 -228 80q-147 0 -241 -99.5t-94 -260.5q0 -159 88.5 -251t237.5 -92q125 0 236 89v-202zM600 1203q-50 0 -86.5 33.5t-36.5 82.5q0 48 36 81t87 33 t87 -32.5t36 -81.5q0 -48 -36 -82t-87 -34z"/>
<glyph glyph-name="Ccaron" horiz-adv-x="1272" unicode="Č" d="M1177 60q-162 -84 -403 -84q-312 0 -500 197t-188 517q0 344 211.5 556t534.5 212q208 0 345 -59v-236q-145 86 -320 86q-233 0 -377.5 -149t-144.5 -398q0 -237 135 -377.5t355 -140.5q203 0 352 96v-220zM1102 1893l-224 -327h-185l-224 327h155l160 -210l161 210h157z "/>
<glyph glyph-name="ccaron" horiz-adv-x="963" unicode="č" d="M884 47q-123 -71 -291 -71q-228 0 -368 142.5t-140 369.5q0 253 150.5 406.5t402.5 153.5q140 0 247 -49v-216q-107 80 -228 80q-147 0 -241 -99.5t-94 -260.5q0 -159 88.5 -251t237.5 -92q125 0 236 89v-202zM898 1531l-224 -327h-185l-224 327h155l160 -210l161 210 h157z"/>
<glyph glyph-name="Dcaron" horiz-adv-x="1469" unicode="Ď" d="M414 1232v-1031h190q251 0 390.5 138t139.5 390q0 503 -521 503h-199zM177 0v1434h414q793 0 793 -699q0 -332 -220 -533.5t-590 -201.5h-397zM1013 1893l-224 -327h-185l-224 327h155l160 -210l161 210h157z"/>
<glyph glyph-name="dcaron" horiz-adv-x="1442" unicode="ď" d="M853 468v134q0 109 -71 185t-181 76q-130 0 -204.5 -97t-74.5 -269q0 -156 71.5 -246.5t192.5 -90.5q119 0 193 87.5t74 220.5zM1082 0h-232v174h-4q-112 -198 -345 -198q-189 0 -302.5 137.5t-113.5 374.5q0 254 125.5 407t334.5 153q207 0 301 -166h4v634h232v-1516z M1513 1516l-167 -302h-155l105 302h217z"/>
<glyph glyph-name="Dcroat" horiz-adv-x="1469" unicode="Đ" d="M414 1232v-411h307v-205h-307v-415h190q251 0 390.5 138t139.5 392q0 501 -521 501h-199zM177 0v616h-162v205h162v613h414q793 0 793 -699q0 -334 -220 -534.5t-590 -200.5h-397z"/>
<glyph glyph-name="dcroat" horiz-adv-x="1246" unicode="đ" d="M853 472v124q0 112 -72 189.5t-182 77.5q-129 0 -203 -97.5t-74 -269.5q0 -156 71.5 -246t192.5 -90q118 0 192.5 88.5t74.5 223.5zM1082 0h-232v159h-4q-107 -183 -330 -183q-196 0 -313.5 137.5t-117.5 374.5q0 254 127.5 407t340.5 153q199 0 293 -155h4v295h-331v166 h331v162h232v-162h139v-166h-139v-1188z"/>
<glyph glyph-name="Emacron" horiz-adv-x="1060" unicode="Ē" d="M982 0h-805v1434h773v-202h-535v-406h493v-201h-493v-424h567v-201zM841 1566h-543v137h543v-137z"/>
<glyph glyph-name="emacron" horiz-adv-x="1088" unicode="ē" d="M794 613q-1 125 -59 194.5t-160 69.5q-100 0 -169.5 -73t-85.5 -191h474zM1018 449h-698q4 -142 87.5 -219t229.5 -77q164 0 301 98v-187q-140 -88 -370 -88q-226 0 -354.5 139.5t-128.5 392.5q0 239 141.5 389.5t351.5 150.5t325 -135t115 -375v-89zM841 1204h-543v137 h543v-137z"/>
<glyph glyph-name="Ebreve" horiz-adv-x="1060" unicode="Ĕ" d="M982 0h-805v1434h773v-202h-535v-406h493v-201h-493v-424h567v-201zM872 1843q-11 -124 -97.5 -200t-209.5 -76q-130 0 -211.5 75.5t-87.5 200.5h136q12 -146 166 -146q65 0 111 39.5t56 106.5h137z"/>
<glyph glyph-name="ebreve" horiz-adv-x="1088" unicode="ĕ" d="M794 613q-1 125 -59 194.5t-160 69.5q-100 0 -169.5 -73t-85.5 -191h474zM1018 449h-698q4 -142 87.5 -219t229.5 -77q164 0 301 98v-187q-140 -88 -370 -88q-226 0 -354.5 139.5t-128.5 392.5q0 239 141.5 389.5t351.5 150.5t325 -135t115 -375v-89zM867 1480 q-11 -124 -97.5 -200t-209.5 -76q-130 0 -211.5 75.5t-87.5 200.5h136q12 -146 166 -146q65 0 111 39.5t56 106.5h137z"/>
<glyph glyph-name="Edotaccent" horiz-adv-x="1060" unicode="Ė" d="M982 0h-805v1434h773v-202h-535v-406h493v-201h-493v-424h567v-201zM566 1566q-50 0 -86.5 33.5t-36.5 82.5q0 48 36 81t87 33t87 -32.5t36 -81.5q0 -48 -36 -82t-87 -34z"/>
<glyph glyph-name="edotaccent" horiz-adv-x="1088" unicode="ė" d="M794 613q-1 125 -59 194.5t-160 69.5q-100 0 -169.5 -73t-85.5 -191h474zM1018 449h-698q4 -142 87.5 -219t229.5 -77q164 0 301 98v-187q-140 -88 -370 -88q-226 0 -354.5 139.5t-128.5 392.5q0 239 141.5 389.5t351.5 150.5t325 -135t115 -375v-89zM584 1203 q-50 0 -86.5 33.5t-36.5 82.5q0 48 36 81t87 33t87 -32.5t36 -81.5q0 -48 -36 -82t-87 -34z"/>
<glyph glyph-name="Eogonek" horiz-adv-x="1060" unicode="Ę" d="M982 0h-805v1434h773v-202h-535v-406h493v-201h-493v-424h567v-201zM892 0q-151 -137 -151 -216q0 -68 65 -68q36 0 68 13v-121q-38 -16 -105 -16q-78 0 -125.5 42t-47.5 116q0 122 161 250h135z"/>
<glyph glyph-name="eogonek" horiz-adv-x="1088" unicode="ę" d="M794 613q-1 125 -59 194.5t-160 69.5q-100 0 -169.5 -73t-85.5 -191h474zM1018 449h-698q4 -142 87.5 -219t229.5 -77q164 0 301 98v-187q-140 -88 -370 -88q-226 0 -354.5 139.5t-128.5 392.5q0 239 141.5 389.5t351.5 150.5t325 -135t115 -375v-89zM782 0 q-151 -137 -151 -216q0 -68 65 -68q36 0 68 13v-121q-38 -16 -105 -16q-78 0 -125.5 42t-47.5 116q0 122 161 250h135z"/>
<glyph glyph-name="Ecaron" horiz-adv-x="1060" unicode="Ě" d="M982 0h-805v1434h773v-202h-535v-406h493v-201h-493v-424h567v-201zM891 1893l-224 -327h-185l-224 327h155l160 -210l161 210h157z"/>
<glyph glyph-name="ecaron" horiz-adv-x="1088" unicode="ě" d="M794 613q-1 125 -59 194.5t-160 69.5q-100 0 -169.5 -73t-85.5 -191h474zM1018 449h-698q4 -142 87.5 -219t229.5 -77q164 0 301 98v-187q-140 -88 -370 -88q-226 0 -354.5 139.5t-128.5 392.5q0 239 141.5 389.5t351.5 150.5t325 -135t115 -375v-89zM884 1531l-224 -327 h-185l-224 327h155l160 -210l161 210h157z"/>
<glyph glyph-name="Gcircumflex" horiz-adv-x="1428" unicode="Ĝ" d="M1296 98q-224 -122 -499 -122q-318 0 -515 198t-197 524q0 333 215.5 546.5t547.5 213.5q239 0 402 -70v-245q-165 110 -393 110q-229 0 -375.5 -151t-146.5 -391q0 -247 126 -388.5t342 -141.5q148 0 256 57v341h-302v200h539v-681zM1121 1567h-160l-161 211l-157 -211 h-155l224 328h184z"/>
<glyph glyph-name="gcircumflex" horiz-adv-x="1234" unicode="ĝ" d="M853 469v133q0 108 -71.5 184.5t-178.5 76.5q-132 0 -206.5 -97.5t-74.5 -272.5q0 -151 71.5 -241.5t189.5 -90.5q120 0 195 86.5t75 221.5zM1083 82q0 -564 -567 -564q-200 0 -349 67v212q168 -96 319 -96q365 0 365 359v112h-4q-115 -196 -346 -196 q-187 0 -301.5 136.5t-114.5 366.5q0 261 123 415t338 154q203 0 301 -166h4v142h232v-942zM922 1204h-160l-161 211l-157 -211h-155l224 328h184z"/>
<glyph glyph-name="Gbreve" horiz-adv-x="1428" unicode="Ğ" d="M1296 98q-224 -122 -499 -122q-318 0 -515 198t-197 524q0 333 215.5 546.5t547.5 213.5q239 0 402 -70v-245q-165 110 -393 110q-229 0 -375.5 -151t-146.5 -391q0 -247 126 -388.5t342 -141.5q148 0 256 57v341h-302v200h539v-681zM1102 1842q-11 -124 -97.5 -200 t-209.5 -76q-130 0 -211.5 75.5t-87.5 200.5h136q12 -146 166 -146q65 0 111 39.5t56 106.5h137z"/>
<glyph glyph-name="gbreve" horiz-adv-x="1234" unicode="ğ" d="M853 469v133q0 108 -71.5 184.5t-178.5 76.5q-132 0 -206.5 -97.5t-74.5 -272.5q0 -151 71.5 -241.5t189.5 -90.5q120 0 195 86.5t75 221.5zM1083 82q0 -564 -567 -564q-200 0 -349 67v212q168 -96 319 -96q365 0 365 359v112h-4q-115 -196 -346 -196 q-187 0 -301.5 136.5t-114.5 366.5q0 261 123 415t338 154q203 0 301 -166h4v142h232v-942zM914 1480q-11 -124 -97.5 -200t-209.5 -76q-130 0 -211.5 75.5t-87.5 200.5h136q12 -146 166 -146q65 0 111 39.5t56 106.5h137z"/>
<glyph glyph-name="Gdotaccent" horiz-adv-x="1428" unicode="Ġ" d="M1296 98q-224 -122 -499 -122q-318 0 -515 198t-197 524q0 333 215.5 546.5t547.5 213.5q239 0 402 -70v-245q-165 110 -393 110q-229 0 -375.5 -151t-146.5 -391q0 -247 126 -388.5t342 -141.5q148 0 256 57v341h-302v200h539v-681zM806 1566q-50 0 -86.5 33.5 t-36.5 82.5q0 48 36 81t87 33t87 -32.5t36 -81.5q0 -48 -36 -82t-87 -34z"/>
<glyph glyph-name="gdotaccent" horiz-adv-x="1234" unicode="ġ" d="M853 469v133q0 108 -71.5 184.5t-178.5 76.5q-132 0 -206.5 -97.5t-74.5 -272.5q0 -151 71.5 -241.5t189.5 -90.5q120 0 195 86.5t75 221.5zM1083 82q0 -564 -567 -564q-200 0 -349 67v212q168 -96 319 -96q365 0 365 359v112h-4q-115 -196 -346 -196 q-187 0 -301.5 136.5t-114.5 366.5q0 261 123 415t338 154q203 0 301 -166h4v142h232v-942zM600 1203q-50 0 -86.5 33.5t-36.5 82.5q0 48 36 81t87 33t87 -32.5t36 -81.5q0 -48 -36 -82t-87 -34z"/>
<glyph glyph-name="Gcommaaccent" horiz-adv-x="1428" unicode="Ģ" d="M1296 98q-224 -122 -499 -122q-318 0 -515 198t-197 524q0 333 215.5 546.5t547.5 213.5q239 0 402 -70v-245q-165 110 -393 110q-229 0 -375.5 -151t-146.5 -391q0 -247 126 -388.5t342 -141.5q148 0 256 57v341h-302v200h539v-681zM924 -118l-167 -302h-155l105 302 h217z"/>
<glyph glyph-name="gcommaaccent" horiz-adv-x="1234" unicode="ģ" d="M465 1203l167 302h155l-105 -302h-217zM853 469v133q0 108 -71.5 184.5t-178.5 76.5q-132 0 -206.5 -97.5t-74.5 -272.5q0 -151 71.5 -241.5t189.5 -90.5q120 0 195 86.5t75 221.5zM1083 82q0 -564 -567 -564q-200 0 -349 67v212q168 -96 319 -96q365 0 365 359v112h-4 q-115 -196 -346 -196q-187 0 -301.5 136.5t-114.5 366.5q0 261 123 415t338 154q203 0 301 -166h4v142h232v-942z"/>
<glyph glyph-name="Hcircumflex" horiz-adv-x="1506" unicode="Ĥ" d="M1329 0h-239v622h-675v-622h-238v1434h238v-603h675v603h239v-1434zM1067 1566h-160l-161 211l-157 -211h-155l224 328h184z"/>
<glyph glyph-name="hcircumflex" horiz-adv-x="1192" unicode="ĥ" d="M1061 0h-232v560q0 304 -203 304q-102 0 -172 -88t-70 -225v-551h-233v1516h233v-662h4q116 194 332 194q341 0 341 -417v-631zM956 1611h-160l-161 211l-157 -211h-155l224 328h184z"/>
<glyph glyph-name="Hbar" horiz-adv-x="1506" unicode="Ħ" d="M414 1023v-193h676v193h-676zM1328 0h-238v622h-676v-622h-237v1023h-162v176h162v235h237v-235h676v235h238v-235h162v-176h-162v-1023z"/>
<glyph glyph-name="hbar" horiz-adv-x="1205" unicode="ħ" d="M1076 0h-230v567q0 284 -205 284q-102 0 -171.5 -78.5t-69.5 -201.5v-571h-232v1192h-139v145h139v179h232v-179h331v-145h-331v-340h4q117 186 327 186q168 0 256.5 -107.5t88.5 -310.5v-620z"/>
<glyph glyph-name="Itilde" horiz-adv-x="592" unicode="Ĩ" d="M546 1434v-192h-131v-1050h131v-192h-500v192h131v1050h-131v192h500zM635 1828q0 -116 -51.5 -189.5t-139.5 -73.5q-72 0 -165 48q-78 45 -121 45q-84 0 -84 -111h-115q0 119 51 190.5t143 71.5q68 0 157 -51q72 -44 125 -44q81 0 81 114h119z"/>
<glyph glyph-name="itilde" horiz-adv-x="535" unicode="ĩ" d="M384 0h-233v1024h233v-1024zM601 1475q0 -116 -51.5 -189.5t-139.5 -73.5q-72 0 -165 48q-78 45 -121 45q-84 0 -84 -111h-115q0 119 51 190.5t143 71.5q68 0 157 -51q72 -44 125 -44q81 0 81 114h119z"/>
<glyph glyph-name="Imacron" horiz-adv-x="592" unicode="Ī" d="M546 1434v-192h-131v-1050h131v-192h-500v192h131v1050h-131v192h500zM569 1566h-543v137h543v-137z"/>
<glyph glyph-name="imacron" horiz-adv-x="535" unicode="ī" d="M384 0h-233v1024h233v-1024zM534 1204h-543v137h543v-137z"/>
<glyph glyph-name="Ibreve" horiz-adv-x="592" unicode="Ĭ" d="M546 1434v-192h-131v-1050h131v-192h-500v192h131v1050h-131v192h500zM601 1842q-11 -124 -97.5 -200t-209.5 -76q-130 0 -211.5 75.5t-87.5 200.5h136q12 -146 166 -146q65 0 111 39.5t56 106.5h137z"/>
<glyph glyph-name="ibreve" horiz-adv-x="535" unicode="ĭ" d="M384 0h-233v1024h233v-1024zM566 1480q-11 -124 -97.5 -200t-209.5 -76q-130 0 -211.5 75.5t-87.5 200.5h136q12 -146 166 -146q65 0 111 39.5t56 106.5h137z"/>
<glyph glyph-name="Iogonek" horiz-adv-x="592" unicode="Į" d="M546 1434v-192h-131v-1050h131v-192h-500v192h131v1050h-131v192h500zM453 0q-151 -137 -151 -216q0 -68 65 -68q36 0 68 13v-121q-38 -16 -105 -16q-78 0 -125.5 42t-47.5 116q0 122 161 250h135z"/>
<glyph glyph-name="iogonek" horiz-adv-x="535" unicode="į" d="M383 0h-232v1024h232v-1024zM268 1239q-57 0 -97.5 37t-40.5 94t40.5 95t97.5 38q59 0 100 -38t41 -95q0 -54 -41 -92.5t-100 -38.5zM383 0q-151 -137 -151 -216q0 -68 65 -68q36 0 68 13v-121q-38 -16 -105 -16q-78 0 -125.5 42t-47.5 116q0 122 161 250h135z"/>
<glyph glyph-name="Idotaccent" horiz-adv-x="592" unicode="İ" d="M546 1434v-192h-131v-1050h131v-192h-500v192h131v1050h-131v192h500zM295 1566q-50 0 -86.5 33.5t-36.5 82.5q0 48 36 81t87 33t87 -32.5t36 -81.5q0 -48 -36 -82t-87 -34z"/>
<glyph glyph-name="dotlessi" horiz-adv-x="535" unicode="ı" d="M384 0h-233v1024h233v-1024z"/>
<glyph glyph-name="IJ" horiz-adv-x="1404" unicode="Ĳ" d="M546 1434v-192h-131v-1050h131v-192h-500v192h131v1050h-131v192h500zM1241 514q0 -255 -126 -396.5t-336 -141.5q-98 0 -161 23v224q57 -39 147 -39q238 0 238 368v882h238v-920z"/>
<glyph glyph-name="ij" horiz-adv-x="1115" unicode="ĳ" d="M383 0h-232v1024h232v-1024zM268 1239q-57 0 -97.5 37t-40.5 94t40.5 95t97.5 38q59 0 100 -38t41 -95q0 -54 -41 -92.5t-100 -38.5zM849 1239q-57 0 -97.5 37t-40.5 94t40.5 95t97.5 38q58 0 99 -38t41 -95q0 -54 -41 -92.5t-99 -38.5zM963 43q0 -252 -106 -388.5 t-303 -136.5q-73 0 -142 32v199q65 -45 123 -45q196 0 196 346v974h232v-981z"/>
<glyph glyph-name="Jcircumflex" horiz-adv-x="812" unicode="Ĵ" d="M648 514q0 -255 -126 -396.5t-336 -141.5q-98 0 -161 23v224q57 -39 147 -39q238 0 238 368v882h238v-920zM845 1566h-160l-161 211l-157 -211h-155l224 328h184z"/>
<glyph glyph-name="jcircumflex" horiz-adv-x="535" unicode="ĵ" d="M383 31q0 -246 -106 -379t-303 -133q-73 0 -142 31v196q68 -42 129 -42q190 0 190 302v1018h232v-993zM583 1204h-160l-161 211l-157 -211h-155l224 328h184z"/>
<glyph glyph-name="Kcommaaccent" horiz-adv-x="1251" unicode="Ķ" d="M1262 0h-310l-499 656q-28 37 -34 50h-4v-706h-238v1434h238v-674h4q12 22 34 49l481 625h285l-563 -688zM782 -118l-167 -302h-155l105 302h217z"/>
<glyph glyph-name="kcommaaccent" horiz-adv-x="1075" unicode="ķ" d="M1080 0h-294l-398 492h-4v-492h-233v1516h233v-961h4l376 469h279l-423 -494zM698 -118l-167 -302h-155l105 302h217z"/>
<glyph glyph-name="kgreenlandic" horiz-adv-x="1075" unicode="ĸ" d="M1081 0h-295l-398 499h-4v-499h-233v1024h233v-471h4l376 471h284l-426 -488z"/>
<glyph glyph-name="Lacute" horiz-adv-x="1001" unicode="Ĺ" d="M971 0h-794v1434h238v-1233h556v-201zM888 1908l-286 -328h-172l242 328h216z"/>
<glyph glyph-name="lacute" horiz-adv-x="535" unicode="ĺ" d="M384 0h-233v1516h233v-1516zM597 1992l-286 -328h-172l242 328h216z"/>
<glyph glyph-name="Lcommaaccent" horiz-adv-x="1001" unicode="Ļ" d="M971 0h-794v1434h238v-1233h556v-201zM798 -248q0 -194 -288 -194q-47 0 -81 3v111q44 -6 71 -6q133 0 133 82q0 74 -121 74q-10 0 -39 -4v182h136v-94q87 0 138 -40.5t51 -113.5z"/>
<glyph glyph-name="lcommaaccent" horiz-adv-x="535" unicode="ļ" d="M384 0h-233v1516h233v-1516zM501 -248q0 -194 -288 -194q-47 0 -81 3v111q44 -6 71 -6q133 0 133 82q0 74 -121 74q-10 0 -39 -4v182h136v-94q87 0 138 -40.5t51 -113.5z"/>
<glyph glyph-name="Lcaron" horiz-adv-x="1001" unicode="Ľ" d="M971 0h-794v1434h238v-1233h556v-201zM972 1435l-167 -302h-155l105 302h217z"/>
<glyph glyph-name="lcaron" horiz-adv-x="682" unicode="ľ" d="M384 0h-233v1516h233v-1516zM801 1512l-167 -302h-155l105 302h217z"/>
<glyph glyph-name="Ldot" horiz-adv-x="1001" unicode="Ŀ" d="M971 0h-794v1434h238v-1233h556v-201zM776 660q-50 0 -86.5 33.5t-36.5 82.5q0 48 36 81t87 33t87 -32.5t36 -81.5q0 -48 -36 -82t-87 -34z"/>
<glyph glyph-name="ldot" horiz-adv-x="754" unicode="ŀ" d="M384 0h-233v1516h233v-1516zM631 633q-50 0 -86.5 33.5t-36.5 82.5q0 48 36 81t87 33t87 -32.5t36 -81.5q0 -48 -36 -82t-87 -34z"/>
<glyph glyph-name="Lslash" horiz-adv-x="1001" unicode="Ł" d="M971 0h-794v511l-158 -92v202l158 91v722h238v-594l308 179v-203l-308 -177v-438h556v-201z"/>
<glyph glyph-name="lslash" horiz-adv-x="598" unicode="ł" d="M566 785l-157 -106v-679h-232v530l-152 -103v202l152 103v784h232v-635l157 105v-201z"/>
<glyph glyph-name="Nacute" horiz-adv-x="1571" unicode="Ń" d="M1393 0h-260l-685 1054q-26 40 -43 83h-6q8 -46 8 -197v-940h-230v1434h277l662 -1029q42 -64 54 -88h4q-10 57 -10 193v924h229v-1434zM1110 1908l-286 -328h-172l242 328h216z"/>
<glyph glyph-name="nacute" horiz-adv-x="1195" unicode="ń" d="M1063 0h-232v577q0 287 -203 287q-106 0 -175 -79.5t-69 -200.5v-584h-233v1024h233v-170h4q115 194 332 194q167 0 255 -108.5t88 -313.5v-626zM908 1546l-286 -328h-172l242 328h216z"/>
<glyph glyph-name="Ncommaaccent" horiz-adv-x="1571" unicode="Ņ" d="M1393 0h-260l-685 1054q-26 40 -43 83h-6q8 -46 8 -197v-940h-230v1434h277l662 -1029q42 -64 54 -88h4q-10 57 -10 193v924h229v-1434zM924 -118l-167 -302h-155l105 302h217z"/>
<glyph glyph-name="ncommaaccent" horiz-adv-x="1195" unicode="ņ" d="M1063 0h-232v577q0 287 -203 287q-106 0 -175 -79.5t-69 -200.5v-584h-233v1024h233v-170h4q115 194 332 194q167 0 255 -108.5t88 -313.5v-626zM741 -118l-167 -302h-155l105 302h217z"/>
<glyph glyph-name="Ncaron" horiz-adv-x="1571" unicode="Ň" d="M1393 0h-260l-685 1054q-26 40 -43 83h-6q8 -46 8 -197v-940h-230v1434h277l662 -1029q42 -64 54 -88h4q-10 57 -10 193v924h229v-1434zM1101 1893l-224 -327h-185l-224 327h155l160 -210l161 210h157z"/>
<glyph glyph-name="ncaron" horiz-adv-x="1195" unicode="ň" d="M1063 0h-232v577q0 287 -203 287q-106 0 -175 -79.5t-69 -200.5v-584h-233v1024h233v-170h4q115 194 332 194q167 0 255 -108.5t88 -313.5v-626zM935 1531l-224 -327h-185l-224 327h155l160 -210l161 210h157z"/>
<glyph glyph-name="napostrophe" horiz-adv-x="1241" unicode="ŉ" d="M239 1462l-163 -445h-153l113 445h203zM1109 0h-232v577q0 287 -203 287q-106 0 -175 -79.5t-69 -200.5v-584h-233v1024h233v-170h4q115 194 332 194q167 0 255 -108.5t88 -313.5v-626z"/>
<glyph glyph-name="Eng" horiz-adv-x="1571" unicode="Ŋ" d="M446 1054q-21 30 -43 83h-6q9 -49 9 -182v-955h-229v1434h276l662 -979q2 -2 53 -96h4q-9 66 -9 202v873h229v-1357q0 -499 -378 -499q-93 0 -167 32v203q77 -41 140 -41q174 0 174 229z"/>
<glyph glyph-name="eng" horiz-adv-x="1195" unicode="ŋ" d="M1064 43q0 -465 -381 -465q-85 0 -154 31v202q72 -41 131 -41q172 0 172 254v539q0 301 -208 301q-103 0 -171.5 -79.5t-68.5 -200.5v-584h-233v1024h233v-170h4q116 194 332 194q344 0 344 -415v-590z"/>
<glyph glyph-name="Omacron" horiz-adv-x="1548" unicode="Ō" d="M779 1249q-197 0 -320.5 -147t-123.5 -387q0 -239 120 -385t314 -146q206 0 325 139t119 389q0 257 -115.5 397t-318.5 140zM768 -24q-310 0 -496.5 201t-186.5 523q0 346 190 552t516 206q302 0 486.5 -200t184.5 -523q0 -351 -189 -555t-505 -204zM1048 1566h-543v137 h543v-137z"/>
<glyph glyph-name="omacron" horiz-adv-x="1223" unicode="ō" d="M616 863q-136 0 -215 -95t-79 -262q0 -161 80 -253.5t214 -92.5q137 0 210.5 91t73.5 259q0 169 -73.5 261t-210.5 92zM605 -24q-237 0 -378.5 143.5t-141.5 380.5q0 258 147.5 403t397.5 145q240 0 374 -141t134 -391q0 -245 -144.5 -392.5t-388.5 -147.5zM888 1204 h-543v137h543v-137z"/>
<glyph glyph-name="Obreve" horiz-adv-x="1548" unicode="Ŏ" d="M779 1249q-197 0 -320.5 -147t-123.5 -387q0 -239 120 -385t314 -146q206 0 325 139t119 389q0 257 -115.5 397t-318.5 140zM768 -24q-310 0 -496.5 201t-186.5 523q0 346 190 552t516 206q302 0 486.5 -200t184.5 -523q0 -351 -189 -555t-505 -204zM1082 1843 q-11 -124 -97.5 -200t-209.5 -76q-130 0 -211.5 75.5t-87.5 200.5h136q12 -146 166 -146q65 0 111 39.5t56 106.5h137z"/>
<glyph glyph-name="obreve" horiz-adv-x="1223" unicode="ŏ" d="M616 863q-136 0 -215 -95t-79 -262q0 -161 80 -253.5t214 -92.5q137 0 210.5 91t73.5 259q0 169 -73.5 261t-210.5 92zM605 -24q-237 0 -378.5 143.5t-141.5 380.5q0 258 147.5 403t397.5 145q240 0 374 -141t134 -391q0 -245 -144.5 -392.5t-388.5 -147.5zM925 1480 q-11 -124 -97.5 -200t-209.5 -76q-130 0 -211.5 75.5t-87.5 200.5h136q12 -146 166 -146q65 0 111 39.5t56 106.5h137z"/>
<glyph glyph-name="Ohungarumlaut" horiz-adv-x="1548" unicode="Ő" d="M779 1249q-197 0 -320.5 -147t-123.5 -387q0 -239 120 -385t314 -146q206 0 325 139t119 389q0 257 -115.5 397t-318.5 140zM768 -24q-310 0 -496.5 201t-186.5 523q0 346 190 552t516 206q302 0 486.5 -200t184.5 -523q0 -351 -189 -555t-505 -204zM888 1885l-243 -318 h-148l208 318h183zM1194 1885l-248 -318h-148l211 318h185z"/>
<glyph glyph-name="ohungarumlaut" horiz-adv-x="1223" unicode="ő" d="M616 863q-136 0 -215 -95t-79 -262q0 -161 80 -253.5t214 -92.5q137 0 210.5 91t73.5 259q0 169 -73.5 261t-210.5 92zM605 -24q-237 0 -378.5 143.5t-141.5 380.5q0 258 147.5 403t397.5 145q240 0 374 -141t134 -391q0 -245 -144.5 -392.5t-388.5 -147.5zM722 1522 l-243 -318h-148l208 318h183zM1028 1522l-248 -318h-148l211 318h185z"/>
<glyph glyph-name="OE" horiz-adv-x="1915" unicode="Œ" d="M1023 225v985q-144 39 -241 39q-199 0 -322.5 -150t-123.5 -384q0 -233 121.5 -382t318.5 -149q105 0 247 41zM1832 0h-735q-17 0 -141 -14q-100 -10 -186 -10q-316 0 -500.5 201t-184.5 523q0 346 192 552t522 206q92 0 182 -10q114 -14 116 -14h703v-202h-535v-408h496 v-202h-496v-421h567v-201z"/>
<glyph glyph-name="oe" horiz-adv-x="1897" unicode="œ" d="M617 863q-136 0 -215.5 -96t-79.5 -265q0 -158 79.5 -249.5t213.5 -91.5q136 0 210.5 90.5t74.5 256.5q0 171 -74 263t-209 92zM1605 612q-2 125 -59.5 194.5t-157.5 69.5q-102 0 -172.5 -75t-84.5 -189h474zM1830 448h-700q3 -142 85.5 -219t225.5 -77q169 0 308 98 v-187q-134 -87 -353 -87q-272 0 -385 214h-4q-130 -213 -413 -213q-234 0 -371.5 142.5t-137.5 378.5q0 258 145 404t390 146q287 0 393 -208h4q122 208 394 208q198 0 308.5 -136.5t110.5 -371.5v-92z"/>
<glyph glyph-name="Racute" horiz-adv-x="1275" unicode="Ŕ" d="M414 1241v-466h198q55 0 101.5 17t80.5 49t53 78t19 103q0 103 -65 161t-187 58h-200zM1285 0h-278l-229 384q-31 53 -60.5 90.5t-60 61.5t-66.5 35t-81 11h-96v-582h-237v1434h472q101 0 186 -24t148 -72.5t98.5 -121t35.5 -169.5q0 -76 -22.5 -139.5t-64 -113 t-100 -84.5t-131.5 -54v-4q39 -22 68 -48.5t55 -54.5t51.5 -63.5t56.5 -82.5zM933 1908l-286 -328h-172l242 328h216z"/>
<glyph glyph-name="racute" horiz-adv-x="758" unicode="ŕ" d="M745 803q-42 33 -121 33q-103 0 -172 -93t-69 -253v-490h-232v1024h232v-211h4q34 108 104.5 168.5t157.5 60.5q63 0 96 -19v-220zM737 1546l-286 -328h-172l242 328h216z"/>
<glyph glyph-name="Rcommaaccent" horiz-adv-x="1275" unicode="Ŗ" d="M414 1241v-466h198q55 0 101.5 17t80.5 49t53 78t19 103q0 103 -65 161t-187 58h-200zM1285 0h-278l-229 384q-31 53 -60.5 90.5t-60 61.5t-66.5 35t-81 11h-96v-582h-237v1434h472q101 0 186 -24t148 -72.5t98.5 -121t35.5 -169.5q0 -76 -22.5 -139.5t-64 -113 t-100 -84.5t-131.5 -54v-4q39 -22 68 -48.5t55 -54.5t51.5 -63.5t56.5 -82.5zM801 -118l-167 -302h-155l105 302h217z"/>
<glyph glyph-name="rcommaaccent" horiz-adv-x="758" unicode="ŗ" d="M745 803q-42 33 -121 33q-103 0 -172 -93t-69 -253v-490h-232v1024h232v-211h4q34 108 104.5 168.5t157.5 60.5q63 0 96 -19v-220zM562 -118l-167 -302h-155l105 302h217z"/>
<glyph glyph-name="Rcaron" horiz-adv-x="1275" unicode="Ř" d="M414 1241v-466h198q55 0 101.5 17t80.5 49t53 78t19 103q0 103 -65 161t-187 58h-200zM1285 0h-278l-229 384q-31 53 -60.5 90.5t-60 61.5t-66.5 35t-81 11h-96v-582h-237v1434h472q101 0 186 -24t148 -72.5t98.5 -121t35.5 -169.5q0 -76 -22.5 -139.5t-64 -113 t-100 -84.5t-131.5 -54v-4q39 -22 68 -48.5t55 -54.5t51.5 -63.5t56.5 -82.5zM938 1893l-224 -327h-185l-224 327h155l160 -210l161 210h157z"/>
<glyph glyph-name="rcaron" horiz-adv-x="758" unicode="ř" d="M745 803q-42 33 -121 33q-103 0 -172 -93t-69 -253v-490h-232v1024h232v-211h4q34 108 104.5 168.5t157.5 60.5q63 0 96 -19v-220zM746 1531l-224 -327h-185l-224 327h155l160 -210l161 210h157z"/>
<glyph glyph-name="Sacute" horiz-adv-x="1115" unicode="Ś" d="M111 57v245q33 -30 78.5 -54t96.5 -40.5t102 -25.5t94 -9q150 0 223.5 50t73.5 145q0 51 -24.5 88.5t-68.5 68.5t-103.5 59.5t-127.5 59.5q-73 39 -136 79t-109.5 88.5t-73 109.5t-26.5 143q0 101 45.5 175.5t120 123t169.5 72t194 23.5q225 0 328 -51v-235 q-122 88 -314 88q-53 0 -105.5 -10t-94 -33t-67.5 -59t-26 -87q0 -48 20 -83t58.5 -64t94 -56.5t128.5 -59.5q75 -39 141.5 -82t117 -95t80 -115.5t29.5 -144.5q0 -109 -44 -184t-118.5 -122t-171.5 -68t-205 -21q-36 0 -88.5 5.5t-107.5 16t-104 25.5t-79 34zM858 1908 l-286 -328h-172l242 328h216z"/>
<glyph glyph-name="sacute" horiz-adv-x="883" unicode="ś" d="M87 32v215q130 -99 287 -99q210 0 210 124q0 35 -18 59.5t-48.5 43.5t-72 34t-92.5 34q-63 25 -113.5 53t-84 63.5t-50.5 80.5t-17 105q0 74 35 130.5t94 95t134 58t155 19.5q142 0 254 -43v-203q-108 74 -248 74q-44 0 -79.5 -9t-60.5 -25t-39 -38.5t-14 -49.5 q0 -33 14 -56t41.5 -40.5t66 -32t88.5 -31.5q66 -27 118.5 -55t89.5 -63.5t57 -82t20 -110.5q0 -78 -36 -136t-96 -96t-138.5 -56.5t-165.5 -18.5q-168 0 -291 56zM761 1546l-286 -328h-172l242 328h216z"/>
<glyph glyph-name="Scircumflex" horiz-adv-x="1115" unicode="Ŝ" d="M111 57v245q33 -30 78.5 -54t96.5 -40.5t102 -25.5t94 -9q150 0 223.5 50t73.5 145q0 51 -24.5 88.5t-68.5 68.5t-103.5 59.5t-127.5 59.5q-73 39 -136 79t-109.5 88.5t-73 109.5t-26.5 143q0 101 45.5 175.5t120 123t169.5 72t194 23.5q225 0 328 -51v-235 q-122 88 -314 88q-53 0 -105.5 -10t-94 -33t-67.5 -59t-26 -87q0 -48 20 -83t58.5 -64t94 -56.5t128.5 -59.5q75 -39 141.5 -82t117 -95t80 -115.5t29.5 -144.5q0 -109 -44 -184t-118.5 -122t-171.5 -68t-205 -21q-36 0 -88.5 5.5t-107.5 16t-104 25.5t-79 34zM886 1566 h-160l-161 211l-157 -211h-155l224 328h184z"/>
<glyph glyph-name="scircumflex" horiz-adv-x="883" unicode="ŝ" d="M87 32v215q130 -99 287 -99q210 0 210 124q0 35 -18 59.5t-48.5 43.5t-72 34t-92.5 34q-63 25 -113.5 53t-84 63.5t-50.5 80.5t-17 105q0 74 35 130.5t94 95t134 58t155 19.5q142 0 254 -43v-203q-108 74 -248 74q-44 0 -79.5 -9t-60.5 -25t-39 -38.5t-14 -49.5 q0 -33 14 -56t41.5 -40.5t66 -32t88.5 -31.5q66 -27 118.5 -55t89.5 -63.5t57 -82t20 -110.5q0 -78 -36 -136t-96 -96t-138.5 -56.5t-165.5 -18.5q-168 0 -291 56zM762 1204h-160l-161 211l-157 -211h-155l224 328h184z"/>
<glyph glyph-name="Scedilla" horiz-adv-x="1115" unicode="Ş" d="M111 57v245q33 -30 78.5 -54t96.5 -40.5t102 -25.5t94 -9q150 0 223.5 50t73.5 145q0 51 -24.5 88.5t-68.5 68.5t-103.5 59.5t-127.5 59.5q-73 39 -136 79t-109.5 88.5t-73 109.5t-26.5 143q0 101 45.5 175.5t120 123t169.5 72t194 23.5q225 0 328 -51v-235 q-122 88 -314 88q-53 0 -105.5 -10t-94 -33t-67.5 -59t-26 -87q0 -48 20 -83t58.5 -64t94 -56.5t128.5 -59.5q75 -39 141.5 -82t117 -95t80 -115.5t29.5 -144.5q0 -109 -44 -184t-118.5 -122t-171.5 -68t-205 -21q-36 0 -88.5 5.5t-107.5 16t-104 25.5t-79 34zM790 -248 q0 -194 -288 -194q-47 0 -81 3v111q44 -6 71 -6q133 0 133 82q0 74 -121 74q-10 0 -39 -4v182h136v-94q87 0 138 -40.5t51 -113.5z"/>
<glyph glyph-name="scedilla" horiz-adv-x="883" unicode="ş" d="M87 32v215q130 -99 287 -99q210 0 210 124q0 35 -18 59.5t-48.5 43.5t-72 34t-92.5 34q-63 25 -113.5 53t-84 63.5t-50.5 80.5t-17 105q0 74 35 130.5t94 95t134 58t155 19.5q142 0 254 -43v-203q-108 74 -248 74q-44 0 -79.5 -9t-60.5 -25t-39 -38.5t-14 -49.5 q0 -33 14 -56t41.5 -40.5t66 -32t88.5 -31.5q66 -27 118.5 -55t89.5 -63.5t57 -82t20 -110.5q0 -78 -36 -136t-96 -96t-138.5 -56.5t-165.5 -18.5q-168 0 -291 56zM665 -248q0 -194 -288 -194q-47 0 -81 3v111q44 -6 71 -6q133 0 133 82q0 74 -121 74q-10 0 -39 -4v182h136 v-94q87 0 138 -40.5t51 -113.5z"/>
<glyph glyph-name="Scaron" horiz-adv-x="1115" unicode="Š" d="M111 57v245q33 -30 78.5 -54t96.5 -40.5t102 -25.5t94 -9q150 0 223.5 50t73.5 145q0 51 -24.5 88.5t-68.5 68.5t-103.5 59.5t-127.5 59.5q-73 39 -136 79t-109.5 88.5t-73 109.5t-26.5 143q0 101 45.5 175.5t120 123t169.5 72t194 23.5q225 0 328 -51v-235 q-122 88 -314 88q-53 0 -105.5 -10t-94 -33t-67.5 -59t-26 -87q0 -48 20 -83t58.5 -64t94 -56.5t128.5 -59.5q75 -39 141.5 -82t117 -95t80 -115.5t29.5 -144.5q0 -109 -44 -184t-118.5 -122t-171.5 -68t-205 -21q-36 0 -88.5 5.5t-107.5 16t-104 25.5t-79 34zM891 1881 l-224 -327h-185l-224 327h155l160 -210l161 210h157z"/>
<glyph glyph-name="scaron" horiz-adv-x="883" unicode="š" d="M87 32v215q130 -99 287 -99q210 0 210 124q0 35 -18 59.5t-48.5 43.5t-72 34t-92.5 34q-63 25 -113.5 53t-84 63.5t-50.5 80.5t-17 105q0 74 35 130.5t94 95t134 58t155 19.5q142 0 254 -43v-203q-108 74 -248 74q-44 0 -79.5 -9t-60.5 -25t-39 -38.5t-14 -49.5 q0 -33 14 -56t41.5 -40.5t66 -32t88.5 -31.5q66 -27 118.5 -55t89.5 -63.5t57 -82t20 -110.5q0 -78 -36 -136t-96 -96t-138.5 -56.5t-165.5 -18.5q-168 0 -291 56zM792 1531l-224 -327h-185l-224 327h155l160 -210l161 210h157z"/>
<glyph glyph-name="uni0162" horiz-adv-x="1130" unicode="Ţ" d="M1097 1232h-412v-1232h-238v1232h-411v202h1061v-202zM793 -248q0 -194 -288 -194q-47 0 -81 3v111q44 -6 71 -6q133 0 133 82q0 74 -121 74q-10 0 -39 -4v182h136v-94q87 0 138 -40.5t51 -113.5z"/>
<glyph glyph-name="uni0163" horiz-adv-x="740" unicode="ţ" d="M691 11q-68 -34 -179 -34q-298 0 -298 286v579h-171v182h171v237l232 66v-303h245v-182h-245v-512q0 -91 33 -130t110 -39q59 0 102 34v-184zM700 -248q0 -194 -288 -194q-47 0 -81 3v111q44 -6 71 -6q133 0 133 82q0 74 -121 74q-10 0 -39 -4v182h136v-94 q87 0 138 -40.5t51 -113.5z"/>
<glyph glyph-name="Tcaron" horiz-adv-x="1130" unicode="Ť" d="M1097 1232h-412v-1232h-238v1232h-411v202h1061v-202zM883 1893l-224 -327h-185l-224 327h155l160 -210l161 210h157z"/>
<glyph glyph-name="tcaron" horiz-adv-x="846" unicode="ť" d="M691 11q-68 -34 -179 -34q-298 0 -298 286v579h-171v182h171v237l232 66v-303h245v-182h-245v-512q0 -91 33 -130t110 -39q59 0 102 34v-184zM959 1434l-167 -302h-155l105 302h217z"/>
<glyph glyph-name="Tbar" horiz-adv-x="1130" unicode="Ŧ" d="M1097 1232h-412v-432h242v-205h-242v-595h-238v595h-244v205h244v432h-411v202h1061v-202z"/>
<glyph glyph-name="tbar" horiz-adv-x="740" unicode="ŧ" d="M680 499h-235v-169q0 -91 32 -130t108 -39q59 0 105 32v-183q-68 -33 -179 -33q-298 0 -298 286v236h-155v166h155v177h-171v182h171v234q0 2 113 36l119 36v-306h245v-182h-245v-177h235v-166z"/>
<glyph glyph-name="Utilde" horiz-adv-x="1440" unicode="Ũ" d="M1280 580q0 -604 -572 -604q-548 0 -548 581v877h238v-828q0 -422 328 -422q316 0 316 407v843h238v-854zM1059 1815q0 -116 -51.5 -189.5t-139.5 -73.5q-72 0 -165 48q-78 45 -121 45q-84 0 -84 -111h-115q0 119 51 190.5t143 71.5q68 0 157 -51q72 -44 125 -44 q81 0 81 114h119z"/>
<glyph glyph-name="utilde" horiz-adv-x="1195" unicode="ũ" d="M1044 0h-232v162h-4q-101 -186 -314 -186q-363 0 -363 436v612h232v-588q0 -276 213 -276q103 0 169.5 76t66.5 199v589h232v-1024zM929 1475q0 -116 -51.5 -189.5t-139.5 -73.5q-72 0 -165 48q-78 45 -121 45q-84 0 -84 -111h-115q0 119 51 190.5t143 71.5q68 0 157 -51 q72 -44 125 -44q81 0 81 114h119z"/>
<glyph glyph-name="Umacron" horiz-adv-x="1440" unicode="Ū" d="M1280 580q0 -604 -572 -604q-548 0 -548 581v877h238v-828q0 -422 328 -422q316 0 316 407v843h238v-854zM989 1566h-543v137h543v-137z"/>
<glyph glyph-name="umacron" horiz-adv-x="1195" unicode="ū" d="M1044 0h-232v162h-4q-101 -186 -314 -186q-363 0 -363 436v612h232v-588q0 -276 213 -276q103 0 169.5 76t66.5 199v589h232v-1024zM860 1204h-543v137h543v-137z"/>
<glyph glyph-name="Ubreve" horiz-adv-x="1440" unicode="Ŭ" d="M1280 580q0 -604 -572 -604q-548 0 -548 581v877h238v-828q0 -422 328 -422q316 0 316 407v843h238v-854zM1020 1842q-11 -124 -97.5 -200t-209.5 -76q-130 0 -211.5 75.5t-87.5 200.5h136q12 -146 166 -146q65 0 111 39.5t56 106.5h137z"/>
<glyph glyph-name="ubreve" horiz-adv-x="1195" unicode="ŭ" d="M1044 0h-232v162h-4q-101 -186 -314 -186q-363 0 -363 436v612h232v-588q0 -276 213 -276q103 0 169.5 76t66.5 199v589h232v-1024zM891 1480q-11 -124 -97.5 -200t-209.5 -76q-130 0 -211.5 75.5t-87.5 200.5h136q12 -146 166 -146q65 0 111 39.5t56 106.5h137z"/>
<glyph glyph-name="Uring" horiz-adv-x="1440" unicode="Ů" d="M1280 580q0 -604 -572 -604q-548 0 -548 581v877h238v-828q0 -422 328 -422q316 0 316 407v843h238v-854zM705 1876q-45 0 -74.5 -30t-29.5 -74q0 -104 104 -104q48 0 79.5 29.5t31.5 74.5t-31.5 74.5t-79.5 29.5zM705 1566q-94 0 -155.5 54t-61.5 142q0 98 63 156 t161 58q96 0 157.5 -58.5t61.5 -149.5q0 -87 -65.5 -144.5t-160.5 -57.5z"/>
<glyph glyph-name="uring" horiz-adv-x="1195" unicode="ů" d="M1044 0h-232v162h-4q-101 -186 -314 -186q-363 0 -363 436v612h232v-588q0 -276 213 -276q103 0 169.5 76t66.5 199v589h232v-1024zM586 1490q-45 0 -74.5 -30t-29.5 -74q0 -104 104 -104q48 0 79.5 29.5t31.5 74.5t-31.5 74.5t-79.5 29.5zM586 1180q-94 0 -155.5 54 t-61.5 142q0 98 63 156t161 58q96 0 157.5 -58.5t61.5 -149.5q0 -87 -65.5 -144.5t-160.5 -57.5z"/>
<glyph glyph-name="Uhungarumlaut" horiz-adv-x="1440" unicode="Ű" d="M1280 580q0 -604 -572 -604q-548 0 -548 581v877h238v-828q0 -422 328 -422q316 0 316 407v843h238v-854zM854 1884l-243 -318h-148l208 318h183zM1160 1884l-248 -318h-148l211 318h185z"/>
<glyph glyph-name="uhungarumlaut" horiz-adv-x="1195" unicode="ű" d="M1044 0h-232v162h-4q-101 -186 -314 -186q-363 0 -363 436v612h232v-588q0 -276 213 -276q103 0 169.5 76t66.5 199v589h232v-1024zM706 1522l-243 -318h-148l208 318h183zM1012 1522l-248 -318h-148l211 318h185z"/>
<glyph glyph-name="Uogonek" horiz-adv-x="1440" unicode="Ų" d="M1280 580q0 -604 -572 -604q-548 0 -548 581v877h238v-828q0 -422 328 -422q316 0 316 407v843h238v-854zM895 0q-151 -137 -151 -216q0 -68 65 -68q36 0 68 13v-121q-38 -16 -105 -16q-78 0 -125.5 42t-47.5 116q0 122 161 250h135z"/>
<glyph glyph-name="uogonek" horiz-adv-x="1195" unicode="ų" d="M1044 0h-232v162h-4q-101 -186 -314 -186q-363 0 -363 436v612h232v-588q0 -276 213 -276q103 0 169.5 76t66.5 199v589h232v-1024zM949 0q-151 -137 -151 -216q0 -68 65 -68q36 0 68 13v-121q-38 -16 -105 -16q-78 0 -125.5 42t-47.5 116q0 122 161 250h135z"/>
<glyph glyph-name="Wcircumflex" horiz-adv-x="1978" unicode="Ŵ" d="M1956 1434l-393 -1434h-269l-273 1003q-17 64 -21 140h-4q-5 -71 -24 -138l-274 -1005h-275l-401 1434h261l260 -1050q16 -66 20 -138h5q4 51 28 138l294 1050h245l272 -1058q14 -54 21 -128h4q3 50 23 132l255 1054h246zM1317 1566h-160l-161 211l-157 -211h-155 l224 328h184z"/>
<glyph glyph-name="wcircumflex" horiz-adv-x="1549" unicode="ŵ" d="M1528 1024l-302 -1024h-243l-186 694q-11 40 -14 90h-4q-2 -34 -18 -88l-202 -696h-238l-301 1024h240l186 -738q9 -33 12 -88h7q3 42 16 90l207 736h218l184 -741q9 -35 13 -88h7q2 37 15 88l182 741h221zM1100 1204h-160l-161 211l-157 -211h-155l224 328h184z"/>
<glyph glyph-name="Ycircumflex" horiz-adv-x="1182" unicode="Ŷ" d="M1176 1434l-470 -913v-521h-238v516l-458 918h271l282 -615q5 -11 30 -83h3q9 32 33 83l295 615h252zM910 1566h-160l-161 211l-157 -211h-155l224 328h184z"/>
<glyph glyph-name="ycircumflex" horiz-adv-x="1041" unicode="ŷ" d="M1038 1024l-462 -1188q-144 -318 -404 -318q-73 0 -122 13v193q55 -18 100 -18q130 0 194 128l69 168l-407 1022h257l244 -744q4 -14 18 -74h5q5 23 18 72l256 746h234zM847 1204h-160l-161 211l-157 -211h-155l224 328h184z"/>
<glyph glyph-name="Ydieresis" horiz-adv-x="1182" unicode="Ÿ" d="M1176 1434l-470 -913v-521h-238v516l-458 918h271l282 -615q5 -11 30 -83h3q9 32 33 83l295 615h252zM386 1565q-52 0 -89 34.5t-37 82.5q0 49 35.5 82t86.5 33t88.5 -33.5t37.5 -81.5q0 -49 -36 -83t-86 -34zM802 1565q-50 0 -86.5 33t-36.5 84q0 49 35 82t85 33 q53 0 89.5 -33.5t36.5 -81.5q0 -49 -35 -83t-88 -34z"/>
<glyph glyph-name="Zacute" horiz-adv-x="1202" unicode="Ź" d="M1155 1330l-786 -1129h776v-201h-1109v109l789 1123h-728v202h1058v-104zM940 1909l-286 -328h-172l242 328h216z"/>
<glyph glyph-name="zacute" horiz-adv-x="951" unicode="ź" d="M907 927l-553 -746h551v-181h-876v87l565 756h-511v181h824v-97zM815 1546l-286 -328h-172l242 328h216z"/>
<glyph glyph-name="Zdotaccent" horiz-adv-x="1202" unicode="Ż" d="M1155 1330l-786 -1129h776v-201h-1109v109l789 1123h-728v202h1058v-104zM614 1565q-50 0 -86.5 33.5t-36.5 82.5q0 48 36 81t87 33t87 -32.5t36 -81.5q0 -48 -36 -82t-87 -34z"/>
<glyph glyph-name="zdotaccent" horiz-adv-x="951" unicode="ż" d="M907 927l-553 -746h551v-181h-876v87l565 756h-511v181h824v-97zM496 1203q-50 0 -86.5 33.5t-36.5 82.5q0 48 36 81t87 33t87 -32.5t36 -81.5q0 -48 -36 -82t-87 -34z"/>
<glyph glyph-name="Zcaron" horiz-adv-x="1202" unicode="Ž" d="M1155 1330l-786 -1129h776v-201h-1109v109l789 1123h-728v202h1058v-104zM940 1878l-224 -327h-185l-224 327h155l160 -210l161 210h157z"/>
<glyph glyph-name="zcaron" horiz-adv-x="951" unicode="ž" d="M907 927l-553 -746h551v-181h-876v87l565 756h-511v181h824v-97zM822 1531l-224 -327h-185l-224 327h155l160 -210l161 210h157z"/>
<glyph glyph-name="longs" horiz-adv-x="548" unicode="ſ" d="M658 1328q-54 26 -112 26q-162 0 -162 -194v-1160h-233v1172q0 168 103 267q103 100 267 100q82 0 137 -19v-192z"/>
<glyph glyph-name="uni0180" horiz-adv-x="1234" unicode="ƀ" d="M380 556v-126q0 -113 71 -191.5t181 -78.5q129 0 203.5 100t74.5 276q0 153 -69 240t-188 87q-123 0 -198 -87.5t-75 -219.5zM386 134h-4v-134h-231v1189h-141v169h141v158h231v-158h241v-169h-241v-334h4q116 191 339 191q197 0 310 -136t113 -369q0 -257 -122 -410.5 t-336 -153.5q-197 0 -304 157z"/>
<glyph glyph-name="uni0181" horiz-adv-x="1421" unicode="Ɓ" d="M598 644v-454h204q132 0 205 62t73 170q0 222 -296 222h-186zM598 1243v-408h158q121 0 190 58t69 164q0 186 -245 186h-172zM360 0v1243h-26q-89 0 -137.5 -48.5t-48.5 -129.5q0 -62 21 -120h-215q-21 56 -21 122q0 158 113 262.5t300 104.5h461q211 0 335 -92t124 -240 q0 -120 -69.5 -208t-192.5 -125v-4q148 -17 237 -108.5t89 -237.5q0 -187 -139.5 -303t-352.5 -116h-478z"/>
<glyph glyph-name="uni0182" horiz-adv-x="1236" unicode="Ƃ" d="M415 650v-460h215q131 0 202 62t71 173q0 225 -277 225h-211zM177 0v1434h836v-204h-598v-391h278q218 0 339.5 -104t121.5 -295q0 -204 -130.5 -322t-355.5 -118h-491z"/>
<glyph glyph-name="uni0183" horiz-adv-x="1234" unicode="ƃ" d="M380 549v-120q0 -112 70.5 -190.5t181.5 -78.5q128 0 203 100.5t75 275.5q0 150 -69 238.5t-188 88.5q-121 0 -197 -89.5t-76 -224.5zM386 134h-4v-134h-231v1516h856v-170h-625v-491h4q118 193 345 193q195 0 306 -137t111 -370q0 -256 -124 -410.5t-340 -154.5 q-193 0 -298 158z"/>
<glyph glyph-name="uni0184" horiz-adv-x="1242" unicode="Ƅ" d="M415 651v-462h215q131 0 201.5 62.5t70.5 173.5q0 226 -267 226h-220zM177 0v1085l-167 146v25l381 202h24v-620h275q220 0 342 -103t122 -295q0 -204 -130.5 -322t-355.5 -118h-491z"/>
<glyph glyph-name="uni0185" horiz-adv-x="1234" unicode="ƅ" d="M380 556v-126q0 -113 71 -191.5t181 -78.5q129 0 203.5 100t74.5 276q0 153 -69 240t-188 87q-123 0 -198 -87.5t-75 -219.5zM386 134h-4v-134h-231v1146l-165 141v28l372 200h24v-660h4q119 190 347 190q194 0 304.5 -136t110.5 -368q0 -255 -124.5 -409t-341.5 -154 q-192 0 -296 156z"/>
<glyph glyph-name="uni0186" horiz-adv-x="1274" unicode="Ɔ" d="M98 32v238q151 -86 334 -86q226 0 367 149t141 396q0 239 -132.5 379.5t-348.5 140.5q-209 0 -361 -94v223q162 80 404 80q311 0 499 -196.5t188 -515.5q0 -345 -209.5 -557.5t-535.5 -212.5q-209 0 -346 56z"/>
<glyph glyph-name="uni0187" horiz-adv-x="1274" unicode="Ƈ" d="M1386 1453q-48 23 -89 23q-127 0 -127 -167q0 -59 14 -145l-9 -6q-167 91 -353 91q-216 0 -351.5 -149t-135.5 -396q0 -238 132.5 -379t347.5 -141q209 0 362 94v-222q-162 -80 -403 -80q-313 0 -501 196.5t-188 515.5q0 344 208.5 557t530.5 213q87 0 176 -24 q3 93 79 160.5t194 67.5q57 0 113 -20v-189z"/>
<glyph glyph-name="uni0188" horiz-adv-x="968" unicode="ƈ" d="M1083 1049q-40 21 -77 21q-119 0 -119 -155q0 -78 9 -121l-8 -5q-136 74 -251 74q-140 0 -227.5 -98t-87.5 -261q0 -160 86.5 -252t232.5 -92q129 0 243 82v-200q-123 -66 -293 -66q-229 0 -367.5 142.5t-138.5 370.5q0 240 148 399.5t384 159.5q65 0 122 -15 q2 87 70.5 147.5t171.5 60.5q47 0 102 -19v-173z"/>
<glyph glyph-name="uni0189" horiz-adv-x="1469" unicode="Ɖ" d="M414 1232v-411h307v-205h-307v-415h190q251 0 390.5 138t139.5 392q0 501 -521 501h-199zM177 0v616h-162v205h162v613h414q793 0 793 -699q0 -334 -220 -534.5t-590 -200.5h-397z"/>
<glyph glyph-name="uni018A" horiz-adv-x="1653" unicode="Ɗ" d="M598 1232v-1031h190q251 0 390 138t139 392q0 501 -520 501h-199zM360 0v1232h-26q-89 0 -137.5 -47t-48.5 -125q0 -60 21 -115h-215q-23 62 -23 134q0 153 113.5 254t301.5 101h418q803 0 803 -699q0 -332 -209 -533.5t-561 -201.5h-437z"/>
<glyph glyph-name="uni018B" horiz-adv-x="1236" unicode="Ƌ" d="M820 187v463h-212q-275 0 -275 -237q0 -226 268 -226h219zM1058 0h-502q-230 0 -352 103t-122 297q0 200 135.5 319t364.5 119h238v391h-599v205h837v-1434z"/>
<glyph glyph-name="uni018C" horiz-adv-x="1234" unicode="ƌ" d="M853 464v132q0 112 -72 189.5t-182 77.5q-129 0 -203 -97.5t-74 -269.5q0 -156 71.5 -246t192.5 -90q119 0 193 86.5t74 217.5zM1082 0h-231v159h-4q-109 -183 -336 -183q-194 0 -310 137.5t-116 374.5q0 254 127.5 407t340.5 153q202 0 294 -155h4v453h-625v170h856 v-1516z"/>
<glyph glyph-name="uni018D" horiz-adv-x="1230" unicode="ƍ" d="M623 200q163 96 223.5 183.5t60.5 187.5q0 134 -79.5 213t-212.5 79q-132 0 -212.5 -79.5t-80.5 -212.5q0 -95 57 -177.5t244 -193.5zM796 96q108 -81 146 -142t38 -139q0 -126 -115.5 -211t-298.5 -85q-184 0 -337 79v223q153 -112 328 -112q188 0 188 112 q0 46 -43 87.5t-238 147.5q-205 122 -292 241t-87 260q0 212 151 351.5t388 139.5q231 0 375.5 -134t144.5 -336q0 -273 -348 -482z"/>
<glyph glyph-name="uni018E" horiz-adv-x="1061" unicode="Ǝ" d="M884 0h-805v201h567v414h-496v202h496v415h-534v202h772v-1434z"/>
<glyph glyph-name="uni018F" horiz-adv-x="1512" unicode="Ə" d="M1172 620h-834q4 -202 110.5 -322.5t289.5 -120.5q185 0 300.5 120t133.5 323zM82 819h1090q-16 202 -148.5 319t-337.5 117q-235 0 -405 -121v219q178 105 432 105q333 0 523.5 -195t190.5 -538q0 -325 -190 -537t-505 -212q-312 0 -481 214t-169 629z"/>
<glyph glyph-name="uni0190" horiz-adv-x="1124" unicode="Ɛ" d="M1038 48q-167 -72 -376 -72q-263 0 -414.5 112.5t-151.5 299.5q0 130 81 226.5t225 133.5v6q-256 78 -256 311q0 170 148 281.5t383 111.5q182 0 330 -66v-221q-151 78 -324 78q-131 0 -210 -54t-79 -145q0 -92 96 -152.5t258 -60.5h99v-204h-102q-398 0 -398 -227 q0 -104 89 -163t242 -59q196 0 360 84v-220z"/>
<glyph glyph-name="uni0191" horiz-adv-x="1030" unicode="Ƒ" d="M950 1232h-536v-432h495v-201h-495v-546q0 -436 -382 -436q-75 0 -138 23v214q51 -29 114 -29q169 0 169 229v1380h773v-202z"/>
<glyph glyph-name="florin" horiz-adv-x="1137" unicode="ƒ" d="M993 1225q-53 28 -119 28q-138 0 -160 -150l-27 -176h162v-172h-189l-97 -635q-62 -410 -373 -410q-35 0 -103 18v188q34 -21 82 -21q144 0 181 270l88 590h-104v172h133l20 148q20 165 119 264.5t252 99.5q74 0 135 -24v-190z"/>
<glyph glyph-name="uni0193" horiz-adv-x="1435" unicode="Ɠ" d="M1458 1453q-46 23 -87 23q-130 0 -130 -167q0 -72 15 -155l-8 -6q-191 105 -402 105q-225 0 -367.5 -150.5t-142.5 -392.5q0 -247 129.5 -388t350.5 -141q140 0 243 57v341h-302v200h541v-682q-224 -121 -500 -121q-319 0 -516 197.5t-197 522.5q0 334 217 548t550 214 q111 0 220 -30q3 96 79.5 165t194.5 69q56 0 112 -20v-189z"/>
<glyph glyph-name="uni0194" horiz-adv-x="1315" unicode="Ɣ" d="M653 5q-69 -135 -69 -199q0 -93 69 -93q70 0 70 93q0 64 -70 199zM1301 1434l-490 -1250l7 -13q135 -250 135 -370q0 -119 -77.5 -201t-227.5 -82q-125 0 -209.5 80t-84.5 203q0 66 24 130t113 232l9 17l-486 1254h264l334 -927q31 -81 42 -157h6q18 77 45 152l341 932 h255z"/>
<glyph glyph-name="uni0195" horiz-adv-x="1845" unicode="ƕ" d="M383 0h-232v1516h232v-650h4q102 177 313 177q336 0 336 -413v-161q0 -302 220 -302q112 0 179 84.5t67 226.5q0 280 -138 546h245q124 -266 124 -540q0 -229 -135 -368.5t-350 -139.5q-444 0 -444 472v137q0 147 -45 212.5t-152 65.5q-98 0 -161 -77.5t-63 -201.5v-584z "/>
<glyph glyph-name="uni0196" horiz-adv-x="672" unicode="Ɩ" d="M631 8q-81 -29 -161 -29q-295 0 -295 350v1105h238v-1110q0 -137 120 -137q51 0 98 25v-204z"/>
<glyph glyph-name="uni0197" horiz-adv-x="643" unicode="Ɨ" d="M602 622h-162v-622h-238v622h-161v209h161v603h238v-603h162v-209z"/>
<glyph glyph-name="uni0198" horiz-adv-x="1251" unicode="Ƙ" d="M1262 0h-312l-497 649q-28 36 -34 49h-5v-698h-237v1434h237v-671h5l308 418q137 187 209 232t162 45q62 0 123 -26v-214q-50 30 -105 30q-71 0 -175 -140l-281 -366z"/>
<glyph glyph-name="uni0199" horiz-adv-x="1076" unicode="ƙ" d="M1080 0h-294l-399 499h-4v-499h-232v1172q0 167 97 266.5t248 99.5q85 0 141 -20v-192q-55 27 -108 27q-146 0 -146 -186v-614h4l374 471h287l-427 -489z"/>
<glyph glyph-name="uni019A" horiz-adv-x="573" unicode="ƚ" d="M552 699h-149v-699h-233v699h-150v169h150v648h233v-648h149v-169z"/>
<glyph glyph-name="uni019B" horiz-adv-x="1067" unicode="ƛ" d="M1040 0h-245l-244 774l-299 -774h-251l456 1011l-17 45l-249 -122l-65 128l267 128q-50 124 -146 124q-66 0 -130 -27v206q74 20 160 20q114 0 184 -50.5t129 -177.5l222 108l63 -127l-233 -113z"/>
<glyph glyph-name="uni019C" horiz-adv-x="1901" unicode="Ɯ" d="M1723 0h-236v173h-4q-111 -197 -328 -197q-221 0 -295 215q-115 -215 -346 -215q-341 0 -341 462v996h237v-939q0 -157 44.5 -231.5t153.5 -74.5q92 0 156.5 86.5t64.5 207.5v951h238v-972q0 -270 189 -270q99 0 163.5 82t64.5 212v948h239v-1434z"/>
<glyph glyph-name="uni019D" horiz-adv-x="1571" unicode="Ɲ" d="M1394 0h-261l-687 1054q-26 40 -43 83h-6q9 -42 9 -181v-901q0 -435 -374 -435q-75 0 -138 23v213q51 -28 114 -28q169 0 169 258v1348h276l662 -1030q41 -64 53 -88h4q-9 57 -9 193v925h231v-1434z"/>
<glyph glyph-name="uni019E" horiz-adv-x="1204" unicode="ƞ" d="M1063 -434h-234v1004q0 287 -205 287q-106 0 -173.5 -84.5t-67.5 -211.5v-561h-232v669q0 257 -20 355h235q17 -69 17 -169h2q110 193 335 193q166 0 254.5 -107.5t88.5 -311.5v-1063z"/>
<glyph glyph-name="uni019F" horiz-adv-x="1548" unicode="Ɵ" d="M1208 617h-866q18 -199 134.5 -316t293.5 -117q190 0 306 113.5t132 319.5zM1207 812q-16 209 -128 323t-299 114q-181 0 -300 -119t-138 -318h865zM766 -24q-309 0 -495 200.5t-186 522.5q0 346 189.5 552.5t515.5 206.5q303 0 488 -201t185 -526q0 -349 -189.5 -552 t-507.5 -203z"/>
<glyph glyph-name="Ohorn" horiz-adv-x="1575" unicode="Ơ" d="M778 1249q-198 0 -321 -147.5t-123 -386.5t120 -385t312 -146q208 0 327.5 139t119.5 389q0 257 -116 397t-319 140zM1161 1356q48 -10 80 -10q204 0 204 131q0 67 -20 121h161q21 -54 21 -134q0 -110 -70 -178.5t-192 -68.5h-34q152 -192 152 -482q0 -351 -189.5 -555 t-507.5 -204q-309 0 -495 201t-186 523q0 346 189.5 552t515.5 206q213 0 371 -102z"/>
<glyph glyph-name="ohorn" horiz-adv-x="1253" unicode="ơ" d="M616 863q-135 0 -214 -95t-79 -262q0 -161 80 -253.5t214 -92.5q137 0 210.5 91t73.5 259q0 169 -73.5 261t-211.5 92zM1047 1276h160q21 -55 21 -134q0 -198 -223 -239q133 -139 133 -387q0 -245 -144.5 -392.5t-387.5 -147.5q-237 0 -379 143.5t-142 380.5 q0 258 146 403t394 145q45 0 126 -14q57 -10 160 -10q66 0 110.5 38t44.5 92q0 68 -19 122z"/>
<glyph glyph-name="uni01A2" horiz-adv-x="2065" unicode="Ƣ" d="M1050 229v995q-170 25 -249 25q-206 0 -335.5 -148t-129.5 -388q0 -241 126.5 -386.5t333.5 -145.5q135 0 254 48zM1888 0h-238v1200q-112 -18 -236 -18q-52 0 -127 9v-1094q-260 -121 -503 -121q-318 0 -508.5 199.5t-190.5 523.5q0 332 200.5 545.5t522.5 213.5 q120 0 325 -36q204 -37 320 -37q233 0 435 73v-1458z"/>
<glyph glyph-name="uni01A3" horiz-adv-x="1675" unicode="ƣ" d="M776 185v660q-97 18 -151 18q-137 0 -221.5 -94.5t-84.5 -260.5q0 -163 84.5 -255.5t228.5 -92.5q86 0 144 25zM1524 0h-229v813q-80 -16 -153 -16q-71 0 -140 9v-748q-189 -82 -388 -82q-241 0 -385 142t-144 385q0 250 152.5 397.5t396.5 147.5q92 0 258 -33t258 -33 q189 0 374 66v-1048z"/>
<glyph glyph-name="uni01A4" horiz-adv-x="1382" unicode="Ƥ" d="M598 1238v-524h154q313 0 313 269q0 255 -294 255h-173zM598 520v-520h-238v1238h-26q-89 0 -137.5 -48.5t-48.5 -129.5q0 -60 20 -115h-214q-23 62 -23 134q0 153 113.5 254t301.5 101h410q266 0 412 -116t146 -326q0 -206 -142.5 -339t-383.5 -133h-190z"/>
<glyph glyph-name="uni01A5" horiz-adv-x="1234" unicode="ƥ" d="M381 551v-116q0 -114 71 -194.5t181 -80.5q130 0 203.5 100.5t73.5 280.5q0 151 -69 236.5t-187 85.5q-121 0 -197 -88.5t-76 -223.5zM387 134h-4v-605h-232v1643q0 166 94.5 266t243.5 100q89 0 148 -20v-192q-55 27 -108 27q-146 0 -146 -186v-312h4q114 193 343 193 q196 0 307 -137t111 -370q0 -257 -124.5 -411t-340.5 -154q-194 0 -296 158z"/>
<glyph glyph-name="uni01A6" horiz-adv-x="1235" unicode="Ʀ" d="M414 1068v-434h182q123 0 195.5 57t72.5 160q0 217 -251 217h-199zM1192 -171h-277l-179 413q-81 200 -222 200h-100v-442h-237v1434h237v-172h225q224 0 350 -103.5t126 -280.5q0 -289 -321 -366v-4q100 -58 181 -215z"/>
<glyph glyph-name="uni01A7" horiz-adv-x="1115" unicode="Ƨ" d="M1004 57q-30 -19 -79 -34t-104.5 -25.5t-108 -16t-89.5 -5.5q-106 0 -203 21.5t-171.5 69.5t-118 125.5t-43.5 188.5q0 82 30.5 144.5t82 114.5t120 94.5t144.5 81.5q71 33 124.5 60t91 56t57 65t19.5 84q0 49 -24.5 83t-63.5 55.5t-88 31t-100 9.5q-203 0 -332 -88v235 q105 51 331 51q98 0 193 -24t169 -73.5t119.5 -125.5t45.5 -179q0 -81 -26.5 -140.5t-73.5 -107t-110 -87t-136 -77.5q-69 -32 -128.5 -61t-103 -61t-68 -70.5t-24.5 -90.5q0 -91 69.5 -139.5t209.5 -48.5q45 0 99 9t107 26t101 42t82 55v-248z"/>
<glyph glyph-name="uni01A8" horiz-adv-x="883" unicode="ƨ" d="M796 32q-123 -56 -291 -56q-85 0 -164 19t-139.5 58.5t-96.5 98.5t-36 140q0 62 20 107t57 79.5t90.5 62t118.5 53.5q49 17 88 32t66 33t41 41t14 58q0 26 -13 48t-36.5 37.5t-56.5 24t-74 8.5q-148 0 -261 -72v201q113 43 255 43q80 0 155 -20t133.5 -59t93.5 -97 t35 -133q0 -59 -16.5 -103t-49.5 -79t-82.5 -62.5t-114.5 -54.5q-49 -17 -91.5 -32t-74 -34t-50 -44t-18.5 -61q0 -121 200 -121q164 0 298 96v-212z"/>
<glyph glyph-name="uni01A9" horiz-adv-x="1106" unicode="Ʃ" d="M1061 0h-1017v120l464 613l-429 568v133h920v-205h-581l368 -487l-404 -544h679v-198z"/>
<glyph glyph-name="uni01AA" horiz-adv-x="754" unicode="ƪ" d="M306 1177v13q0 166 -119 166q-44 0 -73.5 -30t-29.5 -73t32.5 -72.5t83.5 -29.5q56 0 106 26zM776 -447q-68 -35 -177 -35q-293 0 -293 326v1149q-67 -30 -145 -30q-120 0 -202.5 80t-82.5 202q0 123 90 208.5t225 85.5q162 0 254 -102.5t92 -281.5v-1269 q0 -182 137 -182q56 0 102 31v-182z"/>
<glyph glyph-name="uni01AB" horiz-adv-x="741" unicode="ƫ" d="M690 -52q0 -152 -87.5 -241.5t-231.5 -89.5q-71 0 -132 27v182q56 -32 121 -32q137 0 137 145v37q-284 0 -284 362v504h-171v182h171v236q108 32 231 70v-306h246v-182h-246v-505q0 -95 32 -136t109 -41q59 0 105 32v-244z"/>
<glyph glyph-name="uni01AC" horiz-adv-x="1178" unicode="Ƭ" d="M1143 1232h-412v-1232h-238v1232h-142q-83 0 -129.5 -45.5t-46.5 -123.5q0 -56 19 -107h-209q-22 58 -22 126q0 153 112.5 252.5t299.5 99.5h768v-202z"/>
<glyph glyph-name="uni01AD" horiz-adv-x="741" unicode="ƭ" d="M691 6q-68 -29 -179 -29q-298 0 -298 321v544h-172v182h172v192q0 148 84 235.5t228 87.5q88 0 165 -31v-187q-57 33 -117 33q-129 0 -129 -184v-146h246v-182h-246v-504q0 -95 32 -136t109 -41q59 0 105 32v-187z"/>
<glyph glyph-name="uni01AE" horiz-adv-x="1132" unicode="Ʈ" d="M1097 1232h-412v-1177q0 -230 165 -230q69 0 120 23v-202q-66 -30 -155 -30q-368 0 -368 429v1187h-412v202h1062v-202z"/>
<glyph glyph-name="Uhorn" horiz-adv-x="1519" unicode="Ư" d="M1280 598q0 -622 -574 -622q-547 0 -547 603v855h238v-851q0 -399 327 -399q318 0 318 385v865h216q60 0 100 35.5t40 84.5q0 74 -19 132h161q18 -56 18 -136q0 -218 -278 -250v-702z"/>
<glyph glyph-name="uhorn" horiz-adv-x="1278" unicode="ư" d="M1044 0h-232v159h-4q-100 -181 -318 -181q-359 0 -359 435v611h232v-588q0 -276 214 -276q103 0 169 76t66 199v589h197q56 0 94 39t38 94q0 66 -20 119h157q18 -53 18 -128q0 -212 -252 -250v-898z"/>
<glyph glyph-name="uni01B1" horiz-adv-x="1555" unicode="Ʊ" d="M438 1235h-348v199h556v-199q-307 -235 -307 -584q0 -219 120.5 -344t313.5 -125q196 0 319 127t123 347q0 344 -307 579v199h555v-199h-343q348 -227 348 -612q0 -298 -185.5 -472.5t-504.5 -174.5q-312 0 -500 173t-188 476q0 385 348 610z"/>
<glyph glyph-name="uni01B2" horiz-adv-x="1523" unicode="Ʋ" d="M175 1434h238v-836q0 -414 319 -414q201 0 330 181t129 446q0 442 -254 442q-79 0 -149 -31v207q86 29 184 29q211 0 336.5 -172.5t125.5 -462.5q0 -354 -202 -600.5t-511 -246.5q-546 0 -546 598v860z"/>
<glyph glyph-name="uni01B3" horiz-adv-x="1212" unicode="Ƴ" d="M1204 1434l-471 -913v-521h-238v516l-294 599q-70 134 -162 134q-56 0 -102 -28v212q67 25 132 25q114 0 192.5 -52.5t147.5 -194.5l182 -391l32 -84h2q10 35 34 83l293 615h252z"/>
<glyph glyph-name="uni01B4" horiz-adv-x="1131" unicode="ƴ" d="M1178 837q-51 25 -103 25q-97 0 -160 -161l-336 -864q-144 -316 -408 -316q-75 0 -122 17v194q60 -27 115 -27q124 0 186 143l70 158l-415 1018h258l244 -745q9 -27 19 -74h5q5 26 19 77l184 514q111 252 324 252q55 0 120 -21v-190z"/>
<glyph glyph-name="uni01B5" horiz-adv-x="1202" unicode="Ƶ" d="M1155 1330l-348 -501h238v-201h-380l-296 -427h776v-201h-1109v109l363 519h-204v201h350l280 403h-729v202h1059v-104z"/>
<glyph glyph-name="uni01B6" horiz-adv-x="951" unicode="ƶ" d="M907 927l-240 -323h165v-165h-287l-191 -258h551v-181h-876l1 89l262 350h-143v165h266l179 238h-511v182h824v-97z"/>
<glyph glyph-name="uni01B7" horiz-adv-x="1304" unicode="Ʒ" d="M24 -369v243q233 -147 464 -147q214 0 347.5 108t133.5 281q0 183 -148.5 284.5t-410.5 101.5h-90v125l482 605h-755v202h1084v-123l-495 -620q265 -23 423.5 -176t158.5 -393q0 -263 -209 -433.5t-522 -170.5q-242 0 -463 113z"/>
<glyph glyph-name="uni01B8" horiz-adv-x="1304" unicode="Ƹ" d="M1279 -369q-221 -113 -482 -113q-313 0 -512.5 162.5t-199.5 425.5q0 238 162 400t420 185l-495 620v123h1084v-202h-751l480 -605v-125h-116q-247 0 -390.5 -103t-143.5 -283q0 -173 133 -281t346 -108q250 0 465 135v-231z"/>
<glyph glyph-name="uni01B9" horiz-adv-x="955" unicode="ƹ" d="M983 -393q-164 -87 -379 -87q-256 0 -417.5 126t-161.5 333q0 178 121.5 305.5t324.5 156.5l-380 485v98h858v-182h-554l364 -476v-87h-102q-185 0 -290.5 -76.5t-105.5 -211.5q0 -126 100 -206t256 -80q204 0 366 106v-204z"/>
<glyph glyph-name="uni01BA" horiz-adv-x="871" unicode="ƺ" d="M693 -219v-198q-137 -64 -323 -64q-179 0 -278.5 68.5t-99.5 189.5q0 209 325 317q148 46 205 92t57 122q0 74 -73 116.5t-205 42.5h-83v97l258 282h-457v178h756v-114l-282 -299q152 -17 236 -95.5t84 -203.5q0 -127 -86.5 -215t-290.5 -157q-136 -43 -177 -73t-41 -76 q0 -92 172 -92q167 0 303 82z"/>
<glyph glyph-name="uni01BB" horiz-adv-x="1137" unicode="ƻ" d="M1002 547h-311l-318 -348h628v-199h-900v191l331 356h-221v190h392q86 98 119.5 162.5t33.5 134.5q0 110 -65 172t-182 62q-186 0 -360 -157v220q163 127 394 127q208 0 327 -106.5t119 -287.5q0 -153 -138 -327h151v-190z"/>
<glyph glyph-name="uni01BC" horiz-adv-x="1137" unicode="Ƽ" d="M164 35v218q150 -93 305 -93q138 0 221.5 75t83.5 197q0 123 -88 191.5t-251 68.5q-52 0 -131 -6q-99 -8 -106 -8l82 558h-158v198h824v-198h-459l-51 -360q61 5 103 5q226 0 349 -114.5t123 -315.5q0 -214 -141 -344.5t-387 -130.5q-203 0 -319 59z"/>
<glyph glyph-name="uni01BD" horiz-adv-x="837" unicode="ƽ" d="M95 20v195q115 -67 239 -67q91 0 147.5 44.5t56.5 115.5q0 69 -61 111.5t-170 42.5q-23 0 -189 -12l53 393h-109v181h677v-181h-368l-29 -211q56 4 78 4q155 0 255 -82t100 -227q0 -155 -114 -253t-304 -98q-175 0 -262 44z"/>
<glyph glyph-name="uni01BE" horiz-adv-x="849" unicode="ƾ" d="M107 32v212q123 -96 278 -96q175 0 175 121q0 41 -25 75t-137 90q-145 70 -190.5 141.5t-45.5 172.5v94h-130v182h130v253l232 54v-307h246v-182h-246v-76q0 -58 25.5 -94.5t99.5 -74.5q149 -70 209 -143t60 -170q0 -135 -109.5 -221.5t-298.5 -86.5q-161 0 -273 56z"/>
<glyph glyph-name="uni01BF" horiz-adv-x="1166" unicode="ƿ" d="M383 702v-541q213 83 348 214t135 279q0 87 -52 144t-138 57q-135 0 -293 -153zM383 -49v-422h-232v1495h232v-129q165 153 352 153q157 0 261 -107.5t104 -267.5q0 -214 -190.5 -405.5t-526.5 -316.5z"/>
<glyph glyph-name="uni01C0" horiz-adv-x="570" unicode="ǀ" d="M383 -482h-194v2048h194v-2048z"/>
<glyph glyph-name="uni01C1" horiz-adv-x="938" unicode="ǁ" d="M383 -482h-194v2048h194v-2048zM752 -482h-195v2048h195v-2048z"/>
<glyph glyph-name="uni01C2" horiz-adv-x="990" unicode="ǂ" d="M934 284h-342v-766h-195v766h-342v181h342v275h-342v181h342v645h195v-645h342v-181h-342v-275h342v-181z"/>
<glyph glyph-name="uni01C3" horiz-adv-x="622" unicode="ǃ" d="M311 -20q-60 0 -102 38.5t-42 93.5q0 57 42 97t102 40q58 0 100.5 -40t42.5 -97q0 -55 -42.5 -93.5t-100.5 -38.5zM422 1434l-19 -1012h-190l-26 1012h235z"/>
<glyph glyph-name="uni01C4" horiz-adv-x="2592" unicode="Ǆ" d="M414 1232v-1031h190q251 0 390.5 138t139.5 390q0 503 -521 503h-199zM177 0v1434h414q793 0 793 -699q0 -332 -220 -533.5t-590 -201.5h-397zM2545 1330l-786 -1129h776v-201h-1109v109l789 1123h-728v202h1058v-104zM2339 1890l-224 -327h-185l-224 327h155l160 -210 l161 210h157z"/>
<glyph glyph-name="uni01C5" horiz-adv-x="2397" unicode="ǅ" d="M414 1232v-1031h190q251 0 390.5 138t139.5 390q0 503 -521 503h-199zM177 0v1434h414q793 0 793 -699q0 -332 -220 -533.5t-590 -201.5h-397zM2353 927l-553 -746h551v-181h-876v87l565 756h-511v181h824v-97zM2275 1531l-224 -327h-185l-224 327h155l160 -210l161 210 h157z"/>
<glyph glyph-name="uni01C6" horiz-adv-x="2155" unicode="ǆ" d="M853 468v134q0 109 -71 185t-181 76q-130 0 -204.5 -97t-74.5 -269q0 -156 71.5 -246.5t192.5 -90.5q119 0 193 87.5t74 220.5zM1082 0h-232v174h-4q-112 -198 -345 -198q-189 0 -302.5 137.5t-113.5 374.5q0 254 125.5 407t334.5 153q207 0 301 -166h4v634h232v-1516z M2111 927l-553 -746h551v-181h-876v87l565 756h-511v181h824v-97zM2034 1531l-224 -327h-185l-224 327h155l160 -210l161 210h157z"/>
<glyph glyph-name="uni01C7" horiz-adv-x="1753" unicode="Ǉ" d="M971 0h-794v1434h238v-1233h556v-201zM1670 514q0 -255 -126 -396.5t-336 -141.5q-98 0 -161 23v224q57 -39 147 -39q238 0 238 368v882h238v-920z"/>
<glyph glyph-name="uni01C8" horiz-adv-x="1474" unicode="ǈ" d="M971 0h-794v1434h238v-1233h556v-201zM1248 1239q-57 0 -97.5 37t-40.5 94t40.5 95t97.5 38q58 0 99 -38t41 -95q0 -54 -41 -92.5t-99 -38.5zM1362 43q0 -252 -106 -388.5t-303 -136.5q-73 0 -142 32v199q65 -45 123 -45q196 0 196 346v974h232v-981z"/>
<glyph glyph-name="uni01C9" horiz-adv-x="1088" unicode="ǉ" d="M384 0h-233v1516h233v-1516zM821 1239q-57 0 -97.5 37t-40.5 94t40.5 95t97.5 38q58 0 99 -38t41 -95q0 -54 -41 -92.5t-99 -38.5zM935 43q0 -252 -106 -388.5t-303 -136.5q-73 0 -142 32v199q65 -45 123 -45q196 0 196 346v974h232v-981z"/>
<glyph glyph-name="uni01CA" horiz-adv-x="2317" unicode="Ǌ" d="M1393 0h-260l-685 1054q-26 40 -43 83h-6q8 -46 8 -197v-940h-230v1434h277l662 -1029q42 -64 54 -88h4q-10 57 -10 193v924h229v-1434zM2153 514q0 -255 -126 -396.5t-336 -141.5q-98 0 -161 23v224q57 -39 147 -39q238 0 238 368v882h238v-920z"/>
<glyph glyph-name="uni01CB" horiz-adv-x="2066" unicode="ǋ" d="M1393 0h-260l-685 1054q-26 40 -43 83h-6q8 -46 8 -197v-940h-230v1434h277l662 -1029q42 -64 54 -88h4q-10 57 -10 193v924h229v-1434zM1800 1239q-57 0 -97.5 37t-40.5 94t40.5 95t97.5 38q58 0 99 -38t41 -95q0 -54 -41 -92.5t-99 -38.5zM1914 43q0 -252 -106 -388.5 t-303 -136.5q-73 0 -142 32v199q65 -45 123 -45q196 0 196 346v974h232v-981z"/>
<glyph glyph-name="uni01CC" horiz-adv-x="1737" unicode="ǌ" d="M1063 0h-232v577q0 287 -203 287q-106 0 -175 -79.5t-69 -200.5v-584h-233v1024h233v-170h4q115 194 332 194q167 0 255 -108.5t88 -313.5v-626zM1471 1239q-57 0 -97.5 37t-40.5 94t40.5 95t97.5 38q58 0 99 -38t41 -95q0 -54 -41 -92.5t-99 -38.5zM1585 43 q0 -252 -106 -388.5t-303 -136.5q-73 0 -142 32v199q65 -45 123 -45q196 0 196 346v974h232v-981z"/>
<glyph glyph-name="uni01CD" horiz-adv-x="1375" unicode="Ǎ" d="M902 559l-199 572q-9 28 -19 90h-4q-9 -57 -20 -90l-197 -572h439zM1355 0h-261l-129 365h-564l-124 -365h-260l537 1434h268zM1001 1886l-224 -327h-185l-224 327h155l160 -210l161 210h157z"/>
<glyph glyph-name="uni01CE" horiz-adv-x="1069" unicode="ǎ" d="M713 503l-215 -30q-100 -13 -150.5 -48.5t-50.5 -124.5q0 -65 46.5 -106.5t124.5 -41.5q106 0 175.5 74.5t69.5 187.5v89zM937 0h-225v160h-4q-106 -184 -311 -184q-151 0 -236.5 82t-85.5 217q0 290 334 338l304 43q0 219 -208 219q-183 0 -330 -126v203q162 96 374 96 q388 0 388 -382v-666zM841 1527l-224 -327h-185l-224 327h155l160 -210l161 210h157z"/>
<glyph glyph-name="uni01CF" horiz-adv-x="592" unicode="Ǐ" d="M546 1434v-192h-131v-1050h131v-192h-500v192h131v1050h-131v192h500zM615 1886l-224 -327h-185l-224 327h155l160 -210l161 210h157z"/>
<glyph glyph-name="uni01D0" horiz-adv-x="535" unicode="ǐ" d="M384 0h-233v1024h233v-1024zM585 1527l-224 -327h-185l-224 327h155l160 -210l161 210h157z"/>
<glyph glyph-name="uni01D1" horiz-adv-x="1548" unicode="Ǒ" d="M779 1249q-197 0 -320.5 -147t-123.5 -387q0 -239 120 -385t314 -146q206 0 325 139t119 389q0 257 -115.5 397t-318.5 140zM768 -24q-310 0 -496.5 201t-186.5 523q0 346 190 552t516 206q302 0 486.5 -200t184.5 -523q0 -351 -189 -555t-505 -204zM1090 1886l-224 -327 h-185l-224 327h155l160 -210l161 210h157z"/>
<glyph glyph-name="uni01D2" horiz-adv-x="1223" unicode="ǒ" d="M616 863q-136 0 -215 -95t-79 -262q0 -161 80 -253.5t214 -92.5q137 0 210.5 91t73.5 259q0 169 -73.5 261t-210.5 92zM605 -24q-237 0 -378.5 143.5t-141.5 380.5q0 258 147.5 403t397.5 145q240 0 374 -141t134 -391q0 -245 -144.5 -392.5t-388.5 -147.5zM928 1527 l-224 -327h-185l-224 327h155l160 -210l161 210h157z"/>
<glyph glyph-name="uni01D3" horiz-adv-x="1440" unicode="Ǔ" d="M1280 580q0 -604 -572 -604q-548 0 -548 581v877h238v-828q0 -422 328 -422q316 0 316 407v843h238v-854zM1052 1886l-224 -327h-185l-224 327h155l160 -210l161 210h157z"/>
<glyph glyph-name="uni01D4" horiz-adv-x="1195" unicode="ǔ" d="M1044 0h-232v162h-4q-101 -186 -314 -186q-363 0 -363 436v612h232v-588q0 -276 213 -276q103 0 169.5 76t66.5 199v589h232v-1024zM913 1527l-224 -327h-185l-224 327h155l160 -210l161 210h157z"/>
<glyph glyph-name="uni01D5" horiz-adv-x="1440" unicode="Ǖ" d="M1280 580q0 -604 -572 -604q-548 0 -548 581v877h238v-828q0 -422 328 -422q316 0 316 407v843h238v-854zM523 1573q-46 0 -80 29.5t-34 73.5t31.5 73t77.5 29q45 0 77.5 -29.5t32.5 -72.5t-30.5 -73t-74.5 -30zM907 1573q-43 0 -74 29t-31 74q0 44 32 73t75 29 q46 0 78 -29.5t32 -72.5t-32 -73t-80 -30zM986 1849h-543v137h543v-137z"/>
<glyph glyph-name="uni01D6" horiz-adv-x="1195" unicode="ǖ" d="M1044 0h-232v162h-4q-101 -186 -314 -186q-363 0 -363 436v612h232v-588q0 -276 213 -276q103 0 169.5 76t66.5 199v589h232v-1024zM408 1218q-46 0 -80 29.5t-34 73.5t31.5 73t77.5 29q45 0 77.5 -29.5t32.5 -72.5t-30.5 -73t-74.5 -30zM792 1218q-43 0 -74 29t-31 74 q0 44 32 73t75 29q46 0 78 -29.5t32 -72.5t-32 -73t-80 -30zM871 1494h-543v137h543v-137z"/>
<glyph glyph-name="uni01D7" horiz-adv-x="1440" unicode="Ǘ" d="M1280 580q0 -604 -572 -604q-548 0 -548 581v877h238v-828q0 -422 328 -422q316 0 316 407v843h238v-854zM499 1571q-45 0 -77.5 29.5t-32.5 73.5q0 43 31.5 72.5t77.5 29.5q45 0 77.5 -29.5t32.5 -72.5t-32 -73t-77 -30zM908 1571q-44 0 -76 29t-32 74q0 44 30.5 73 t76.5 29t78 -29.5t32 -72.5t-31 -73t-78 -30zM1061 2145l-286 -326h-171l240 326h217z"/>
<glyph glyph-name="uni01D8" horiz-adv-x="1195" unicode="ǘ" d="M1044 0h-232v162h-4q-101 -186 -314 -186q-363 0 -363 436v612h232v-588q0 -276 213 -276q103 0 169.5 76t66.5 199v589h232v-1024zM375 1209q-45 0 -77.5 29.5t-32.5 73.5q0 43 31.5 72.5t77.5 29.5q45 0 77.5 -29.5t32.5 -72.5t-32 -73t-77 -30zM784 1209q-44 0 -76 29 t-32 74q0 44 30.5 73t76.5 29t78 -29.5t32 -72.5t-31 -73t-78 -30zM937 1783l-286 -326h-171l240 326h217z"/>
<glyph glyph-name="uni01D9" horiz-adv-x="1440" unicode="Ǚ" d="M1280 580q0 -604 -572 -604q-548 0 -548 581v877h238v-828q0 -422 328 -422q316 0 316 407v843h238v-854zM525 1571q-45 0 -77.5 29.5t-32.5 73.5q0 43 31.5 72.5t77.5 29.5q45 0 77.5 -29.5t32.5 -72.5t-32 -73t-77 -30zM916 1571q-44 0 -76 29t-32 74q0 44 30.5 73 t76.5 29t77.5 -29.5t31.5 -72.5t-31 -73t-77 -30zM1037 2159l-224 -328h-185l-224 328h155l161 -211l160 211h157z"/>
<glyph glyph-name="uni01DA" horiz-adv-x="1195" unicode="ǚ" d="M1044 0h-232v162h-4q-101 -186 -314 -186q-363 0 -363 436v612h232v-588q0 -276 213 -276q103 0 169.5 76t66.5 199v589h232v-1024zM401 1209q-45 0 -77.5 29.5t-32.5 73.5q0 43 31.5 72.5t77.5 29.5q45 0 77.5 -29.5t32.5 -72.5t-32 -73t-77 -30zM792 1209q-44 0 -76 29 t-32 74q0 44 30.5 73t76.5 29t77.5 -29.5t31.5 -72.5t-31 -73t-77 -30zM913 1797l-224 -328h-185l-224 328h155l161 -211l160 211h157z"/>
<glyph glyph-name="uni01DB" horiz-adv-x="1440" unicode="Ǜ" d="M1280 580q0 -604 -572 -604q-548 0 -548 581v877h238v-828q0 -422 328 -422q316 0 316 407v843h238v-854zM525 1571q-46 0 -77.5 30t-31.5 73t32 72.5t78 29.5q43 0 75 -29t32 -73q0 -45 -32 -74t-76 -29zM934 1571q-45 0 -76.5 30t-31.5 73t32 72.5t77 29.5 q46 0 77.5 -29.5t31.5 -72.5q0 -44 -32.5 -73.5t-77.5 -29.5zM830 1819h-172l-286 326h217z"/>
<glyph glyph-name="uni01DC" horiz-adv-x="1195" unicode="ǜ" d="M1044 0h-232v162h-4q-101 -186 -314 -186q-363 0 -363 436v612h232v-588q0 -276 213 -276q103 0 169.5 76t66.5 199v589h232v-1024zM403 1209q-46 0 -77.5 30t-31.5 73t32 72.5t78 29.5q43 0 75 -29t32 -73q0 -45 -32 -74t-76 -29zM812 1209q-45 0 -76.5 30t-31.5 73 t32 72.5t77 29.5q46 0 77.5 -29.5t31.5 -72.5q0 -44 -32.5 -73.5t-77.5 -29.5zM708 1457h-172l-286 326h217z"/>
<glyph glyph-name="uni01DD" horiz-adv-x="1088" unicode="ǝ" d="M768 411h-474q2 -126 59.5 -195t161.5 -69q99 0 168 73t85 191zM70 575h698q-5 142 -85.5 219.5t-224.5 77.5q-168 0 -308 -99v187q136 88 360 88q230 0 361 -138t131 -389q0 -243 -140.5 -394t-348.5 -151q-213 0 -328 136t-115 374v89z"/>
<glyph glyph-name="uni01DE" horiz-adv-x="1375" unicode="Ǟ" d="M902 559l-199 572q-9 28 -19 90h-4q-9 -57 -20 -90l-197 -572h439zM1355 0h-261l-129 365h-564l-124 -365h-260l537 1434h268zM489 1573q-46 0 -80 29.5t-34 73.5t31.5 73t77.5 29q45 0 77.5 -29.5t32.5 -72.5t-30.5 -73t-74.5 -30zM873 1573q-43 0 -74 29t-31 74 q0 44 32 73t75 29q46 0 78 -29.5t32 -72.5t-32 -73t-80 -30zM952 1849h-543v137h543v-137z"/>
<glyph glyph-name="uni01DF" horiz-adv-x="1069" unicode="ǟ" d="M713 503l-215 -30q-100 -13 -150.5 -48.5t-50.5 -124.5q0 -65 46.5 -106.5t124.5 -41.5q106 0 175.5 74.5t69.5 187.5v89zM937 0h-225v160h-4q-106 -184 -311 -184q-151 0 -236.5 82t-85.5 217q0 290 334 338l304 43q0 219 -208 219q-183 0 -330 -126v203q162 96 374 96 q388 0 388 -382v-666zM329 1218q-46 0 -80 29.5t-34 73.5t31.5 73t77.5 29q45 0 77.5 -29.5t32.5 -72.5t-30.5 -73t-74.5 -30zM713 1218q-43 0 -74 29t-31 74q0 44 32 73t75 29q46 0 78 -29.5t32 -72.5t-32 -73t-80 -30zM792 1494h-543v137h543v-137z"/>
<glyph glyph-name="uni01E0" horiz-adv-x="1375" unicode="Ǡ" d="M902 559l-199 572q-9 28 -19 90h-4q-9 -57 -20 -90l-197 -572h439zM1355 0h-261l-129 365h-564l-124 -365h-260l537 1434h268zM681 1573q-44 0 -76 29.5t-32 73.5q0 43 32 72t76 29q46 0 77.5 -29t31.5 -72t-31.5 -73t-77.5 -30zM953 1846h-543v137h543v-137z"/>
<glyph glyph-name="uni01E1" horiz-adv-x="1069" unicode="ǡ" d="M713 503l-215 -30q-100 -13 -150.5 -48.5t-50.5 -124.5q0 -65 46.5 -106.5t124.5 -41.5q106 0 175.5 74.5t69.5 187.5v89zM937 0h-225v160h-4q-106 -184 -311 -184q-151 0 -236.5 82t-85.5 217q0 290 334 338l304 43q0 219 -208 219q-183 0 -330 -126v203q162 96 374 96 q388 0 388 -382v-666zM505 1218q-44 0 -76 29.5t-32 73.5q0 43 32 72t76 29q46 0 77.5 -29t31.5 -72t-31.5 -73t-77.5 -30zM777 1491h-543v137h543v-137z"/>
<glyph glyph-name="uni01E2" horiz-adv-x="1831" unicode="Ǣ" d="M945 559v673h-87l-317 -673h404zM1749 0h-804v365h-492l-172 -365h-275l710 1434h1000v-202h-534v-406h497v-201h-497v-424h567v-201zM1483 1575h-543v137h543v-137z"/>
<glyph glyph-name="uni01E3" horiz-adv-x="1700" unicode="ǣ" d="M713 412v55l-177 -11q-121 -7 -180.5 -43t-59.5 -119q0 -64 46.5 -103t125.5 -39q103 0 174 74t71 186zM1406 613q-2 127 -59 195.5t-160 68.5q-98 0 -168.5 -72t-86.5 -192h474zM1630 449h-699q3 -142 85 -219.5t225 -77.5q171 0 310 99v-186q-135 -89 -367 -89 q-275 0 -390 206h-4q-140 -206 -372 -206q-160 0 -251.5 82.5t-91.5 220.5q0 306 379 331l259 16q0 250 -201 250q-178 0 -336 -115v196q152 91 357 91q240 0 311 -170h4q114 170 349 170q206 0 319.5 -135.5t113.5 -376.5v-87zM1126 1214h-543v137h543v-137z"/>
<glyph glyph-name="uni01E4" horiz-adv-x="1428" unicode="Ǥ" d="M1437 322h-141v-225q-224 -121 -498 -121q-319 0 -516 197.5t-197 522.5q0 334 217.5 548t550.5 214q236 0 397 -70v-239q-173 104 -409 104q-222 0 -364 -151t-142 -392q0 -249 129.5 -391.5t351.5 -142.5q140 0 243 49v97h-301v162h301v127h-302v182h539v-309h141v-162 z"/>
<glyph glyph-name="uni01E5" horiz-adv-x="1234" unicode="ǥ" d="M853 520v75q0 110 -72 189t-180 79q-130 0 -204.5 -91t-74.5 -249q0 -141 72.5 -225.5t188.5 -84.5q120 0 195 85.5t75 221.5zM1233 -193h-192q-130 -288 -532 -288q-196 0 -342 66v207q180 -91 344 -91q199 0 284 106h-246v162h295q7 47 7 100v144h-4 q-109 -186 -328 -186q-193 0 -313.5 133t-120.5 355q0 238 127.5 385.5t339.5 147.5q199 0 295 -156h4v132h232v-908q0 -78 -6 -147h156v-162z"/>
<glyph glyph-name="uni01E6" horiz-adv-x="1428" unicode="Ǧ" d="M1296 98q-224 -122 -499 -122q-318 0 -515 198t-197 524q0 333 215.5 546.5t547.5 213.5q239 0 402 -70v-245q-165 110 -393 110q-229 0 -375.5 -151t-146.5 -391q0 -247 126 -388.5t342 -141.5q148 0 256 57v341h-302v200h539v-681zM1076 1886l-224 -327h-185l-224 327 h155l160 -210l161 210h157z"/>
<glyph glyph-name="uni01E7" horiz-adv-x="1234" unicode="ǧ" d="M853 469v133q0 108 -71.5 184.5t-178.5 76.5q-132 0 -206.5 -97.5t-74.5 -272.5q0 -151 71.5 -241.5t189.5 -90.5q120 0 195 86.5t75 221.5zM1083 82q0 -564 -567 -564q-200 0 -349 67v212q168 -96 319 -96q365 0 365 359v112h-4q-115 -196 -346 -196 q-187 0 -301.5 136.5t-114.5 366.5q0 261 123 415t338 154q203 0 301 -166h4v142h232v-942zM906 1527l-224 -327h-185l-224 327h155l160 -210l161 210h157z"/>
<glyph glyph-name="uni01E8" horiz-adv-x="1251" unicode="Ǩ" d="M1262 0h-310l-499 656q-28 37 -34 50h-4v-706h-238v1434h238v-674h4q12 22 34 49l481 625h285l-563 -688zM957 1886l-224 -327h-185l-224 327h155l160 -210l161 210h157z"/>
<glyph glyph-name="uni01E9" horiz-adv-x="1075" unicode="ǩ" d="M1080 0h-294l-398 492h-4v-492h-233v1516h233v-961h4l376 469h279l-423 -494zM872 1886l-224 -327h-185l-224 327h155l160 -210l161 210h157z"/>
<glyph glyph-name="uni01EA" horiz-adv-x="1548" unicode="Ǫ" d="M779 1249q-197 0 -320.5 -147t-123.5 -387q0 -239 120 -385t314 -146q206 0 325 139t119 389q0 257 -115.5 397t-318.5 140zM768 -24q-310 0 -496.5 201t-186.5 523q0 346 190 552t516 206q302 0 486.5 -200t184.5 -523q0 -351 -189 -555t-505 -204zM919 0 q-151 -137 -151 -216q0 -68 65 -68q36 0 68 13v-121q-38 -16 -105 -16q-78 0 -125.5 42t-47.5 116q0 122 161 250h135z"/>
<glyph glyph-name="uni01EB" horiz-adv-x="1223" unicode="ǫ" d="M616 863q-136 0 -215 -95t-79 -262q0 -161 80 -253.5t214 -92.5q137 0 210.5 91t73.5 259q0 169 -73.5 261t-210.5 92zM605 -24q-237 0 -378.5 143.5t-141.5 380.5q0 258 147.5 403t397.5 145q240 0 374 -141t134 -391q0 -245 -144.5 -392.5t-388.5 -147.5zM746 0 q-151 -137 -151 -216q0 -68 65 -68q36 0 68 13v-121q-38 -16 -105 -16q-78 0 -125.5 42t-47.5 116q0 122 161 250h135z"/>
<glyph glyph-name="uni01EC" horiz-adv-x="1548" unicode="Ǭ" d="M779 1249q-197 0 -320.5 -147t-123.5 -387q0 -239 120 -385t314 -146q206 0 325 139t119 389q0 257 -115.5 397t-318.5 140zM768 -24q-310 0 -496.5 201t-186.5 523q0 346 190 552t516 206q302 0 486.5 -200t184.5 -523q0 -351 -189 -555t-505 -204zM919 0 q-151 -137 -151 -216q0 -68 65 -68q36 0 68 13v-121q-38 -16 -105 -16q-78 0 -125.5 42t-47.5 116q0 122 161 250h135zM1077 1567h-588v153h588v-153z"/>
<glyph glyph-name="uni01ED" horiz-adv-x="1223" unicode="ǭ" d="M616 863q-136 0 -215 -95t-79 -262q0 -161 80 -253.5t214 -92.5q137 0 210.5 91t73.5 259q0 169 -73.5 261t-210.5 92zM605 -24q-237 0 -378.5 143.5t-141.5 380.5q0 258 147.5 403t397.5 145q240 0 374 -141t134 -391q0 -245 -144.5 -392.5t-388.5 -147.5zM746 0 q-151 -137 -151 -216q0 -68 65 -68q36 0 68 13v-121q-38 -16 -105 -16q-78 0 -125.5 42t-47.5 116q0 122 161 250h135zM908 1204h-588v153h588v-153z"/>
<glyph glyph-name="uni01EE" horiz-adv-x="1304" unicode="Ǯ" d="M24 -369v243q233 -147 464 -147q214 0 347.5 108t133.5 281q0 183 -148.5 284.5t-410.5 101.5h-90v125l482 605h-755v202h1084v-123l-495 -620q265 -23 423.5 -176t158.5 -393q0 -263 -209 -433.5t-522 -170.5q-242 0 -463 113zM875 1886l-224 -327h-185l-224 327h155 l160 -210l161 210h157z"/>
<glyph glyph-name="uni01EF" horiz-adv-x="955" unicode="ǯ" d="M-29 -393v212q167 -114 347 -114q164 0 269 81t105 210q0 133 -108 207.5t-309 74.5h-80v87l369 477h-560v182h858v-99l-379 -484q214 -26 329 -143t115 -297q0 -209 -171.5 -344.5t-432.5 -135.5q-191 0 -352 86zM726 1527l-224 -327h-185l-224 327h155l160 -210 l161 210h157z"/>
<glyph glyph-name="uni01F0" horiz-adv-x="535" unicode="ǰ" d="M383 31q0 -246 -106 -379t-303 -133q-73 0 -142 31v196q68 -42 129 -42q190 0 190 302v1018h232v-993zM584 1527l-224 -327h-185l-224 327h155l160 -210l161 210h157z"/>
<glyph glyph-name="uni01F1" horiz-adv-x="2589" unicode="Ǳ" d="M414 1232v-1031h190q251 0 390.5 138t139.5 390q0 503 -521 503h-199zM177 0v1434h414q793 0 793 -699q0 -332 -220 -533.5t-590 -201.5h-397zM2542 1330l-786 -1129h776v-201h-1109v109l789 1123h-728v202h1058v-104z"/>
<glyph glyph-name="uni01F2" horiz-adv-x="2397" unicode="ǲ" d="M414 1232v-1031h190q251 0 390.5 138t139.5 390q0 503 -521 503h-199zM177 0v1434h414q793 0 793 -699q0 -332 -220 -533.5t-590 -201.5h-397zM2354 927l-553 -746h551v-181h-876v87l565 756h-511v181h824v-97z"/>
<glyph glyph-name="uni01F3" horiz-adv-x="2155" unicode="ǳ" d="M853 468v134q0 109 -71 185t-181 76q-130 0 -204.5 -97t-74.5 -269q0 -156 71.5 -246.5t192.5 -90.5q119 0 193 87.5t74 220.5zM1082 0h-232v174h-4q-112 -198 -345 -198q-189 0 -302.5 137.5t-113.5 374.5q0 254 125.5 407t334.5 153q207 0 301 -166h4v634h232v-1516z M2112 927l-553 -746h551v-181h-876v87l565 756h-511v181h824v-97z"/>
<glyph glyph-name="uni01F4" horiz-adv-x="1428" unicode="Ǵ" d="M1296 98q-224 -122 -499 -122q-318 0 -515 198t-197 524q0 333 215.5 546.5t547.5 213.5q239 0 402 -70v-245q-165 110 -393 110q-229 0 -375.5 -151t-146.5 -391q0 -247 126 -388.5t342 -141.5q148 0 256 57v341h-302v200h539v-681zM1148 1908l-286 -328h-172l242 328 h216z"/>
<glyph glyph-name="uni01F5" horiz-adv-x="1234" unicode="ǵ" d="M853 469v133q0 108 -71.5 184.5t-178.5 76.5q-132 0 -206.5 -97.5t-74.5 -272.5q0 -151 71.5 -241.5t189.5 -90.5q120 0 195 86.5t75 221.5zM1083 82q0 -564 -567 -564q-200 0 -349 67v212q168 -96 319 -96q365 0 365 359v112h-4q-115 -196 -346 -196 q-187 0 -301.5 136.5t-114.5 366.5q0 261 123 415t338 154q203 0 301 -166h4v142h232v-942zM938 1546l-286 -328h-172l242 328h216z"/>
<glyph glyph-name="uni01F6" horiz-adv-x="2122" unicode="Ƕ" d="M1994 458q0 -228 -127.5 -355t-352.5 -127q-223 0 -344 123t-121 349v174h-635v-622h-237v1434h237v-604h635v604h238v-976q0 -274 234 -274t234 271v569h239v-566z"/>
<glyph glyph-name="uni01F7" horiz-adv-x="1463" unicode="Ƿ" d="M441 999v-804q309 129 498.5 332t189.5 433q0 123 -71 205t-189 82q-205 0 -428 -248zM441 -42v-429h-238v1905h238v-190q217 214 481 214q200 0 328 -137.5t128 -339.5q0 -314 -247.5 -582t-689.5 -441z"/>
<glyph glyph-name="uni01F8" horiz-adv-x="1571" unicode="Ǹ" d="M1393 0h-260l-685 1054q-26 40 -43 83h-6q8 -46 8 -197v-940h-230v1434h277l662 -1029q42 -64 54 -88h4q-10 57 -10 193v924h229v-1434zM928 1569h-173l-262 328h214z"/>
<glyph glyph-name="uni01F9" horiz-adv-x="1195" unicode="ǹ" d="M1063 0h-232v577q0 287 -203 287q-106 0 -175 -79.5t-69 -200.5v-584h-233v1024h233v-170h4q115 194 332 194q167 0 255 -108.5t88 -313.5v-626zM739 1204h-173l-262 328h214z"/>
<glyph glyph-name="Aringacute" horiz-adv-x="1375" unicode="Ǻ" d="M902 559l-199 572q-9 28 -19 90h-4q-9 -57 -20 -90l-197 -572h439zM1355 0h-261l-129 365h-564l-124 -365h-260l537 1434h268zM679 1643q-45 0 -74.5 -30t-29.5 -74q0 -104 104 -104q48 0 79.5 29.5t31.5 74.5t-31.5 74.5t-79.5 29.5zM679 1333q-94 0 -155.5 54 t-61.5 142q0 98 63 156t161 58q96 0 157.5 -58.5t61.5 -149.5q0 -87 -65.5 -144.5t-160.5 -57.5zM974 2133l-286 -328h-172l242 328h216z"/>
<glyph glyph-name="aringacute" horiz-adv-x="1069" unicode="ǻ" d="M713 503l-215 -30q-100 -13 -150.5 -48.5t-50.5 -124.5q0 -65 46.5 -106.5t124.5 -41.5q106 0 175.5 74.5t69.5 187.5v89zM937 0h-225v160h-4q-106 -184 -311 -184q-151 0 -236.5 82t-85.5 217q0 290 334 338l304 43q0 219 -208 219q-183 0 -330 -126v203q162 96 374 96 q388 0 388 -382v-666zM541 1434q-45 0 -74.5 -30t-29.5 -74q0 -104 104 -104q48 0 79.5 29.5t31.5 74.5t-31.5 74.5t-79.5 29.5zM541 1124q-94 0 -155.5 54t-61.5 142q0 98 63 156t161 58q96 0 157.5 -58.5t61.5 -149.5q0 -87 -65.5 -144.5t-160.5 -57.5zM848 1950 l-286 -328h-172l242 328h216z"/>
<glyph glyph-name="AEacute" horiz-adv-x="1831" unicode="Ǽ" d="M945 559v673h-87l-317 -673h404zM1749 0h-804v365h-492l-172 -365h-275l710 1434h1000v-202h-534v-406h497v-201h-497v-424h567v-201zM1435 1908l-286 -328h-172l242 328h216z"/>
<glyph glyph-name="aeacute" horiz-adv-x="1700" unicode="ǽ" d="M713 412v55l-177 -11q-121 -7 -180.5 -43t-59.5 -119q0 -64 46.5 -103t125.5 -39q103 0 174 74t71 186zM1406 613q-2 127 -59 195.5t-160 68.5q-98 0 -168.5 -72t-86.5 -192h474zM1630 449h-699q3 -142 85 -219.5t225 -77.5q171 0 310 99v-186q-135 -89 -367 -89 q-275 0 -390 206h-4q-140 -206 -372 -206q-160 0 -251.5 82.5t-91.5 220.5q0 306 379 331l259 16q0 250 -201 250q-178 0 -336 -115v196q152 91 357 91q240 0 311 -170h4q114 170 349 170q206 0 319.5 -135.5t113.5 -376.5v-87zM1159 1546l-286 -328h-172l242 328h216z"/>
<glyph glyph-name="Oslashacute" horiz-adv-x="1548" unicode="Ǿ" d="M1136 1069l-659 -780q114 -117 291 -117q212 0 334 142.5t122 397.5q0 222 -88 357zM1057 1171q-111 90 -276 90q-204 0 -330.5 -151.5t-126.5 -394.5q0 -192 75 -321zM335 121l-148 -177l-99 83l154 184q-157 193 -157 489q0 343 189.5 550.5t517.5 207.5 q233 0 401 -125l132 157l99 -81l-137 -162q176 -194 176 -512q0 -351 -189 -555t-506 -204q-261 0 -433 145zM1095 1908l-286 -328h-172l242 328h216z"/>
<glyph glyph-name="oslashacute" horiz-adv-x="1223" unicode="ǿ" d="M877 701l-456 -488q76 -62 194 -62q145 0 221 94.5t76 266.5q0 110 -35 189zM798 815q-67 59 -181 59q-141 0 -222.5 -97t-81.5 -268q0 -105 35 -178zM1188 1030l-155 -164q105 -137 105 -344q0 -252 -145.5 -399t-387.5 -147q-194 0 -322 95l-140 -151l-99 90l144 155 q-103 137 -103 341q0 256 147 399.5t395 143.5q185 0 310 -91l151 163zM920 1546l-286 -328h-172l242 328h216z"/>
<glyph glyph-name="uni0200" horiz-adv-x="1375" unicode="Ȁ" d="M902 559l-199 572q-9 28 -19 90h-4q-9 -57 -20 -90l-197 -572h439zM1355 0h-261l-129 365h-564l-124 -365h-260l537 1434h268zM601 1554h-148l-248 318h185zM902 1554h-148l-243 318h183z"/>
<glyph glyph-name="uni0201" horiz-adv-x="1069" unicode="ȁ" d="M713 503l-215 -30q-100 -13 -150.5 -48.5t-50.5 -124.5q0 -65 46.5 -106.5t124.5 -41.5q106 0 175.5 74.5t69.5 187.5v89zM937 0h-225v160h-4q-106 -184 -311 -184q-151 0 -236.5 82t-85.5 217q0 290 334 338l304 43q0 219 -208 219q-183 0 -330 -126v203q162 96 374 96 q388 0 388 -382v-666zM460 1204h-148l-248 318h185zM761 1204h-148l-243 318h183z"/>
<glyph glyph-name="uni0202" horiz-adv-x="1375" unicode="Ȃ" d="M902 559l-199 572q-9 28 -19 90h-4q-9 -57 -20 -90l-197 -572h439zM1355 0h-261l-129 365h-564l-124 -365h-260l537 1434h268zM986 1561h-139q-23 137 -167 137q-143 0 -166 -137h-139q11 120 95.5 194.5t211.5 74.5q126 0 209.5 -75t94.5 -194z"/>
<glyph glyph-name="uni0203" horiz-adv-x="1069" unicode="ȃ" d="M713 503l-215 -30q-100 -13 -150.5 -48.5t-50.5 -124.5q0 -65 46.5 -106.5t124.5 -41.5q106 0 175.5 74.5t69.5 187.5v89zM937 0h-225v160h-4q-106 -184 -311 -184q-151 0 -236.5 82t-85.5 217q0 290 334 338l304 43q0 219 -208 219q-183 0 -330 -126v203q162 96 374 96 q388 0 388 -382v-666zM844 1184h-139q-23 137 -167 137q-143 0 -166 -137h-139q11 120 95.5 194.5t211.5 74.5q126 0 209.5 -75t94.5 -194z"/>
<glyph glyph-name="uni0204" horiz-adv-x="1060" unicode="Ȅ" d="M982 0h-805v1434h773v-202h-535v-406h493v-201h-493v-424h567v-201zM515 1554h-148l-248 318h185zM816 1554h-148l-243 318h183z"/>
<glyph glyph-name="uni0205" horiz-adv-x="1088" unicode="ȅ" d="M794 613q-1 125 -59 194.5t-160 69.5q-100 0 -169.5 -73t-85.5 -191h474zM1018 449h-698q4 -142 87.5 -219t229.5 -77q164 0 301 98v-187q-140 -88 -370 -88q-226 0 -354.5 139.5t-128.5 392.5q0 239 141.5 389.5t351.5 150.5t325 -135t115 -375v-89zM499 1204h-148 l-248 318h185zM800 1204h-148l-243 318h183z"/>
<glyph glyph-name="uni0206" horiz-adv-x="1060" unicode="Ȇ" d="M982 0h-805v1434h773v-202h-535v-406h493v-201h-493v-424h567v-201zM870 1561h-139q-23 137 -167 137q-143 0 -166 -137h-139q11 120 95.5 194.5t211.5 74.5q126 0 209.5 -75t94.5 -194z"/>
<glyph glyph-name="uni0207" horiz-adv-x="1088" unicode="ȇ" d="M794 613q-1 125 -59 194.5t-160 69.5q-100 0 -169.5 -73t-85.5 -191h474zM1018 449h-698q4 -142 87.5 -219t229.5 -77q164 0 301 98v-187q-140 -88 -370 -88q-226 0 -354.5 139.5t-128.5 392.5q0 239 141.5 389.5t351.5 150.5t325 -135t115 -375v-89zM846 1184h-139 q-23 137 -167 137q-143 0 -166 -137h-139q11 120 95.5 194.5t211.5 74.5q126 0 209.5 -75t94.5 -194z"/>
<glyph glyph-name="uni0208" horiz-adv-x="592" unicode="Ȉ" d="M546 1434v-192h-131v-1050h131v-192h-500v192h131v1050h-131v192h500zM240 1554h-148l-248 318h185zM541 1554h-148l-243 318h183z"/>
<glyph glyph-name="uni0209" horiz-adv-x="535" unicode="ȉ" d="M384 0h-233v1024h233v-1024zM205 1204h-148l-248 318h185zM506 1204h-148l-243 318h183z"/>
<glyph glyph-name="uni020A" horiz-adv-x="592" unicode="Ȋ" d="M546 1434v-192h-131v-1050h131v-192h-500v192h131v1050h-131v192h500zM608 1561h-139q-23 137 -167 137q-143 0 -166 -137h-139q11 120 95.5 194.5t211.5 74.5q126 0 209.5 -75t94.5 -194z"/>
<glyph glyph-name="uni020B" horiz-adv-x="535" unicode="ȋ" d="M384 0h-233v1024h233v-1024zM578 1184h-139q-23 137 -167 137q-143 0 -166 -137h-139q11 120 95.5 194.5t211.5 74.5q126 0 209.5 -75t94.5 -194z"/>
<glyph glyph-name="uni020C" horiz-adv-x="1548" unicode="Ȍ" d="M779 1249q-197 0 -320.5 -147t-123.5 -387q0 -239 120 -385t314 -146q206 0 325 139t119 389q0 257 -115.5 397t-318.5 140zM768 -24q-310 0 -496.5 201t-186.5 523q0 346 190 552t516 206q302 0 486.5 -200t184.5 -523q0 -351 -189 -555t-505 -204zM715 1554h-148 l-248 318h185zM1016 1554h-148l-243 318h183z"/>
<glyph glyph-name="uni020D" horiz-adv-x="1223" unicode="ȍ" d="M616 863q-136 0 -215 -95t-79 -262q0 -161 80 -253.5t214 -92.5q137 0 210.5 91t73.5 259q0 169 -73.5 261t-210.5 92zM605 -24q-237 0 -378.5 143.5t-141.5 380.5q0 258 147.5 403t397.5 145q240 0 374 -141t134 -391q0 -245 -144.5 -392.5t-388.5 -147.5zM543 1204 h-148l-248 318h185zM844 1204h-148l-243 318h183z"/>
<glyph glyph-name="uni020E" horiz-adv-x="1548" unicode="Ȏ" d="M779 1249q-197 0 -320.5 -147t-123.5 -387q0 -239 120 -385t314 -146q206 0 325 139t119 389q0 257 -115.5 397t-318.5 140zM768 -24q-310 0 -496.5 201t-186.5 523q0 346 190 552t516 206q302 0 486.5 -200t184.5 -523q0 -351 -189 -555t-505 -204zM1068 1561h-139 q-23 137 -167 137q-143 0 -166 -137h-139q11 120 95.5 194.5t211.5 74.5q126 0 209.5 -75t94.5 -194z"/>
<glyph glyph-name="uni020F" horiz-adv-x="1223" unicode="ȏ" d="M616 863q-136 0 -215 -95t-79 -262q0 -161 80 -253.5t214 -92.5q137 0 210.5 91t73.5 259q0 169 -73.5 261t-210.5 92zM605 -24q-237 0 -378.5 143.5t-141.5 380.5q0 258 147.5 403t397.5 145q240 0 374 -141t134 -391q0 -245 -144.5 -392.5t-388.5 -147.5zM917 1184 h-139q-23 137 -167 137q-143 0 -166 -137h-139q11 120 95.5 194.5t211.5 74.5q126 0 209.5 -75t94.5 -194z"/>
<glyph glyph-name="uni0210" horiz-adv-x="1275" unicode="Ȑ" d="M414 1241v-466h198q55 0 101.5 17t80.5 49t53 78t19 103q0 103 -65 161t-187 58h-200zM1285 0h-278l-229 384q-31 53 -60.5 90.5t-60 61.5t-66.5 35t-81 11h-96v-582h-237v1434h472q101 0 186 -24t148 -72.5t98.5 -121t35.5 -169.5q0 -76 -22.5 -139.5t-64 -113 t-100 -84.5t-131.5 -54v-4q39 -22 68 -48.5t55 -54.5t51.5 -63.5t56.5 -82.5zM535 1554h-148l-248 318h185zM836 1554h-148l-243 318h183z"/>
<glyph glyph-name="uni0211" horiz-adv-x="758" unicode="ȑ" d="M745 803q-42 33 -121 33q-103 0 -172 -93t-69 -253v-490h-232v1024h232v-211h4q34 108 104.5 168.5t157.5 60.5q63 0 96 -19v-220zM355 1204h-148l-248 318h185zM656 1204h-148l-243 318h183z"/>
<glyph glyph-name="uni0212" horiz-adv-x="1275" unicode="Ȓ" d="M414 1241v-466h198q55 0 101.5 17t80.5 49t53 78t19 103q0 103 -65 161t-187 58h-200zM1285 0h-278l-229 384q-31 53 -60.5 90.5t-60 61.5t-66.5 35t-81 11h-96v-582h-237v1434h472q101 0 186 -24t148 -72.5t98.5 -121t35.5 -169.5q0 -76 -22.5 -139.5t-64 -113 t-100 -84.5t-131.5 -54v-4q39 -22 68 -48.5t55 -54.5t51.5 -63.5t56.5 -82.5zM919 1561h-139q-23 137 -167 137q-143 0 -166 -137h-139q11 120 95.5 194.5t211.5 74.5q126 0 209.5 -75t94.5 -194z"/>
<glyph glyph-name="uni0213" horiz-adv-x="758" unicode="ȓ" d="M745 803q-42 33 -121 33q-103 0 -172 -93t-69 -253v-490h-232v1024h232v-211h4q34 108 104.5 168.5t157.5 60.5q63 0 96 -19v-220zM762 1184h-139q-23 137 -167 137q-143 0 -166 -137h-139q11 120 95.5 194.5t211.5 74.5q126 0 209.5 -75t94.5 -194z"/>
<glyph glyph-name="uni0214" horiz-adv-x="1440" unicode="Ȕ" d="M1280 580q0 -604 -572 -604q-548 0 -548 581v877h238v-828q0 -422 328 -422q316 0 316 407v843h238v-854zM662 1554h-148l-248 318h185zM963 1554h-148l-243 318h183z"/>
<glyph glyph-name="uni0215" horiz-adv-x="1195" unicode="ȕ" d="M1044 0h-232v162h-4q-101 -186 -314 -186q-363 0 -363 436v612h232v-588q0 -276 213 -276q103 0 169.5 76t66.5 199v589h232v-1024zM535 1204h-148l-248 318h185zM836 1204h-148l-243 318h183z"/>
<glyph glyph-name="uni0216" horiz-adv-x="1440" unicode="Ȗ" d="M1280 580q0 -604 -572 -604q-548 0 -548 581v877h238v-828q0 -422 328 -422q316 0 316 407v843h238v-854zM1027 1561h-139q-23 137 -167 137q-143 0 -166 -137h-139q11 120 95.5 194.5t211.5 74.5q126 0 209.5 -75t94.5 -194z"/>
<glyph glyph-name="uni0217" horiz-adv-x="1195" unicode="ȗ" d="M1044 0h-232v162h-4q-101 -186 -314 -186q-363 0 -363 436v612h232v-588q0 -276 213 -276q103 0 169.5 76t66.5 199v589h232v-1024zM911 1184h-139q-23 137 -167 137q-143 0 -166 -137h-139q11 120 95.5 194.5t211.5 74.5q126 0 209.5 -75t94.5 -194z"/>
<glyph glyph-name="Scommaaccent" horiz-adv-x="1115" unicode="Ș" d="M111 57v245q33 -30 78.5 -54t96.5 -40.5t102 -25.5t94 -9q150 0 223.5 50t73.5 145q0 51 -24.5 88.5t-68.5 68.5t-103.5 59.5t-127.5 59.5q-73 39 -136 79t-109.5 88.5t-73 109.5t-26.5 143q0 101 45.5 175.5t120 123t169.5 72t194 23.5q225 0 328 -51v-235 q-122 88 -314 88q-53 0 -105.5 -10t-94 -33t-67.5 -59t-26 -87q0 -48 20 -83t58.5 -64t94 -56.5t128.5 -59.5q75 -39 141.5 -82t117 -95t80 -115.5t29.5 -144.5q0 -109 -44 -184t-118.5 -122t-171.5 -68t-205 -21q-36 0 -88.5 5.5t-107.5 16t-104 25.5t-79 34zM675 -118 l-167 -302h-155l105 302h217z"/>
<glyph glyph-name="scommaaccent" horiz-adv-x="883" unicode="ș" d="M87 32v215q130 -99 287 -99q210 0 210 124q0 35 -18 59.5t-48.5 43.5t-72 34t-92.5 34q-63 25 -113.5 53t-84 63.5t-50.5 80.5t-17 105q0 74 35 130.5t94 95t134 58t155 19.5q142 0 254 -43v-203q-108 74 -248 74q-44 0 -79.5 -9t-60.5 -25t-39 -38.5t-14 -49.5 q0 -33 14 -56t41.5 -40.5t66 -32t88.5 -31.5q66 -27 118.5 -55t89.5 -63.5t57 -82t20 -110.5q0 -78 -36 -136t-96 -96t-138.5 -56.5t-165.5 -18.5q-168 0 -291 56zM560 -118l-167 -302h-155l105 302h217z"/>
<glyph glyph-name="uni021A" horiz-adv-x="1130" unicode="Ț" d="M1097 1232h-412v-1232h-238v1232h-411v202h1061v-202zM707 -118l-167 -302h-155l105 302h217z"/>
<glyph glyph-name="uni021B" horiz-adv-x="740" unicode="ț" d="M691 11q-68 -34 -179 -34q-298 0 -298 286v579h-171v182h171v237l232 66v-303h245v-182h-245v-512q0 -91 33 -130t110 -39q59 0 102 34v-184zM591 -118l-167 -302h-155l105 302h217z"/>
<glyph glyph-name="uni021C" horiz-adv-x="1097" unicode="Ȝ" d="M9 -463v214q88 -23 205 -23q241 0 403.5 120t162.5 302q0 142 -101.5 232t-264.5 90q-94 0 -215 -36v207l105 23q400 85 400 324q0 118 -89.5 188.5t-243.5 70.5q-177 0 -344 -92v222q164 79 366 79q262 0 409 -122.5t147 -324.5q0 -271 -280 -381v-9q167 -40 264 -162 t97 -294q0 -267 -231.5 -456t-579.5 -189q-119 0 -210 17z"/>
<glyph glyph-name="uni021D" horiz-adv-x="939" unicode="ȝ" d="M30 -464v189q78 -20 178 -20q196 0 322 87t126 225q0 109 -76 176t-206 67q-88 0 -182 -32v185l90 16q149 27 231.5 93t82.5 154t-69 138t-197 50q-153 0 -297 -80v198q140 66 324 66q217 0 343 -98.5t126 -255.5q0 -193 -224 -299v-7q132 -29 211.5 -125.5t79.5 -232.5 q0 -220 -189 -365t-489 -145q-114 0 -185 16z"/>
<glyph glyph-name="uni021E" horiz-adv-x="1506" unicode="Ȟ" d="M1329 0h-239v622h-675v-622h-238v1434h238v-603h675v603h239v-1434zM1069 1886l-224 -327h-185l-224 327h155l160 -210l161 210h157z"/>
<glyph glyph-name="uni021F" horiz-adv-x="1192" unicode="ȟ" d="M1061 0h-232v560q0 304 -203 304q-102 0 -172 -88t-70 -225v-551h-233v1516h233v-662h4q116 194 332 194q341 0 341 -417v-631zM872 1886l-224 -327h-185l-224 327h155l160 -210l161 210h157z"/>
<glyph glyph-name="uni0220" horiz-adv-x="1547" unicode="Ƞ" d="M1372 -471h-239v1277q0 443 -324 443q-171 0 -282.5 -126.5t-111.5 -317.5v-805h-238v1434h238v-251h5q155 275 467 275q235 0 360 -154.5t125 -440.5v-1334z"/>
<glyph glyph-name="uni0221" horiz-adv-x="1345" unicode="ȡ" d="M1165 -219q60 -55 140 -55q118 0 118 71q0 67 -101 67q-96 0 -157 -83zM853 478v118q0 112 -72 189.5t-182 77.5q-129 0 -203 -97.5t-74 -269.5q0 -156 71.5 -246t192.5 -90q119 0 193 90t74 228zM1062 -384q-21 -60 -24 -97h-200q13 123 84 243q-72 114 -72 285v112h-4 q-109 -183 -336 -183q-193 0 -309 137.5t-116 374.5q0 254 127.5 407t340.5 153q202 0 293 -155h4v623h232v-1467q0 -56 12 -102q95 85 235 85q127 0 207.5 -65t80.5 -168q0 -106 -90 -176.5t-232 -70.5q-135 0 -233 64z"/>
<glyph glyph-name="uni0222" horiz-adv-x="1311" unicode="Ȣ" d="M655 775q-145 0 -241.5 -80t-96.5 -216q0 -134 99 -214.5t239 -80.5q147 0 245 80.5t98 216.5q0 135 -101 214.5t-242 79.5zM347 894q-209 106 -209 329q0 105 45 211h233q-42 -95 -42 -198q0 -109 76.5 -179.5t204.5 -70.5q130 0 208 70.5t78 179.5q0 100 -42 198h232 q44 -109 44 -212q0 -206 -211 -328q133 -53 208 -161.5t75 -249.5q0 -226 -168 -366.5t-426 -140.5q-263 0 -424.5 133.5t-161.5 359.5q0 294 280 425z"/>
<glyph glyph-name="uni0223" horiz-adv-x="1221" unicode="ȣ" d="M612 809q-130 0 -217 -88.5t-87 -235.5q0 -145 89 -235t213 -90q128 0 215 89.5t87 235.5q0 143 -88 233.5t-212 90.5zM329 910q-92 47 -145.5 144t-53.5 218q0 119 34 244h220q-29 -107 -29 -224q0 -134 68.5 -216.5t187.5 -82.5t186 83t67 216q0 117 -28 224h221 q33 -124 33 -242q0 -241 -200 -364q259 -128 259 -424q0 -224 -157 -367t-388 -143q-236 0 -384 139t-148 366q0 298 257 429z"/>
<glyph glyph-name="uni0224" horiz-adv-x="1202" unicode="Ȥ" d="M1169 -291h-221q48 83 48 155q0 136 -173 136h-786v110l788 1122h-728v202h1058v-103l-785 -1130h479q363 0 363 -299q0 -95 -43 -193z"/>
<glyph glyph-name="uni0225" horiz-adv-x="951" unicode="ȥ" d="M948 -263h-200q40 76 40 143q0 120 -146 120h-613v87l565 755h-510v182h823v-96l-552 -746h319q313 0 313 -270q0 -85 -39 -175z"/>
<glyph glyph-name="uni0226" horiz-adv-x="1375" unicode="Ȧ" d="M902 559l-199 572q-9 28 -19 90h-4q-9 -57 -20 -90l-197 -572h439zM1355 0h-261l-129 365h-564l-124 -365h-260l537 1434h268zM687 1570q-50 0 -86.5 33.5t-36.5 82.5q0 48 36 81t87 33t87 -32.5t36 -81.5q0 -48 -36 -82t-87 -34z"/>
<glyph glyph-name="uni0227" horiz-adv-x="1069" unicode="ȧ" d="M713 503l-215 -30q-100 -13 -150.5 -48.5t-50.5 -124.5q0 -65 46.5 -106.5t124.5 -41.5q106 0 175.5 74.5t69.5 187.5v89zM937 0h-225v160h-4q-106 -184 -311 -184q-151 0 -236.5 82t-85.5 217q0 290 334 338l304 43q0 219 -208 219q-183 0 -330 -126v203q162 96 374 96 q388 0 388 -382v-666zM537 1205q-50 0 -86.5 33.5t-36.5 82.5q0 48 36 81t87 33t87 -32.5t36 -81.5q0 -48 -36 -82t-87 -34z"/>
<glyph glyph-name="uni0228" horiz-adv-x="1060" unicode="Ȩ" d="M982 0h-805v1434h773v-202h-535v-406h493v-201h-493v-424h567v-201zM811 -248q0 -194 -288 -194q-47 0 -81 3v111q44 -6 71 -6q133 0 133 82q0 74 -121 74q-10 0 -39 -4v182h136v-94q87 0 138 -40.5t51 -113.5z"/>
<glyph glyph-name="uni0229" horiz-adv-x="1088" unicode="ȩ" d="M794 613q-1 125 -59 194.5t-160 69.5q-100 0 -169.5 -73t-85.5 -191h474zM1018 449h-698q4 -142 87.5 -219t229.5 -77q164 0 301 98v-187q-140 -88 -370 -88q-226 0 -354.5 139.5t-128.5 392.5q0 239 141.5 389.5t351.5 150.5t325 -135t115 -375v-89zM790 -248 q0 -194 -288 -194q-47 0 -81 3v111q44 -6 71 -6q133 0 133 82q0 74 -121 74q-10 0 -39 -4v182h136v-94q87 0 138 -40.5t51 -113.5z"/>
<glyph glyph-name="uni022A" horiz-adv-x="1548" unicode="Ȫ" d="M779 1249q-197 0 -320.5 -147t-123.5 -387q0 -239 120 -385t314 -146q206 0 325 139t119 389q0 257 -115.5 397t-318.5 140zM768 -24q-310 0 -496.5 201t-186.5 523q0 346 190 552t516 206q302 0 486.5 -200t184.5 -523q0 -351 -189 -555t-505 -204zM593 1560 q-46 0 -80 29.5t-34 73.5t31.5 73t77.5 29q45 0 77.5 -29.5t32.5 -72.5t-30.5 -73t-74.5 -30zM977 1560q-43 0 -74 29t-31 74q0 44 32 73t75 29q46 0 78 -29.5t32 -72.5t-32 -73t-80 -30zM1056 1836h-543v137h543v-137z"/>
<glyph glyph-name="uni022B" horiz-adv-x="1223" unicode="ȫ" d="M616 863q-136 0 -215 -95t-79 -262q0 -161 80 -253.5t214 -92.5q137 0 210.5 91t73.5 259q0 169 -73.5 261t-210.5 92zM605 -24q-237 0 -378.5 143.5t-141.5 380.5q0 258 147.5 403t397.5 145q240 0 374 -141t134 -391q0 -245 -144.5 -392.5t-388.5 -147.5zM426 1218 q-46 0 -80 29.5t-34 73.5t31.5 73t77.5 29q45 0 77.5 -29.5t32.5 -72.5t-30.5 -73t-74.5 -30zM810 1218q-43 0 -74 29t-31 74q0 44 32 73t75 29q46 0 78 -29.5t32 -72.5t-32 -73t-80 -30zM889 1494h-543v137h543v-137z"/>
<glyph glyph-name="uni022C" horiz-adv-x="1548" unicode="Ȭ" d="M779 1249q-197 0 -320.5 -147t-123.5 -387q0 -239 120 -385t314 -146q206 0 325 139t119 389q0 257 -115.5 397t-318.5 140zM768 -24q-310 0 -496.5 201t-186.5 523q0 346 190 552t516 206q302 0 486.5 -200t184.5 -523q0 -351 -189 -555t-505 -204zM1035 1934h-543v128 h543v-128zM1106 1843q0 -116 -51.5 -189.5t-139.5 -73.5q-72 0 -165 48q-78 45 -121 45q-84 0 -84 -111h-115q0 119 51 190.5t143 71.5q68 0 157 -51q72 -44 125 -44q81 0 81 114h119z"/>
<glyph glyph-name="uni022D" horiz-adv-x="1223" unicode="ȭ" d="M616 863q-136 0 -215 -95t-79 -262q0 -161 80 -253.5t214 -92.5q137 0 210.5 91t73.5 259q0 169 -73.5 261t-210.5 92zM605 -24q-237 0 -378.5 143.5t-141.5 380.5q0 258 147.5 403t397.5 145q240 0 374 -141t134 -391q0 -245 -144.5 -392.5t-388.5 -147.5zM885 1554 h-543v128h543v-128zM956 1463q0 -116 -51.5 -189.5t-139.5 -73.5q-72 0 -165 48q-78 45 -121 45q-84 0 -84 -111h-115q0 119 51 190.5t143 71.5q68 0 157 -51q72 -44 125 -44q81 0 81 114h119z"/>
<glyph glyph-name="uni022E" horiz-adv-x="1548" unicode="Ȯ" d="M779 1249q-197 0 -320.5 -147t-123.5 -387q0 -239 120 -385t314 -146q206 0 325 139t119 389q0 257 -115.5 397t-318.5 140zM768 -24q-310 0 -496.5 201t-186.5 523q0 346 190 552t516 206q302 0 486.5 -200t184.5 -523q0 -351 -189 -555t-505 -204zM773 1570 q-50 0 -86.5 33.5t-36.5 82.5q0 48 36 81t87 33t87 -32.5t36 -81.5q0 -48 -36 -82t-87 -34z"/>
<glyph glyph-name="uni022F" horiz-adv-x="1223" unicode="ȯ" d="M616 863q-136 0 -215 -95t-79 -262q0 -161 80 -253.5t214 -92.5q137 0 210.5 91t73.5 259q0 169 -73.5 261t-210.5 92zM605 -24q-237 0 -378.5 143.5t-141.5 380.5q0 258 147.5 403t397.5 145q240 0 374 -141t134 -391q0 -245 -144.5 -392.5t-388.5 -147.5zM610 1205 q-50 0 -86.5 33.5t-36.5 82.5q0 48 36 81t87 33t87 -32.5t36 -81.5q0 -48 -36 -82t-87 -34z"/>
<glyph glyph-name="uni0230" horiz-adv-x="1548" unicode="Ȱ" d="M779 1249q-197 0 -320.5 -147t-123.5 -387q0 -239 120 -385t314 -146q206 0 325 139t119 389q0 257 -115.5 397t-318.5 140zM768 -24q-310 0 -496.5 201t-186.5 523q0 346 190 552t516 206q302 0 486.5 -200t184.5 -523q0 -351 -189 -555t-505 -204zM808 1575 q-44 0 -76 29.5t-32 73.5q0 43 32 72t76 29q46 0 77.5 -29t31.5 -72t-31.5 -73t-77.5 -30zM1080 1848h-543v137h543v-137z"/>
<glyph glyph-name="uni0231" horiz-adv-x="1223" unicode="ȱ" d="M616 863q-136 0 -215 -95t-79 -262q0 -161 80 -253.5t214 -92.5q137 0 210.5 91t73.5 259q0 169 -73.5 261t-210.5 92zM605 -24q-237 0 -378.5 143.5t-141.5 380.5q0 258 147.5 403t397.5 145q240 0 374 -141t134 -391q0 -245 -144.5 -392.5t-388.5 -147.5zM614 1218 q-44 0 -76 29.5t-32 73.5q0 43 32 72t76 29q46 0 77.5 -29t31.5 -72t-31.5 -73t-77.5 -30zM886 1491h-543v137h543v-137z"/>
<glyph glyph-name="uni0232" horiz-adv-x="1182" unicode="Ȳ" d="M1176 1434l-470 -913v-521h-238v516l-458 918h271l282 -615q5 -11 30 -83h3q9 32 33 83l295 615h252zM863 1575h-543v137h543v-137z"/>
<glyph glyph-name="uni0233" horiz-adv-x="1041" unicode="ȳ" d="M1038 1024l-462 -1188q-144 -318 -404 -318q-73 0 -122 13v193q55 -18 100 -18q130 0 194 128l69 168l-407 1022h257l244 -744q4 -14 18 -74h5q5 23 18 72l256 746h234zM792 1214h-543v137h543v-137z"/>
<glyph glyph-name="uni0234" horiz-adv-x="645" unicode="ȴ" d="M466 -219q58 -56 136 -56q121 0 121 71q0 67 -99 67q-97 0 -158 -82zM362 -384q-21 -61 -24 -98h-199q13 123 84 243q-72 114 -72 286v1469h233v-1466q0 -57 10 -104q94 89 231 89q133 0 213 -67t80 -170q0 -105 -91 -175.5t-232 -70.5q-133 0 -233 64z"/>
<glyph glyph-name="uni0235" horiz-adv-x="1325" unicode="ȵ" d="M1147 -219q57 -56 136 -56q120 0 120 71q0 67 -99 67q-97 0 -157 -82zM1042 -384q-20 -61 -23 -98h-200q13 123 85 243q-72 114 -72 286v530q0 287 -208 287q-104 0 -172 -79.5t-68 -200.5v-584h-233v1024h233v-166h4q115 190 332 190q167 0 255.5 -108.5t88.5 -313.5 v-576q0 -57 10 -104q94 89 232 89q130 0 211.5 -66.5t81.5 -170.5q0 -105 -91 -175.5t-231 -70.5q-134 0 -235 64z"/>
<glyph glyph-name="uni0236" horiz-adv-x="740" unicode="ȶ" d="M529 -219q57 -56 135 -56q122 0 122 71q0 67 -99 67q-98 0 -158 -82zM425 -384q-21 -61 -24 -98h-200q14 123 85 243q-72 114 -72 286v795h-172v182h172v237l232 70v-307h245v-182h-245v-792q0 -57 11 -104q93 89 231 89q129 0 211 -66.5t82 -170.5q0 -105 -90.5 -175.5 t-232.5 -70.5q-133 0 -233 64z"/>
<glyph glyph-name="uni0237" horiz-adv-x="535" unicode="ȷ" d="M383 31q0 -246 -106 -379t-303 -133q-73 0 -142 31v196q68 -42 129 -42q190 0 190 302v1018h232v-993z"/>
<glyph glyph-name="uni0238" horiz-adv-x="1933" unicode="ȸ" d="M1080 564v-134q0 -113 71 -191.5t181 -78.5q130 0 203.5 101t73.5 280q0 151 -69 236.5t-187 85.5q-123 0 -198 -90q-72 -84 -75 -209zM853 470v126q0 112 -72 189.5t-182 77.5q-129 0 -203 -97.5t-74 -269.5q0 -156 71.5 -246t192.5 -90q119 0 192 92q71 87 75 218z M1086 134h-4v-134h-230v159h-6q-109 -183 -336 -183q-193 0 -309 137.5t-116 374.5q0 254 130.5 407t348.5 153q194 0 282 -155h4v623h232v-661h4q118 193 345 193q195 0 305.5 -138t110.5 -369q0 -257 -124 -411t-339 -154q-197 0 -298 158z"/>
<glyph glyph-name="uni0239" horiz-adv-x="1933" unicode="ȹ" d="M1080 564v-134q0 -113 71 -191.5t181 -78.5q130 0 203.5 101t73.5 280q0 147 -69 234.5t-187 87.5q-123 0 -199 -90q-71 -84 -74 -209zM853 470v126q0 112 -72 189.5t-182 77.5q-129 0 -203 -97.5t-74 -269.5q0 -156 71.5 -246t192.5 -90q119 0 192 92q71 87 75 218z M1086 134h-4v-605h-232v630h-4q-109 -183 -336 -183q-193 0 -309 137.5t-116 374.5q0 254 127.5 407t340.5 153q201 0 293 -155h4v131h232v-169h4q118 193 345 193q195 0 305.5 -138t110.5 -369q0 -257 -124 -411t-339 -154q-197 0 -298 158z"/>
<glyph glyph-name="uni023A" horiz-adv-x="1375" unicode="Ⱥ" d="M902 559l-199 572q-9 28 -19 90h-4q-9 -57 -20 -90l-197 -572h439zM1355 0h-261l-129 365h-564l-124 -365h-260l537 1434h268zM1264 1584l-1078 -1734h-164l1078 1734h164z"/>
<glyph glyph-name="uni023B" horiz-adv-x="1272" unicode="Ȼ" d="M1177 60q-162 -84 -403 -84q-312 0 -500 197t-188 517q0 344 211.5 556t534.5 212q208 0 345 -59v-236q-145 86 -320 86q-233 0 -377.5 -149t-144.5 -398q0 -237 135 -377.5t355 -140.5q203 0 352 96v-220zM1264 1584l-1078 -1734h-164l1078 1734h164z"/>
<glyph glyph-name="uni023C" horiz-adv-x="963" unicode="ȼ" d="M884 47q-123 -71 -291 -71q-228 0 -368 142.5t-140 369.5q0 253 150.5 406.5t402.5 153.5q140 0 247 -49v-216q-107 80 -228 80q-147 0 -241 -99.5t-94 -260.5q0 -159 88.5 -251t237.5 -92q125 0 236 89v-202zM1076 1233l-875 -1434h-189l873 1434h191z"/>
<glyph glyph-name="uni023D" horiz-adv-x="1001" unicode="Ƚ" d="M971 0h-794v1434h238v-1233h556v-201zM567 683h-543v137h543v-137z"/>
<glyph glyph-name="uni023E" horiz-adv-x="1130" unicode="Ⱦ" d="M1097 1232h-412v-1232h-238v1232h-411v202h1061v-202zM1253 1584l-1078 -1734h-164l1078 1734h164z"/>
<glyph glyph-name="uni023F" horiz-adv-x="883" unicode="ȿ" d="M711 -329q-61 -37 -159 -37q-140 0 -210 164q-63 141 -214 214q-21 9 -41 20v212q135 -96 298 -96q200 0 200 121q0 34 -17 58t-46 42.5t-68 33t-84 30.5q-70 28 -122.5 56t-88 63.5t-53.5 80.5t-18 106q0 75 35 133t93.5 97t133.5 59t155 20q143 0 255 -43v-201 q-113 72 -261 72q-41 0 -74 -8.5t-56.5 -24t-36.5 -37.5t-13 -48q0 -33 12.5 -55t36.5 -39t58 -31t78 -30q72 -27 129 -55t97.5 -63.5t62 -82t21.5 -110.5q0 -81 -34.5 -140t-92 -98.5t-132.5 -58.5q-66 -16 -136 -19q33 -34 54 -86q42 -85 95 -85q72 0 143 40v-174z"/>
<glyph glyph-name="uni0240" horiz-adv-x="951" unicode="ɀ" d="M904 -329q-58 -37 -150 -37q-150 0 -302.5 183t-330.5 183h-92v87l565 755h-510v182h823v-96l-572 -772q114 -39 224 -174q133 -153 202 -153q72 0 143 40v-198z"/>
<glyph glyph-name="uni0241" horiz-adv-x="1123" unicode="Ɂ" d="M648 0h-231v500q0 133 47.5 213t186.5 186q129 95 163 145t34 106q0 82 -90.5 137.5t-300.5 55.5q-231 0 -409 -80v208q172 67 409 67q318 0 471.5 -106t153.5 -268q0 -95 -54 -178.5t-230 -212.5q-84 -66 -117 -122t-33 -151v-500z"/>
<glyph glyph-name="uni0242" horiz-adv-x="756" unicode="ɂ" d="M709 139h-711v149h197q0 69 8.5 120.5t30 97t59 89.5t94.5 98q47 44 76 80t45.5 66t22.5 54.5t6 45.5q0 91 -68.5 142t-190.5 51q-144 0 -281 -80v208q142 68 308 68q108 0 194.5 -28.5t147 -78.5t93 -118.5t32.5 -149.5q0 -47 -10.5 -91t-34.5 -88.5t-63 -91.5t-96 -99 q-36 -33 -62.5 -61.5t-44 -61.5t-26 -74t-8.5 -98h282v-149z"/>
<glyph glyph-name="uni0243" horiz-adv-x="1237" unicode="Ƀ" d="M573 835q121 0 190.5 58t69.5 164q0 186 -258 186h-161v-408h159zM619 190q132 0 205 61.5t73 170.5t-75.5 165.5t-221.5 56.5h-186v-147h221v-155h-221v-152h205zM177 342h-149v155h149v937h459q105 0 187.5 -23.5t140 -67t88 -104.5t30.5 -137q0 -59 -18.5 -111.5 t-53 -96t-83 -75.5t-107.5 -50v-4q74 -9 134 -37.5t103 -73.5t66.5 -104.5t23.5 -130.5q0 -96 -36 -173t-101 -132t-155.5 -84.5t-199.5 -29.5h-478v342z"/>
<glyph glyph-name="uni0244" horiz-adv-x="1440" unicode="Ʉ" d="M725 184q317 0 317 386v74h-644v-61q0 -399 327 -399zM1280 598q0 -622 -570 -622q-550 0 -550 603v65h-130v176h130v614h238v-614h644v614h238v-614h130v-176h-130v-46z"/>
<glyph glyph-name="uni0245" horiz-adv-x="1346" unicode="Ʌ" d="M1325 0h-261l-363 1100q-16 47 -28 118h-5q-10 -62 -30 -117l-365 -1101h-255l518 1434h281z"/>
<glyph glyph-name="uni0246" horiz-adv-x="1060" unicode="Ɇ" d="M982 0h-805v1434h773v-202h-535v-406h493v-201h-493v-424h567v-201zM957 1528l-688 -1672h-114l686 1672h116z"/>
<glyph glyph-name="uni0247" horiz-adv-x="1088" unicode="ɇ" d="M794 613q-1 125 -59 194.5t-160 69.5q-100 0 -169.5 -73t-85.5 -191h474zM1018 449h-698q4 -142 87.5 -219t229.5 -77q164 0 301 98v-187q-140 -88 -370 -88q-226 0 -354.5 139.5t-128.5 392.5q0 239 141.5 389.5t351.5 150.5t325 -135t115 -375v-89zM972 1342 l-688 -1672h-114l686 1672h116z"/>
<glyph glyph-name="uni0248" horiz-adv-x="812" unicode="Ɉ" d="M648 538q0 -133 -31.5 -237.5t-90.5 -176.5t-142.5 -110t-188.5 -38q-96 0 -170 30v227q67 -49 161 -49q68 0 111.5 33.5t68.5 85.5t34.5 116t9.5 124v99h-221v176h221v616h238v-616h134v-176h-134v-104z"/>
<glyph glyph-name="uni0249" horiz-adv-x="535" unicode="ɉ" d="M269 1239q-57 0 -97.5 37t-40.5 94t40.5 95t97.5 38q58 0 99 -38t41 -95q0 -54 -41 -92.5t-99 -38.5zM383 43q0 -252 -106 -388.5t-303 -136.5q-73 0 -142 32v199q65 -45 123 -45q196 0 196 346v374h-123v145h123v455h232v-455h122v-145h-122v-381z"/>
<glyph glyph-name="uni024A" horiz-adv-x="1534" unicode="Ɋ" d="M1357 19q0 -37 8 -75t27 -69.5t49.5 -51.5t76.5 -20q59 0 117 33v-199q-68 -25 -143 -25q-88 0 -155.5 27.5t-113.5 80t-69.5 128.5t-23.5 173v192q-86 -118 -198 -177.5t-261 -59.5q-133 0 -241.5 53t-185 149t-118 229t-41.5 293q0 173 42 313t120.5 239t191 152.5 t252.5 53.5q129 0 236 -53.5t201 -175.5v205h229v-1415zM732 1248q-88 0 -161.5 -39t-126 -109.5t-81.5 -168.5t-29 -216t28 -216t79 -168t122.5 -108.5t158.5 -38.5q92 0 165.5 35.5t125 103.5t79 166t27.5 223v13q-1 125 -28 222.5t-77.5 164t-121.5 101.5t-160 35z"/>
<glyph glyph-name="uni024B" horiz-adv-x="1234" unicode="ɋ" d="M586 160q59 0 108 24t84.5 66.5t55 100.5t19.5 127v118q0 56 -19 104.5t-52.5 84.5t-80 57t-102.5 21q-64 0 -115.5 -25t-87.5 -72t-55 -115.5t-19 -154.5q0 -79 18 -141t52 -105.5t83 -66.5t111 -23zM510 -24q-97 0 -176 35.5t-134 101.5t-85 161t-30 214 q0 126 33.5 229t95 176.5t147.5 114t192 40.5q205 0 293 -155h4v131h232v-1005q0 -216 161 -216q58 0 116 33v-199q-68 -25 -143 -25q-89 0 -157.5 28t-115 80.5t-70 128.5t-23.5 172v138h-4q-110 -183 -336 -183z"/>
<glyph glyph-name="uni024C" horiz-adv-x="1275" unicode="Ɍ" d="M414 1241v-466h147q66 0 122.5 15t97 45.5t63.5 77t23 109.5q0 106 -65.5 162.5t-194.5 56.5h-193zM1117 1048q0 -75 -22.5 -138t-64.5 -113t-101 -85.5t-132 -55.5v-4q34 -13 62.5 -34.5t54.5 -50t50.5 -64t49.5 -76.5l269 -427h-276q-59 97 -117 193.5t-116 193.5 q-29 50 -56.5 86.5t-56 60.5t-60.5 36t-71 12h-116v-582h-237v592h-150v175h150v667h466q110 0 198 -24t149.5 -72t94 -120.5t32.5 -169.5z"/>
<glyph glyph-name="uni024D" horiz-adv-x="758" unicode="ɍ" d="M608 333h-225v-333h-232v333h-123v155h123v536h232v-202h4q36 107 105.5 163.5t163.5 56.5q56 0 89 -14v-224q-48 32 -128 32q-54 0 -97.5 -24t-73.5 -69t-46.5 -109.5t-16.5 -145.5h225v-155z"/>
<glyph glyph-name="uni024E" horiz-adv-x="1182" unicode="Ɏ" d="M561 837q7 -16 35 -101h3q6 26 14.5 50.5t20.5 48.5l84 168h-237zM1176 1434l-132 -255h108v-176h-197l-249 -482v-521h-238v516l-244 487h-195v176h108l-127 255h271l119 -255h401l123 255h252z"/>
<glyph glyph-name="uni024F" horiz-adv-x="1041" unicode="ɏ" d="M502 310q2 -6 5.5 -20t7.5 -29.5t7 -30.5t4 -24h5q3 20 9.5 45t16.5 57l87 251h-227zM1038 1024l-124 -319h98v-146h-154l-266 -686q-137 -355 -398 -355q-45 0 -80 5t-64 14v195q57 -27 115 -27q124 0 179 133l69 164l-222 557h-162v146h103l-126 319h257l107 -319h323 l111 319h234z"/>
<glyph glyph-name="uni0250" horiz-adv-x="1065" unicode="ɐ" d="M345 520l217 29q96 13 147.5 48t51.5 125q0 67 -46 108t-124 41q-108 0 -177 -75.5t-69 -187.5v-88zM345 367q0 -219 200 -219q189 0 340 118v-199q-58 -37 -165 -64t-202 -27q-395 0 -395 458v590h224v-155q106 179 315 179q152 0 237.5 -82.5t85.5 -219.5 q0 -289 -334 -336z"/>
<glyph glyph-name="uni0251" horiz-adv-x="1234" unicode="ɑ" d="M853 471v125q0 112 -72 189.5t-182 77.5q-129 0 -203 -97.5t-74 -269.5q0 -156 71.5 -246t192.5 -90q119 0 193 88t74 223zM1082 0h-232v159h-4q-109 -183 -336 -183q-193 0 -309 137.5t-116 374.5q0 254 127.5 407t340.5 153q201 0 293 -155h4v131h232v-1024z"/>
<glyph glyph-name="uni0252" horiz-adv-x="1249" unicode="ɒ" d="M364 596v-125q0 -130 75 -220.5t190 -90.5q124 0 195 88t71 248q0 170 -75.5 268.5t-203.5 98.5q-114 0 -183 -76t-69 -191zM371 159h-4v-159h-232v1024h232v-131h4q100 155 293 155q220 0 344 -152t124 -408q0 -232 -114 -372t-311 -140q-222 0 -336 183z"/>
<glyph glyph-name="uni0253" horiz-adv-x="1233" unicode="ɓ" d="M382 556v-126q0 -113 71.5 -191.5t181.5 -78.5q129 0 203.5 101t74.5 280q0 150 -69.5 236t-188.5 86q-123 0 -198 -87.5t-75 -219.5zM388 134h-4v-134h-233v1023q0 259 135 387t369 128q132 0 252 -46v-197q-123 58 -250 58q-122 0 -197.5 -68.5t-75.5 -270.5v-159h4 q117 193 343 193q195 0 305.5 -138t110.5 -369q0 -265 -122.5 -422t-335.5 -157q-198 0 -301 172z"/>
<glyph glyph-name="uni0254" horiz-adv-x="965" unicode="ɔ" d="M84 28v211q114 -79 238 -79q143 0 233 99.5t90 257.5q0 159 -86.5 252.5t-232.5 93.5q-126 0 -243 -79v199q125 65 290 65q227 0 367 -142t140 -371q0 -255 -147.5 -407t-395.5 -152q-143 0 -253 52z"/>
<glyph glyph-name="uni0255" horiz-adv-x="985" unicode="ɕ" d="M462 188q67 -42 152 -42q75 0 118.5 22.5t43.5 60.5q0 71 -106 71q-123 0 -208 -112zM376 19q-26 -77 -31 -162h-176q13 140 62 257q-146 140 -146 374q0 253 150 406.5t401 153.5q140 0 247 -49v-213q-109 78 -234 78q-144 0 -236.5 -99t-92.5 -260q0 -116 45 -191 q131 149 309 149q124 0 203 -65.5t79 -164.5q0 -111 -101.5 -184t-267.5 -73q-116 0 -211 43z"/>
<glyph glyph-name="uni0256" horiz-adv-x="1233" unicode="ɖ" d="M853 480v115q0 112 -71 190t-184 78q-132 0 -205 -99t-73 -270q0 -152 71.5 -243t190.5 -91q120 0 195.5 91t75.5 229zM1335 -449q-83 -32 -167 -32q-152 0 -235.5 90.5t-83.5 254.5v298h-4q-108 -186 -335 -186q-194 0 -309.5 139.5t-115.5 371.5q0 256 130.5 408.5 t345.5 152.5q192 0 284 -156h4v624h232v-1630q0 -182 146 -182q57 0 108 28v-181z"/>
<glyph glyph-name="uni0257" horiz-adv-x="1233" unicode="ɗ" d="M853 480v115q0 112 -71 190t-184 78q-132 0 -205 -99t-73 -270q0 -152 71.5 -243t190.5 -91q120 0 195.5 91t75.5 229zM1335 1327q-54 26 -108 26q-146 0 -146 -200v-1153h-232v162h-4q-108 -186 -335 -186q-194 0 -309.5 139.5t-115.5 371.5q0 256 129 408.5t341 152.5 q196 0 290 -156h4v316q0 150 97.5 240t247.5 90q85 0 141 -20v-191z"/>
<glyph glyph-name="uni0258" horiz-adv-x="1088" unicode="ɘ" d="M767 612q-34 264 -246 264q-106 0 -165.5 -71t-61.5 -193h473zM153 53l-4 197q149 -98 324 -98q140 0 217 78.5t80 217.5h-701v89q0 233 122 372t335 139q215 0 345.5 -144t130.5 -398q0 -244 -138.5 -387t-368.5 -143q-193 0 -342 77z"/>
<glyph glyph-name="uni0259" horiz-adv-x="1088" unicode="ə" d="M768 411h-474q2 -124 59 -194t162 -70q99 0 168.5 73t84.5 191zM70 575h698q-4 142 -85.5 219.5t-224.5 77.5q-169 0 -309 -99v187q136 88 363 88q229 0 359.5 -137.5t130.5 -389.5q0 -244 -140.5 -394.5t-348.5 -150.5q-213 0 -328 136t-115 374v89z"/>
<glyph glyph-name="uni025A" horiz-adv-x="1285" unicode="ɚ" d="M757 614l-463 -256q9 -90 68 -150.5t150 -60.5q125 0 194.5 90.5t69.5 248.5q0 73 -19 128zM1334 669q-58 -29 -111 -29q-132 0 -190 126l-69 -38q35 -95 35 -220q0 -241 -141 -386.5t-358 -145.5q-196 0 -308.5 116t-125.5 331l620 341q-85 107 -243 107 q-154 0 -297 -98v189q157 86 345 86q251 0 391 -176l220 121l34 -103q35 -104 113 -104q43 0 85 28v-145z"/>
<glyph glyph-name="uni025B" horiz-adv-x="876" unicode="ɛ" d="M798 21q-120 -45 -280 -45q-209 0 -326 82t-117 219q0 202 224 256v4q-187 62 -187 226q0 128 114.5 206.5t300.5 78.5q139 0 250 -39v-190q-110 50 -236 50q-88 0 -141 -33.5t-53 -89.5q0 -63 65.5 -99t178.5 -36h75v-176h-78q-279 0 -279 -141q0 -64 63 -102t175 -38 q135 0 251 56v-189z"/>
<glyph glyph-name="uni025C" horiz-adv-x="876" unicode="ɜ" d="M77 20v192q115 -57 259 -57q108 0 169 38.5t61 99.5q0 142 -269 142h-88v176h76q114 0 180 36t66 96q0 126 -198 126q-120 0 -235 -49v189q123 39 262 39q184 0 293.5 -77.5t109.5 -204.5q0 -159 -185 -226v-4q221 -49 221 -245q0 -140 -124.5 -227.5t-337.5 -87.5 q-143 0 -260 44z"/>
<glyph glyph-name="uni025D" horiz-adv-x="1068" unicode="ɝ" d="M1112 669q-60 -29 -109 -29q-116 0 -174 104l-80 -82q-81 -81 -169 -121v-4q219 -51 219 -247q0 -140 -125 -227t-338 -87q-143 0 -260 43v193q114 -66 255 -66q111 0 173 44.5t62 102.5q0 142 -269 142h-88v176h77q109 0 176.5 37t67.5 95q0 126 -197 126 q-120 0 -235 -49v189q120 39 255 39q320 0 389 -202l138 147l31 -93q38 -114 114 -114q42 0 87 28v-145z"/>
<glyph glyph-name="uni025E" horiz-adv-x="1192" unicode="ɞ" d="M581 434v176h62q221 0 221 129q0 57 -59 93.5t-154 36.5q-152 0 -241.5 -95t-89.5 -266q0 -164 89 -259t236 -95q110 0 173.5 39.5t63.5 100.5q0 140 -237 140h-64zM914 540v-4q202 -47 202 -241q0 -139 -131 -229t-351 -90q-254 0 -401.5 142t-147.5 383q0 251 158 399 t413 148q195 0 316.5 -80t121.5 -207q0 -156 -180 -221z"/>
<glyph glyph-name="uni025F" horiz-adv-x="655" unicode="ɟ" d="M618 447h-174v-493q0 -208 -104 -322t-289 -114q-81 0 -141 32v187q59 -33 122 -33q180 0 180 242v501h-174v181h174v396h232v-396h174v-181z"/>
<glyph glyph-name="uni0260" horiz-adv-x="1233" unicode="ɠ" d="M853 466v131q0 110 -72.5 188t-180.5 78q-131 0 -205.5 -98t-74.5 -275q0 -150 72 -240t190 -90q120 0 195.5 86t75.5 220zM1335 1327q-54 26 -108 26q-146 0 -146 -186v-1093q0 -555 -585 -555q-188 0 -329 66v210q170 -94 325 -94q359 0 359 361v98h-4 q-112 -184 -338 -184q-191 0 -307.5 135t-116.5 369q0 261 124.5 414.5t341.5 153.5q198 0 294 -156h4v280q0 167 97.5 266.5t247.5 99.5q85 0 141 -20v-191z"/>
<glyph glyph-name="uni0261" horiz-adv-x="1234" unicode="ɡ" d="M853 469v133q0 108 -71.5 184.5t-178.5 76.5q-132 0 -206.5 -97.5t-74.5 -272.5q0 -151 71.5 -241.5t189.5 -90.5q120 0 195 86.5t75 221.5zM1083 82q0 -564 -567 -564q-200 0 -349 67v212q168 -96 319 -96q365 0 365 359v112h-4q-115 -196 -346 -196 q-187 0 -301.5 136.5t-114.5 366.5q0 261 123 415t338 154q203 0 301 -166h4v142h232v-942z"/>
<glyph glyph-name="uni0262" horiz-adv-x="1102" unicode="ɢ" d="M998 61q-184 -85 -377 -85q-244 0 -390 139.5t-146 379.5q0 241 162 397t418 156q155 0 285 -44v-203q-129 62 -290 62q-151 0 -245.5 -99t-94.5 -259q0 -162 85 -253.5t230 -91.5q81 0 137 23v216h-205v182h431v-520z"/>
<glyph glyph-name="uni0263" horiz-adv-x="1079" unicode="ɣ" d="M529 26q-62 -126 -62 -192q0 -89 62 -89t62 89q0 58 -62 192zM1070 1024l-411 -822l39 -71q107 -196 107 -304q0 -114 -77.5 -190t-200.5 -76q-122 0 -199 76t-77 190q0 94 111 305l38 71l-406 821h253l283 -613l287 613h253z"/>
<glyph glyph-name="uni0264" horiz-adv-x="1021" unicode="ɤ" d="M511 580q-94 -148 -94 -286q0 -139 94 -139t94 139q0 133 -94 286zM1010 818q-76 45 -132 45q-107 0 -222 -149q164 -221 164 -408q0 -149 -84 -239.5t-231 -90.5q-143 0 -224.5 86.5t-81.5 228.5q0 200 164 423q-118 149 -223 149q-70 0 -130 -44v195q69 34 149 34 q173 0 352 -190q180 190 352 190q79 0 147 -34v-196z"/>
<glyph glyph-name="uni0265" horiz-adv-x="1189" unicode="ɥ" d="M1038 -471h-232v633h-4q-117 -186 -328 -186q-344 0 -344 417v631h230v-583q0 -278 203 -278q103 0 173 80t70 202v579h232v-1495z"/>
<glyph glyph-name="uni0266" horiz-adv-x="1189" unicode="ɦ" d="M1059 0h-230v583q0 277 -205 277q-102 0 -171.5 -79t-69.5 -202v-579h-232v1012q0 264 134.5 395t368.5 131q132 0 252 -46v-197q-123 58 -250 58q-122 0 -197.5 -68.5t-75.5 -270.5v-152h4q115 186 327 186q345 0 345 -418v-630z"/>
<glyph glyph-name="uni0267" horiz-adv-x="1189" unicode="ɧ" d="M1059 -37q0 -214 -97.5 -329t-273.5 -115q-86 0 -147 25v193q57 -33 120 -33q166 0 166 248v631q0 277 -203 277q-102 0 -171.5 -79t-69.5 -202v-579h-232v1012q0 264 134.5 395t368.5 131q132 0 252 -46v-197q-123 58 -250 58q-122 0 -197.5 -68.5t-75.5 -270.5v-152h4 q115 186 327 186q345 0 345 -418v-667z"/>
<glyph glyph-name="uni0268" horiz-adv-x="629" unicode="ɨ" d="M604 464h-174v-464h-232v464h-176v168h176v392h232v-392h174v-168zM317 1239q-58 0 -100 37.5t-42 95.5q0 56 42 93.5t100 37.5q61 0 101 -37.5t40 -93.5q0 -55 -40 -94t-101 -39z"/>
<glyph glyph-name="uni0269" horiz-adv-x="619" unicode="ɩ" d="M608 10q-68 -33 -177 -33q-294 0 -294 319v728h231v-688q0 -175 137 -175q60 0 103 31v-182z"/>
<glyph glyph-name="uni026A" horiz-adv-x="732" unicode="ɪ" d="M652 0h-573v182h171v660h-171v182h573v-182h-170v-660h170v-182z"/>
<glyph glyph-name="uni026B" horiz-adv-x="710" unicode="ɫ" d="M716 711q-73 -69 -167 -69q-38 0 -82 10v-652h-232v716q-51 13 -77 13q-85 0 -165 -84v188q78 69 172 69q32 0 70 -8v622h232v-686q49 -13 88 -13q84 0 161 84v-190z"/>
<glyph glyph-name="uni026C" horiz-adv-x="786" unicode="ɬ" d="M316 814q-3 54 -35 91t-76 37q-62 0 -62 -59q0 -69 118 -69h55zM774 650h-226v-650h-232v650h-65q-134 0 -207 60t-73 166q0 86 59 146.5t149 60.5q82 0 137 -54v487h232v-702h226v-164z"/>
<glyph glyph-name="uni026D" horiz-adv-x="534" unicode="ɭ" d="M637 -450q-81 -32 -166 -32q-154 0 -237 89t-83 251v1658h233v-1630q0 -182 146 -182q57 0 107 27v-181z"/>
<glyph glyph-name="uni026E" horiz-adv-x="1338" unicode="ɮ" d="M364 -399v210q164 -106 339 -106q163 0 267.5 81t104.5 210q0 134 -108.5 208t-308.5 74h-80v87l369 477h-564v-842h-232v1516h232v-492h863v-99l-379 -484q212 -26 327.5 -143.5t115.5 -296.5q0 -209 -171.5 -344.5t-432.5 -135.5q-185 0 -342 80z"/>
<glyph glyph-name="uni026F" horiz-adv-x="1814" unicode="ɯ" d="M1675 0h-233v161h-4q-109 -182 -319 -182q-108 0 -188 55t-110 144q-112 -202 -335 -202q-343 0 -343 414v634h232v-587q0 -146 46 -211.5t154 -65.5q91 0 154.5 83.5t63.5 200.5v580h232v-600q0 -264 201 -264q94 0 155 79.5t61 206.5v578h233v-1024z"/>
<glyph glyph-name="uni0270" horiz-adv-x="1814" unicode="ɰ" d="M1675 -471h-233v632h-4q-111 -181 -325 -181q-106 0 -184.5 54.5t-107.5 143.5q-114 -202 -341 -202q-337 0 -337 417v631h232v-587q0 -147 46 -212t154 -65q91 0 154.5 83.5t63.5 200.5v580h232v-600q0 -264 201 -264q94 0 155 79.5t61 206.5v578h233v-1495z"/>
<glyph glyph-name="uni0271" horiz-adv-x="1814" unicode="ɱ" d="M1450 -11v597q0 146 -46 211.5t-154 65.5q-90 0 -153.5 -83.5t-63.5 -200.5v-579h-233v599q0 264 -200 264q-94 0 -155.5 -79.5t-61.5 -206.5v-577h-232v1024h232v-162h4q108 183 316 183q109 0 190 -55t111 -145q115 203 342 203q336 0 336 -415v-646 q0 -225 -97.5 -346.5t-273.5 -121.5q-86 0 -147 25v193q57 -33 120 -33q166 0 166 285z"/>
<glyph glyph-name="uni0272" horiz-adv-x="1182" unicode="ɲ" d="M1063 0h-233v577q0 286 -205 286q-104 0 -173 -79t-69 -200l-1 -682q0 -175 -97 -279t-247 -104q-85 0 -140 21v190q53 -26 106 -26q147 0 147 186v1134h232v-167h4q115 191 334 191q342 0 342 -422v-626z"/>
<glyph glyph-name="uni0273" horiz-adv-x="1182" unicode="ɳ" d="M1318 -450q-82 -32 -167 -32q-154 0 -236.5 90.5t-82.5 254.5v714q0 287 -207 287q-104 0 -172.5 -79.5t-68.5 -200.5v-584h-233v1024h233v-166h4q114 190 333 190q343 0 343 -422v-740q0 -182 146 -182q58 0 108 27v-181z"/>
<glyph glyph-name="uni0274" horiz-adv-x="1226" unicode="ɴ" d="M1074 0h-226l-424 623q-42 64 -55 94h-3q3 -61 4 -150v-567h-219v1024h241l411 -603q36 -53 54 -92h4q-6 51 -6 114v581h219v-1024z"/>
<glyph glyph-name="uni0275" horiz-adv-x="1218" unicode="ɵ" d="M893 435h-567q9 -129 85.5 -202t202.5 -73q262 0 279 275zM892 600q-26 263 -279 263q-120 0 -195.5 -68.5t-90.5 -194.5h565zM603 -24q-236 0 -377 144.5t-141 382.5q0 257 145.5 401t392.5 144q240 0 375 -140t135 -388q0 -247 -144 -395.5t-386 -148.5z"/>
<glyph glyph-name="uni0276" horiz-adv-x="1457" unicode="ɶ" d="M767 191v644q-84 29 -155 29q-131 0 -211 -99.5t-80 -257.5q0 -157 76.5 -252.5t210.5 -95.5q76 0 159 32zM1389 0h-538l-263 -23q-233 0 -368 144t-135 379q0 244 140 395.5t376 151.5q45 0 186 -23h579v-182h-371v-237h347v-182h-347v-242h394v-181z"/>
<glyph glyph-name="uni0277" horiz-adv-x="1542" unicode="ɷ" d="M659 532h222v-83q0 -289 161 -289q185 0 185 278q0 201 -119.5 313t-334.5 112q-211 0 -335 -115t-124 -308q0 -280 176 -280q169 0 169 289v83zM766 178h-7q-94 -202 -316 -202q-165 0 -261.5 118t-96.5 332q0 278 190 450t511 172q304 0 487 -164t183 -434 q0 -227 -108 -350.5t-298 -123.5q-112 0 -177.5 46t-106.5 156z"/>
<glyph glyph-name="uni0278" horiz-adv-x="1351" unicode="ɸ" d="M566 160v703q-121 -16 -189 -108.5t-68 -244.5q0 -147 68 -240t189 -110zM787 863v-703q122 16 188 109t66 246q0 150 -66 241t-188 107zM787 -24v-447h-221v447q-223 17 -352 161.5t-129 367.5q0 231 131.5 375.5t349.5 167.5v468h221v-468q224 -16 351 -158t127 -368 q0 -230 -130 -377.5t-348 -168.5z"/>
<glyph glyph-name="uni0279" horiz-adv-x="759" unicode="ɹ" d="M608 0h-232v192h-4q-83 -210 -270 -210q-58 0 -89 18v219q45 -32 129 -32q100 0 167 89t67 240v508h232v-1024z"/>
<glyph glyph-name="uni027A" horiz-adv-x="759" unicode="ɺ" d="M608 0h-232v195h-4q-83 -213 -270 -213q-58 0 -89 18v219q45 -32 129 -32q100 0 167 89t67 240v1000h232v-1516z"/>
<glyph glyph-name="uni027B" horiz-adv-x="759" unicode="ɻ" d="M862 -449q-75 -31 -153 -31q-159 0 -246 90t-87 254v329h-4q-82 -211 -270 -211q-58 0 -89 18v219q45 -32 129 -32q99 0 166.5 88.5t67.5 240.5v508h232v-1138q0 -182 146 -182q58 0 108 28v-181z"/>
<glyph glyph-name="uni027C" horiz-adv-x="759" unicode="ɼ" d="M745 803q-44 33 -128 33q-100 0 -167 -88.5t-67 -240.5v-978h-232v1495h232v-202h4q76 220 275 220q54 0 83 -14v-225z"/>
<glyph glyph-name="uni027D" horiz-adv-x="759" unicode="ɽ" d="M745 803q-44 33 -128 33q-100 0 -167 -88.5t-67 -240.5v-621q0 -182 146 -182q58 0 108 28v-181q-81 -33 -166 -33q-154 0 -237 90.5t-83 255.5v1160h232v-202h4q35 104 107.5 162t161.5 58q58 0 89 -14v-225z"/>
<glyph glyph-name="uni027E" horiz-adv-x="703" unicode="ɾ" d="M689 831q-63 33 -138 33q-186 0 -186 -238v-626h-230v635q0 189 109 301t288 112q88 0 157 -26v-191z"/>
<glyph glyph-name="uni027F" horiz-adv-x="703" unicode="ɿ" d="M568 0h-229v633q0 231 -190 231q-67 0 -135 -35v185q92 34 189 34q176 0 270.5 -99t94.5 -285v-664z"/>
<glyph glyph-name="uni0280" horiz-adv-x="1004" unicode="ʀ" d="M383 846v-285h123q179 0 179 146q0 139 -165 139h-137zM972 0h-257l-101 249q-58 136 -170 136h-61v-385h-232v1024h379q185 0 287.5 -79.5t102.5 -218.5q0 -216 -235 -264v-4q95 -36 160 -169z"/>
<glyph glyph-name="uni0281" horiz-adv-x="1004" unicode="ʁ" d="M383 463v-286h121q181 0 181 138q0 70 -48.5 108.5t-130.5 38.5zM972 1024l-124 -280q-58 -125 -155 -171v-4q227 -43 227 -258q0 -141 -109 -226t-300 -85h-360v1024h232v-386h58q62 0 101.5 31t72.5 109l104 246h253z"/>
<glyph glyph-name="uni0282" horiz-adv-x="854" unicode="ʂ" d="M257 -5v-35q0 -155 133 -155q56 0 113 33v-145q-66 -31 -141 -31q-123 0 -193 72.5t-70 205.5v304q136 -96 278 -96q175 0 175 121q0 53 -41.5 87t-161.5 81q-148 65 -198.5 133t-50.5 168q0 134 109.5 222t282.5 88q131 0 235 -44v-201q-106 72 -240 72q-71 0 -113 -33 t-42 -85q0 -50 27 -80t125 -72q166 -67 230 -140.5t64 -176.5q0 -136 -107 -224t-293 -88q-60 0 -121 19z"/>
<glyph glyph-name="uni0283" horiz-adv-x="569" unicode="ʃ" d="M676 1327q-51 27 -113 27q-162 0 -162 -197v-1269q0 -170 -104.5 -270t-266.5 -100q-88 0 -136 20v191q51 -25 112 -25q163 0 163 197v1268q0 171 104.5 270.5t265.5 99.5q88 0 137 -19v-193z"/>
<glyph glyph-name="uni0284" horiz-adv-x="624" unicode="ʄ" d="M703 1327q-49 27 -106 27q-169 0 -169 -197v-525h176v-168h-176v-576q0 -172 -104 -271t-266 -99q-87 0 -137 20v191q52 -25 112 -25q163 0 163 197v563h-174v168h174v537q0 169 104.5 269.5t265.5 100.5q88 0 137 -19v-193z"/>
<glyph glyph-name="uni0285" horiz-adv-x="645" unicode="ʅ" d="M642 9q-68 -33 -177 -33q-295 0 -295 318v880q0 180 -142 180q-56 0 -105 -27v181q84 31 164 31q151 0 233 -89t82 -248v-867q0 -175 138 -175q56 0 102 32v-183z"/>
<glyph glyph-name="uni0286" horiz-adv-x="692" unicode="ʆ" d="M217 -160q-69 19 -136 19q-141 0 -141 -88q0 -81 107 -81q157 0 170 150zM742 1327q-51 27 -115 27q-161 0 -161 -198v-1240q89 -43 189 -124v-204q-124 113 -241 170q-33 -109 -128.5 -174t-248.5 -65q-127 0 -207.5 68t-80.5 173q0 114 92 189.5t241 75.5q82 0 152 -25 v1169q0 170 101 270t265 100q90 0 142 -18v-194z"/>
<glyph glyph-name="uni0287" horiz-adv-x="741" unicode="ʇ" d="M700 0h-172v-237l-230 -53v290h-247v182h247v503q0 96 -33.5 137t-109.5 41q-61 0 -104 -32v182q67 34 179 34q298 0 298 -321v-544h172v-182z"/>
<glyph glyph-name="uni0288" horiz-adv-x="741" unicode="ʈ" d="M691 -446q-68 -36 -179 -36q-298 0 -298 322v1002h-176v182h176v250l231 53v-303h246v-182h-246v-962q0 -95 32.5 -135.5t108.5 -40.5q58 0 105 32v-182z"/>
<glyph glyph-name="uni0289" horiz-adv-x="1311" unicode="ʉ" d="M878 418v33h-448v-30q0 -261 214 -261q102 0 168 71t66 187zM1271 451h-161v-451h-232v159h-4q-102 -183 -314 -183q-363 0 -363 433v42h-160v181h160v392h233v-392h448v392h232v-392h161v-181z"/>
<glyph glyph-name="uni028A" horiz-adv-x="1219" unicode="ʊ" d="M249 841h-171v183h419v-183q-186 -88 -186 -337q0 -151 80.5 -242.5t217.5 -91.5q143 0 221.5 88.5t78.5 245.5q0 249 -186 337v183h417v-183h-167q167 -125 167 -363q0 -223 -143 -362.5t-393 -139.5q-245 0 -385.5 136.5t-140.5 357.5q0 241 171 371z"/>
<glyph glyph-name="uni028B" horiz-adv-x="1192" unicode="ʋ" d="M126 1024h231v-566q0 -289 241 -289q131 0 202 96t71 266q0 160 -43.5 246.5t-121.5 86.5q-58 0 -111 -26v184q68 26 154 26q168 0 262.5 -139t94.5 -372q0 -255 -138 -408t-383 -153q-459 0 -459 467v581z"/>
<glyph glyph-name="uni028C" horiz-adv-x="1039" unicode="ʌ" d="M1031 0h-251l-223 693q-29 91 -35 161h-4q-9 -75 -36 -156l-231 -698h-243l395 1024h252z"/>
<glyph glyph-name="uni028D" horiz-adv-x="1549" unicode="ʍ" d="M1528 0h-241l-179 724q-10 40 -13 93h-8q-2 -42 -15 -89l-205 -728h-229l-184 725q-10 37 -14 94h-8q-2 -40 -15 -94l-174 -725h-223l304 1024h247l183 -689q10 -40 15 -89h3q3 34 18 87l196 691h242z"/>
<glyph glyph-name="uni028E" horiz-adv-x="1041" unicode="ʎ" d="M1035 0h-257l-249 752q-5 21 -13 66h-4q-4 -15 -15 -49l-259 -769h-235l471 1204q135 312 379 312q83 0 142 -21v-194q-65 28 -117 28q-120 0 -179 -138l-71 -169z"/>
<glyph glyph-name="uni028F" horiz-adv-x="902" unicode="ʏ" d="M904 1024l-334 -664l-3 -360h-232v359l-337 665h255l151 -340q36 -87 51 -133h4q21 70 50 133l153 340h242z"/>
<glyph glyph-name="uni0290" horiz-adv-x="952" unicode="ʐ" d="M1063 -243q-57 -28 -128 -28q-101 0 -162 61t-61 150q0 29 7 60h-690v87l565 755h-510v182h823v-96l-552 -746h550q-38 -132 -38 -199q0 -112 101 -112q45 0 95 28v-142z"/>
<glyph glyph-name="uni0291" horiz-adv-x="1113" unicode="ʑ" d="M661 171h144q153 0 153 79q0 73 -93 73q-134 0 -204 -152zM607 0q-18 -77 -22 -140h-174q4 79 18 140h-400v98l555 744h-510v182h824v-97l-559 -756h140q61 145 161.5 226t220.5 81q123 0 197.5 -64.5t74.5 -163.5q0 -115 -83.5 -182.5t-234.5 -67.5h-208z"/>
<glyph glyph-name="uni0292" horiz-adv-x="955" unicode="ʒ" d="M-29 -393v212q167 -114 347 -114q164 0 269 81t105 210q0 133 -108 207.5t-309 74.5h-80v87l369 477h-560v182h858v-99l-379 -484q214 -26 329 -143t115 -297q0 -209 -171.5 -344.5t-432.5 -135.5q-191 0 -352 86z"/>
<glyph glyph-name="uni0293" horiz-adv-x="955" unicode="ʓ" d="M589 -225q-160 81 -283 81q-67 0 -105.5 -22t-38.5 -58q0 -82 168 -82q156 0 259 81zM973 -479q-95 81 -206 153q-175 -153 -446 -153q-160 0 -253.5 67.5t-93.5 180.5q0 110 93 181t240 71q172 0 364 -103q17 39 17 83q0 131 -103 204t-289 73h-101v87l369 477h-560v182 h858v-99l-379 -484q208 -26 324 -142t116 -293q0 -107 -56 -205q64 -43 106 -73v-207z"/>
<glyph glyph-name="uni0294" horiz-adv-x="752" unicode="ʔ" d="M427 0h-232v500q0 138 41.5 221t161.5 193q91 89 115 136t24 100q0 82 -70.5 137.5t-188.5 55.5q-147 0 -281 -80v208q141 67 308 67q212 0 339.5 -106t127.5 -268q0 -91 -39.5 -171t-169.5 -204q-76 -70 -106 -129t-30 -160v-500z"/>
<glyph glyph-name="uni0295" horiz-adv-x="752" unicode="ʕ" d="M754 1262q-139 81 -292 81q-114 0 -181.5 -52t-67.5 -129q0 -47 21.5 -95.5t119.5 -147.5q122 -118 161.5 -201t39.5 -218v-500h-232v495q0 88 -27.5 147.5t-116.5 144.5q-121 120 -160 198.5t-39 172.5q0 161 132 270.5t344 109.5q156 0 298 -66v-210z"/>
<glyph glyph-name="uni0296" horiz-adv-x="816" unicode="ʖ" d="M4 42v211q138 -82 291 -82q114 0 182 51t68 131q0 59 -26.5 106t-117.5 139q-119 117 -159 198t-40 218v502h232v-477q0 -91 29 -156.5t111 -150.5q124 -117 164 -196t40 -172q0 -166 -131.5 -276.5t-345.5 -110.5q-155 0 -297 65z"/>
<glyph glyph-name="uni0297" horiz-adv-x="965" unicode="ʗ" d="M886 -405q-131 -74 -285 -74q-247 0 -379.5 190.5t-132.5 556.5q0 381 140 580.5t402 199.5q133 0 255 -57v-211q-118 83 -242 83q-319 0 -319 -584q0 -575 309 -575q132 0 252 90v-199z"/>
<glyph glyph-name="uni0298" horiz-adv-x="1368" unicode="ʘ" d="M683 634q-52 0 -87.5 36t-35.5 88q0 51 35.5 87t87.5 36q51 0 88 -36t37 -87q0 -50 -37 -87t-88 -37zM684 1353q-171 0 -261 -154.5t-90 -443.5q0 -595 350 -595q171 0 261 154t90 444q0 595 -350 595zM679 -24q-282 0 -431.5 197.5t-149.5 571.5q0 380 154.5 586.5 t437.5 206.5q281 0 430 -196.5t149 -574.5q0 -381 -153.5 -586t-436.5 -205z"/>
<glyph glyph-name="uni0299" horiz-adv-x="1038" unicode="ʙ" d="M383 440v-270h159q180 0 180 133q0 137 -184 137h-155zM383 853v-243h138q161 0 161 124q0 119 -160 119h-139zM151 0v1024h392q180 0 276.5 -66t96.5 -186q0 -171 -180 -224v-5q221 -38 221 -239q0 -139 -105.5 -221.5t-287.5 -82.5h-413z"/>
<glyph glyph-name="uni029A" horiz-adv-x="1191" unicode="ʚ" d="M634 611v-176h-64q-254 0 -254 -140q0 -65 62.5 -103t171.5 -38q150 0 235.5 94t85.5 266q0 167 -87.5 261t-237.5 94q-98 0 -154.5 -35.5t-56.5 -93.5t63.5 -93.5t175.5 -35.5h60zM292 535v4q-189 59 -189 222q0 128 124 207.5t330 79.5q254 0 401.5 -142t147.5 -387 q0 -244 -155.5 -393.5t-419.5 -149.5q-213 0 -330.5 80.5t-117.5 220.5q0 204 209 258z"/>
<glyph glyph-name="uni029B" horiz-adv-x="1097" unicode="ʛ" d="M1138 1105q-45 26 -84 26q-115 0 -115 -134q0 -76 24 -195l-6 -6q-156 67 -299 67q-151 0 -244.5 -99.5t-93.5 -258.5q0 -162 85 -253.5t230 -91.5q81 0 137 23v216h-205v182h431v-520q-182 -86 -374 -86q-245 0 -392 140t-147 380q0 239 158.5 396t410.5 157 q72 0 138 -22q-5 34 -5 37q0 85 65.5 147.5t165.5 62.5q64 0 120 -25v-143z"/>
<glyph glyph-name="uni029C" horiz-adv-x="1204" unicode="ʜ" d="M1052 0h-231v431h-437v-431h-233v1024h233v-407h437v407h231v-1024z"/>
<glyph glyph-name="uni029D" horiz-adv-x="645" unicode="ʝ" d="M209 -160q-87 19 -151 19q-142 0 -142 -88q0 -81 106 -81q159 0 187 150zM632 -412q-127 113 -222 170q-87 -239 -397 -239q-125 0 -206.5 67.5t-81.5 173.5q0 114 92.5 189.5t240.5 75.5q85 0 156 -26l-3 1025h232v-1098q97 -49 189 -134v-204zM329 1239q-58 0 -99 37.5 t-41 95.5q0 56 41 93.5t99 37.5q59 0 100 -37.5t41 -93.5q0 -55 -41 -94t-100 -39z"/>
<glyph glyph-name="uni029E" horiz-adv-x="1076" unicode="ʞ" d="M925 -483h-232v954h-4l-374 -471h-287l426 488l-458 536h297l396 -499h4v499h232v-1507z"/>
<glyph glyph-name="uni029F" horiz-adv-x="819" unicode="ʟ" d="M790 0h-639v1024h233v-838h406v-186z"/>
<glyph glyph-name="uni02A0" horiz-adv-x="1233" unicode="ʠ" d="M853 467v129q0 111 -73 189t-181 78q-132 0 -205.5 -98t-73.5 -271q0 -158 72.5 -246t186.5 -88q122 0 198 86.5t76 220.5zM1335 1327q-54 26 -108 26q-146 0 -146 -186v-1638h-232v630h-4q-103 -183 -327 -183q-196 0 -314.5 137t-118.5 375q0 256 126.5 408t339.5 152 q202 0 294 -156h4v294q0 171 98.5 261.5t246.5 90.5q85 0 141 -20v-191z"/>
<glyph glyph-name="uni02A1" horiz-adv-x="775" unicode="ʡ" d="M450 533h195v-181h-195v-352h-232v352h-173v181h173q0 116 38.5 190.5t136.5 173.5q110 98 139 149.5t29 108.5q0 80 -71 134t-189 54q-148 0 -282 -80v208q142 67 309 67q212 0 339.5 -104.5t127.5 -263.5q0 -88 -37.5 -164.5t-159.5 -195.5q-81 -70 -114.5 -128.5 t-33.5 -148.5z"/>
<glyph glyph-name="uni02A2" horiz-adv-x="775" unicode="ʢ" d="M758 1261q-145 82 -303 82q-109 0 -173.5 -50.5t-64.5 -125.5q0 -47 22 -95t122 -147q113 -111 153.5 -190.5t40.5 -201.5h176v-181h-176v-352h-232v352h-195v181h195q0 75 -30 132t-107 131q-122 117 -161.5 194t-39.5 169q0 160 129.5 269.5t337.5 109.5q160 0 306 -65 v-212z"/>
<glyph glyph-name="uni02A3" horiz-adv-x="1964" unicode="ʣ" d="M1599 842h-518v-699zM853 480v115q0 112 -72 190t-184 78q-132 0 -204.5 -98.5t-72.5 -270.5q0 -152 71.5 -243t190.5 -91q120 0 195.5 91t75.5 229zM1919 927l-554 -746h551v-181h-1067v162h-4q-106 -186 -328 -186q-198 0 -315 139.5t-117 371.5q0 256 128 408.5 t341 152.5q197 0 291 -156h4v624h232v-492h838v-97z"/>
<glyph glyph-name="uni02A4" horiz-adv-x="2036" unicode="ʤ" d="M853 480v115q0 112 -77 190t-197 78q-123 0 -191 -98.5t-68 -270.5q0 -152 71.5 -243t190.5 -91t195 91t76 229zM1063 -399v210q163 -106 339 -106q163 0 267.5 81t104.5 210q0 133 -103 207.5t-293 74.5h-101v87l368 477h-564v-842h-232v162h-4q-109 -186 -335 -186 q-194 0 -309.5 139.5t-115.5 371.5q0 256 128 408.5t341 152.5q197 0 291 -156h4v624h232v-492h863v-99l-379 -484q211 -26 327 -142.5t116 -297.5q0 -209 -171 -344.5t-432 -135.5q-185 0 -342 80z"/>
<glyph glyph-name="uni02A5" horiz-adv-x="2134" unicode="ʥ" d="M1681 171h146q151 0 151 79q0 73 -98 73q-132 0 -199 -152zM1605 842h-524v-700zM852 477v114q0 113 -71.5 192.5t-183.5 79.5q-131 0 -204 -99t-73 -273q0 -151 71.5 -241t190.5 -90t194.5 90t75.5 227zM1627 0q-15 -63 -20 -140h-176q4 65 19 140h-601v162h-4 q-109 -184 -336 -184q-194 0 -309 136t-115 373q0 256 128 408.5t341 152.5q197 0 291 -156h4v624h232v-492h838v-97l-560 -756h141q134 307 382 307q124 0 198.5 -64t74.5 -161q0 -117 -90.5 -185t-253.5 -68h-184z"/>
<glyph glyph-name="uni02A6" horiz-adv-x="1332" unicode="ʦ" d="M626 842h-182v-410q0 -159 76.5 -217.5t229.5 -58.5q276 0 276 138q0 53 -47 87.5t-174 78.5q-114 52 -158 116.5t-44 162.5q0 57 23 103zM213 842h-171v182h171v236l231 70v-306h381q74 24 162 24q131 0 232 -42v-201q-100 70 -232 70q-70 0 -111.5 -33t-41.5 -85 q0 -46 21.5 -74.5t105.5 -65.5q164 -68 230.5 -142t66.5 -177q0 -141 -132 -231.5t-393 -90.5q-276 0 -398 108.5t-122 336.5v421z"/>
<glyph glyph-name="uni02A7" horiz-adv-x="1091" unicode="ʧ" d="M691 193v649h-246v-504q0 -95 32.5 -136t108.5 -41q61 0 105 32zM1198 1328q-51 26 -113 26q-162 0 -162 -197v-1269q0 -171 -104.5 -270.5t-266.5 -99.5q-87 0 -138 20v191q51 -25 114 -25q163 0 163 194v113q-68 -34 -179 -34q-298 0 -298 321v544h-172v182h172v237 l231 70v-307h246v160q0 163 104.5 259t264.5 96q87 0 138 -19v-192z"/>
<glyph glyph-name="uni02A8" horiz-adv-x="1571" unicode="ʨ" d="M1030 204q74 -58 172 -58q74 0 118.5 24t44.5 59q0 71 -102 71q-85 0 -233 -96zM852 84q-174 -108 -325 -108q-313 0 -313 347v519h-172v182h172v237l231 70v-307h246v-182h-246v-500q0 -184 146 -184q66 0 156 53q-73 119 -73 277q0 253 150 406.5t402 153.5 q140 0 246 -49v-213q-109 78 -233 78q-145 0 -237 -99t-92 -260q0 -94 34 -164q197 122 322 122q124 0 202 -66t78 -164q0 -112 -102 -184.5t-270 -72.5q-191 0 -322 108z"/>
<glyph glyph-name="uni02A9" horiz-adv-x="1734" unicode="ʩ" d="M1604 -37q0 -215 -97 -330t-275 -115q-86 0 -146 26v193q57 -33 120 -33q165 0 165 248v625q0 287 -206 287q-105 0 -173.5 -79.5t-68.5 -200.5v-584h-231v842h-238v-842h-231v842h-175v182h175v146q0 169 106 269t273 100q87 0 143 -21v-192q-58 28 -122 28 q-169 0 -169 -209v-121h468v-166h5q115 190 333 190q167 0 255.5 -108t88.5 -314v-663z"/>
<glyph glyph-name="uni02AA" horiz-adv-x="1263" unicode="ʪ" d="M143 1524h232v-1087q0 -150 75 -215.5t226 -65.5q280 0 280 138q0 53 -48 85.5t-164 80.5q-126 55 -168 118t-42 161q0 136 108.5 222.5t279.5 86.5q128 0 228 -42v-201q-101 70 -232 70q-70 0 -111.5 -33t-41.5 -85q0 -43 19.5 -71.5t132.5 -77.5q143 -56 207 -129.5 t64 -180.5q0 -143 -131.5 -232.5t-392.5 -89.5q-277 0 -399 108t-122 337v1103z"/>
<glyph glyph-name="uni02AB" horiz-adv-x="1265" unicode="ʫ" d="M906 842h-523v-699zM1220 927l-554 -746h552v-181h-1067v1516h232v-492h837v-97z"/>
<glyph glyph-name="uni02AC" horiz-adv-x="1040" unicode="ʬ" d="M993 647l-172 -647h-198l-88 363q-8 31 -13 87h-3q-3 -34 -16 -86l-92 -364h-198l-167 647h181l85 -383q7 -34 9 -85h4q2 32 15 87l95 381h193l87 -382q8 -31 11 -85h4q1 22 14 85l78 382h171zM993 1434l-172 -648h-198l-88 363q-8 32 -13 88h-3q-3 -35 -16 -87l-92 -364 h-198l-167 648h181l85 -383q7 -35 9 -85h4q2 32 15 87l95 381h193l86 -379q7 -32 11 -88h5q0 21 14 85l78 382h171z"/>
<glyph glyph-name="uni02AD" horiz-adv-x="1040" unicode="ʭ" d="M926 0h-170v350h-473v-350h-168v508h811v-508zM926 926h-170v350h-473v-350h-168v508h811v-508z"/>
<glyph glyph-name="uni02AE" horiz-adv-x="1250" unicode="ʮ" d="M1099 -484h-232v646h-4q-115 -186 -327 -186q-347 0 -347 418v300q0 170 -129 170q-55 0 -103 -30v182q87 32 170 32q294 0 294 -328v-274q0 -283 202 -283q103 0 173.5 80t70.5 202v579h232v-1508z"/>
<glyph glyph-name="uni02AF" horiz-adv-x="1250" unicode="ʯ" d="M1353 -450q-82 -32 -167 -32q-152 0 -235.5 90.5t-83.5 254.5v299h-4q-115 -186 -327 -186q-347 0 -347 418v300q0 170 -129 170q-55 0 -103 -30v182q81 32 159 32q305 0 305 -328v-279q0 -278 202 -278q103 0 173.5 80t70.5 202v579h232v-1138q0 -182 146 -182 q57 0 108 27v-181z"/>
<glyph glyph-name="uni02B0" horiz-adv-x="713" unicode="ʰ" d="M622 666h-172v311q0 120 -87 120q-45 0 -72.5 -33.5t-27.5 -84.5v-313h-173v810h173v-348h2q57 103 174 103q183 0 183 -231v-334z"/>
<glyph glyph-name="uni02B1" horiz-adv-x="713" unicode="ʱ" d="M622 666h-172v311q0 120 -87 120q-45 0 -72.5 -33.5t-27.5 -84.5v-313h-173v508q0 143 88 222.5t246 79.5q71 0 141 -26v-134q-68 34 -139 34q-163 0 -163 -157v-62h2q57 100 174 100q183 0 183 -231v-334z"/>
<glyph glyph-name="uni02B2" horiz-adv-x="357" unicode="ʲ" d="M263 668q0 -263 -229 -263q-46 0 -85 17v133q31 -19 63 -19q79 0 79 152v526h172v-546zM176 1292q-101 0 -101 92q0 88 102 88q100 0 100 -88q0 -92 -101 -92z"/>
<glyph glyph-name="uni02B3" horiz-adv-x="475" unicode="ʳ" d="M455 1061q-28 16 -64 16q-125 0 -125 -158v-253h-173v548h173v-108h2q39 118 141 118q27 0 46 -8v-155z"/>
<glyph glyph-name="uni02B4" horiz-adv-x="475" unicode="ʴ" d="M381 666h-172v103h-2q-42 -113 -148 -113q-23 0 -40 8v155q30 -16 69 -16q121 0 121 158v253h172v-548z"/>
<glyph glyph-name="uni02B5" horiz-adv-x="480" unicode="ʵ" d="M501 421q-34 -18 -96 -18q-197 0 -197 268v97h-2q-42 -113 -147 -113q-24 0 -41 9v155q30 -16 69 -16q121 0 121 158v253h172v-590q0 -87 65 -87q29 0 56 16v-132z"/>
<glyph glyph-name="uni02B6" horiz-adv-x="644" unicode="ʶ" d="M275 907v-130h56q86 0 86 66q0 64 -90 64h-52zM625 1213l-79 -160q-30 -59 -90 -80v-3q133 -21 133 -138q0 -166 -239 -166h-248v547h173v-198h31q53 0 77 64l57 134h185z"/>
<glyph glyph-name="uni02B7" horiz-adv-x="877" unicode="ʷ" d="M855 1213l-146 -547h-191l-66 305q0 1 -11 67h-4q-3 -24 -11 -65l-74 -307h-191l-140 547h179l62 -341q2 -16 7 -68h3q2 31 11 69l80 340h179l71 -341q3 -10 7 -67h4q2 31 8 67l61 341h162z"/>
<glyph glyph-name="uni02B8" horiz-adv-x="619" unicode="ʸ" d="M606 1213l-219 -595q-78 -213 -255 -213q-47 0 -100 16v137q36 -20 75 -20q76 0 108 80l17 46l-221 549h189l97 -312q11 -33 18 -90h3q11 62 21 92l95 310h172z"/>
<glyph glyph-name="uni02B9" horiz-adv-x="525" unicode="ʹ" d="M427 1462l-163 -445h-153l113 445h203z"/>
<glyph glyph-name="uni02BA" horiz-adv-x="879" unicode="ʺ" d="M427 1462l-163 -445h-153l113 445h203zM781 1462l-162 -445h-154l111 445h205z"/>
<glyph glyph-name="uni02BB" horiz-adv-x="525" unicode="ʻ" d="M417 1462l-109 -445h-207l163 445h153z"/>
<glyph glyph-name="uni02BC" horiz-adv-x="525" unicode="ʼ" d="M427 1462l-163 -445h-153l113 445h203z"/>
<glyph glyph-name="uni02BD" horiz-adv-x="518" unicode="ʽ" d="M418 1017h-151l-165 445h205z"/>
<glyph glyph-name="uni02BE" horiz-adv-x="682" unicode="ʾ" d="M242 1218v111q94 0 94 81q0 79 -94 79v112q86 0 142 -54.5t56 -136.5t-56 -137t-142 -55z"/>
<glyph glyph-name="uni02BF" horiz-adv-x="682" unicode="ʿ" d="M440 1218q-86 0 -142 55t-56 137q0 81 55.5 136t142.5 55v-112q-94 0 -94 -79q0 -81 94 -81v-111z"/>
<glyph glyph-name="uni02C0" horiz-adv-x="489" unicode="ˀ" d="M293 666h-172v213q0 78 19.5 132t90.5 127q78 67 78 116q0 89 -130 89q-84 0 -168 -50v141q85 42 188 42q132 0 208 -59t76 -153q0 -107 -120 -211q-70 -64 -70 -145v-242z"/>
<glyph glyph-name="uni02C1" horiz-adv-x="489" unicode="ˁ" d="M478 1293q-80 50 -172 50q-126 0 -126 -85q0 -44 57 -100q76 -67 103.5 -118t27.5 -131v-243h-172v242q0 82 -100 175q-91 91 -91 180q0 93 79 153t209 60q96 0 185 -42v-141z"/>
<glyph glyph-name="uni02C2" horiz-adv-x="1196" unicode="˂" d="M1092 214l-988 419v180l987 419v-198l-753 -311l753 -311z"/>
<glyph glyph-name="uni02C3" horiz-adv-x="1196" unicode="˃" d="M1092 632l-989 -419v198l754 312l-754 311v198l990 -420z"/>
<glyph glyph-name="uni02C4" horiz-adv-x="1196" unicode="˄" d="M1108 229h-198l-312 755l-312 -755h-198l420 988h180z"/>
<glyph glyph-name="uni02C5" horiz-adv-x="1196" unicode="˅" d="M1108 1217l-420 -988h-180l-420 988h198l312 -755l312 755h198z"/>
<glyph glyph-name="circumflex" horiz-adv-x="771" unicode="ˆ" d="M698 1204h-160l-161 211l-157 -211h-155l224 328h184z"/>
<glyph glyph-name="caron" horiz-adv-x="771" unicode="ˇ" d="M704 1531l-224 -327h-185l-224 327h155l160 -210l161 210h157z"/>
<glyph glyph-name="uni02C8" horiz-adv-x="682" unicode="ˈ" d="M408 1174h-134v362h134v-362z"/>
<glyph glyph-name="uni02C9" horiz-adv-x="660" unicode="ˉ" d="M600 1204h-543v137h543v-137z"/>
<glyph glyph-name="uni02CA" horiz-adv-x="597" unicode="ˊ" d="M568 1546l-286 -328h-172l242 328h216z"/>
<glyph glyph-name="uni02CB" horiz-adv-x="591" unicode="ˋ" d="M527 1204h-173l-262 328h214z"/>
<glyph glyph-name="uni02CC" horiz-adv-x="682" unicode="ˌ" d="M408 -482h-134v363h134v-363z"/>
<glyph glyph-name="uni02CD" horiz-adv-x="660" unicode="ˍ" d="M600 -256h-543v137h543v-137z"/>
<glyph glyph-name="uni02CE" horiz-adv-x="591" unicode="ˎ" d="M527 -442h-173l-262 328h214z"/>
<glyph glyph-name="uni02CF" horiz-adv-x="597" unicode="ˏ" d="M568 -100l-286 -328h-172l242 328h216z"/>
<glyph glyph-name="uni02D0" horiz-adv-x="569" unicode="ː" d="M400 -9h-232l98 223h37zM401 1070l-98 -223h-37l-98 223h233z"/>
<glyph glyph-name="uni02D1" horiz-adv-x="569" unicode="ˑ" d="M401 671l-96 -224h-39l-98 224h233z"/>
<glyph glyph-name="uni02D2" horiz-adv-x="682" unicode="˒" d="M242 365v111q94 0 94 81q0 79 -94 79v112q86 0 142 -54.5t56 -136.5t-56 -137t-142 -55z"/>
<glyph glyph-name="uni02D3" horiz-adv-x="682" unicode="˓" d="M440 365q-86 0 -142 55t-56 137q0 81 55.5 136t142.5 55v-112q-94 0 -94 -79q0 -81 94 -81v-111z"/>
<glyph glyph-name="uni02D4" horiz-adv-x="682" unicode="˔" d="M150 363v125h127v263h128v-263h126v-125h-381z"/>
<glyph glyph-name="uni02D5" horiz-adv-x="682" unicode="˕" d="M531 751v-126h-126v-262h-128v262h-127v126h381z"/>
<glyph glyph-name="uni02D6" horiz-adv-x="682" unicode="˖" d="M531 490h-126v-127h-128v127h-127v125h127v127h128v-127h126v-125z"/>
<glyph glyph-name="uni02D7" horiz-adv-x="635" unicode="˗" d="M589 487h-543v137h543v-137z"/>
<glyph glyph-name="breve" horiz-adv-x="661" unicode="˘" d="M634 1480q-11 -124 -97.5 -200t-209.5 -76q-130 0 -211.5 75.5t-87.5 200.5h136q12 -146 166 -146q65 0 111 39.5t56 106.5h137z"/>
<glyph glyph-name="dotaccent" horiz-adv-x="460" unicode="˙" d="M230 1203q-50 0 -86.5 33.5t-36.5 82.5q0 48 36 81t87 33t87 -32.5t36 -81.5q0 -48 -36 -82t-87 -34z"/>
<glyph glyph-name="ring" horiz-adv-x="565" unicode="˚" d="M279 1490q-45 0 -74.5 -30t-29.5 -74q0 -104 104 -104q48 0 79.5 29.5t31.5 74.5t-31.5 74.5t-79.5 29.5zM279 1180q-94 0 -155.5 54t-61.5 142q0 98 63 156t161 58q96 0 157.5 -58.5t61.5 -149.5q0 -87 -65.5 -144.5t-160.5 -57.5z"/>
<glyph glyph-name="ogonek" horiz-adv-x="454" unicode="˛" d="M374 0q-151 -137 -151 -216q0 -68 65 -68q36 0 68 13v-121q-38 -16 -105 -16q-78 0 -125.5 42t-47.5 116q0 122 161 250h135z"/>
<glyph glyph-name="tilde" horiz-adv-x="733" unicode="˜" d="M711 1475q0 -116 -51.5 -189.5t-139.5 -73.5q-72 0 -165 48q-78 45 -121 45q-84 0 -84 -111h-115q0 119 51 190.5t143 71.5q68 0 157 -51q72 -44 125 -44q81 0 81 114h119z"/>
<glyph glyph-name="hungarumlaut" horiz-adv-x="740" unicode="˝" d="M441 1522l-243 -318h-148l208 318h183zM747 1522l-248 -318h-148l211 318h185z"/>
<glyph glyph-name="uni02DE" horiz-adv-x="682" unicode="˞" d="M113 794l225 182l31 -93q39 -114 115 -114q40 0 86 28v-145q-60 -29 -110 -29q-122 0 -182 116l-94 -74z"/>
<glyph glyph-name="uni02DF" horiz-adv-x="688" unicode="˟" d="M629 1017l-97 -98l-188 188l-188 -188l-98 98l189 187l-188 188l97 97l188 -188l188 188l97 -97l-188 -188z"/>
<glyph glyph-name="uni02E0" horiz-adv-x="684" unicode="ˠ" d="M341 656q-41 -62 -41 -93q0 -47 41 -47t41 47q0 31 -41 93zM678 1218l-242 -445l27 -44q64 -102 64 -167q0 -66 -55.5 -117t-135.5 -51q-83 0 -132 47.5t-49 118.5q0 59 65 170l26 43l-241 445h185l151 -316l152 316h185z"/>
<glyph glyph-name="uni02E1" horiz-adv-x="353" unicode="ˡ" d="M263 666h-173v810h173v-810z"/>
<glyph glyph-name="uni02E2" horiz-adv-x="529" unicode="ˢ" d="M55 681v129q80 -42 175 -42q86 0 86 47q0 22 -19.5 35.5t-92.5 38.5q-149 54 -149 167q0 74 66.5 123t169.5 49q82 0 160 -27v-129q-72 35 -153 35q-72 0 -72 -45q0 -42 106 -75q92 -35 122 -73.5t30 -89.5q0 -75 -71 -126t-185 -51q-89 0 -173 34z"/>
<glyph glyph-name="uni02E3" horiz-adv-x="663" unicode="ˣ" d="M642 1218l-225 -276l223 -284h-193l-90 152q-2 2 -23 39h-5q-8 -16 -21 -37l-90 -154h-194l200 277l-186 283h190l88 -160l1 -2l20 -36h4l117 198h184z"/>
<glyph glyph-name="uni02E4" horiz-adv-x="489" unicode="ˤ" d="M478 1293q-80 50 -172 50q-126 0 -126 -85q0 -44 57 -100q76 -67 103.5 -118t27.5 -131v-243h-172v242q0 82 -100 175q-91 91 -91 180q0 93 79 153t209 60q96 0 185 -42v-141z"/>
<glyph glyph-name="uni02E5" horiz-adv-x="784" unicode="˥" d="M634 0h-156v1310h-328v156h484v-1466z"/>
<glyph glyph-name="uni02E6" horiz-adv-x="784" unicode="˦" d="M634 0h-156v981h-328v157h328v328h156v-1466z"/>
<glyph glyph-name="uni02E7" horiz-adv-x="784" unicode="˧" d="M634 0h-156v656h-328v155h328v655h156v-1466z"/>
<glyph glyph-name="uni02E8" horiz-adv-x="784" unicode="˨" d="M634 0h-156v328h-328v156h328v982h156v-1466z"/>
<glyph glyph-name="uni02E9" horiz-adv-x="784" unicode="˩" d="M633 0h-483v156h328v1310h156z"/>
<glyph glyph-name="uni02EA" horiz-adv-x="682" unicode="˪" d="M584 0h-486v880h94v-786h392v-94z"/>
<glyph glyph-name="uni02EB" horiz-adv-x="682" unicode="˫" d="M584 393h-392v-393h-94v880h94v-392h392v-95z"/>
<glyph glyph-name="uni02EC" horiz-adv-x="682" unicode="ˬ" d="M658 -118l-224 -327h-185l-224 327h155l160 -210l161 210h157z"/>
<glyph glyph-name="uni02ED" horiz-adv-x="850" unicode="˭" d="M850 1116h-850v119h850v-119zM850 1396h-850v120h850v-120z"/>
<glyph glyph-name="uni02EE" horiz-adv-x="879" unicode="ˮ" d="M427 1462l-163 -445h-153l113 445h203zM781 1462l-162 -445h-154l111 445h205z"/>
<glyph glyph-name="uni02EF" horiz-adv-x="682" unicode="˯" d="M244 -62l96 -161l94 161h129l-193 -299h-61l-193 299h128z"/>
<glyph glyph-name="uni02F0" horiz-adv-x="682" unicode="˰" d="M244 -361h-128l193 299h61l193 -299h-129l-94 161z"/>
<glyph glyph-name="uni02F1" horiz-adv-x="682" unicode="˱" d="M489 -307v-128l-299 193v61l299 192v-127l-161 -96z"/>
<glyph glyph-name="uni02F2" horiz-adv-x="682" unicode="˲" d="M190 -307l161 95l-161 96v127l299 -192v-61l-299 -193v128z"/>
<glyph glyph-name="uni02F3" horiz-adv-x="682" unicode="˳" d="M337 -177q-45 0 -74.5 -30t-29.5 -74q0 -104 104 -104q48 0 79.5 29.5t31.5 74.5t-31.5 74.5t-79.5 29.5zM337 -487q-94 0 -155.5 54t-61.5 142q0 98 63 156t161 58q96 0 157.5 -58.5t61.5 -149.5q0 -87 -65.5 -144.5t-160.5 -57.5z"/>
<glyph glyph-name="uni02F4" horiz-adv-x="591" unicode="˴" d="M527 377h-173l-262 328h214z"/>
<glyph glyph-name="uni02F5" horiz-adv-x="766" unicode="˵" d="M427 370h-148l-248 318h185zM728 370h-148l-243 318h183z"/>
<glyph glyph-name="uni02F6" horiz-adv-x="766" unicode="˶" d="M430 688l-243 -318h-148l208 318h183zM736 688l-248 -318h-148l211 318h185z"/>
<glyph glyph-name="uni02F7" horiz-adv-x="733" unicode="˷" d="M711 689q0 -116 -51.5 -189.5t-139.5 -73.5q-72 0 -165 48q-78 45 -121 45q-84 0 -84 -111h-115q0 119 51 190.5t143 71.5q68 0 157 -51q72 -44 125 -44q81 0 81 114h119z"/>
<glyph glyph-name="uni02F8" horiz-adv-x="617" unicode="˸" d="M307 1189q-60 0 -102 39.5t-42 94.5q0 56 42 96t102 40q61 0 103.5 -40t42.5 -96q0 -55 -42.5 -94.5t-103.5 -39.5zM307 398q-60 0 -102 39.5t-42 94.5q0 56 42 96t102 40q61 0 103.5 -40t42.5 -96q0 -55 -42.5 -94.5t-103.5 -39.5z"/>
<glyph glyph-name="uni02F9" horiz-adv-x="682" unicode="˹" d="M539 1353h-272v-272h-124v394h396v-122z"/>
<glyph glyph-name="uni02FA" horiz-adv-x="682" unicode="˺" d="M142 1352v123h397v-395h-125v272h-272z"/>
<glyph glyph-name="uni02FB" horiz-adv-x="682" unicode="˻" d="M539 113v-122h-397v395h125v-273h272z"/>
<glyph glyph-name="uni02FC" horiz-adv-x="682" unicode="˼" d="M142 113h272v273h125v-395h-397v122z"/>
<glyph glyph-name="uni02FD" horiz-adv-x="682" unicode="˽" d="M707 -429h-732v319h123v-197h486v197l123 -1v-318z"/>
<glyph glyph-name="uni02FE" horiz-adv-x="682" unicode="˾" d="M707 -429h-730v319h122v-197h608v-122z"/>
<glyph glyph-name="uni02FF" horiz-adv-x="682" unicode="˿" d="M631 -185h-429l168 -244h-117l-204 289v20l202 289h117l-166 -244h429v-110z"/>
<glyph glyph-name="gravecomb" horiz-adv-x="549" unicode="̀" d="M472 1218h-158l-241 246h218z"/>
<glyph glyph-name="acutecomb" horiz-adv-x="549" unicode="́" d="M77 1218l180 246h219l-239 -246h-160z"/>
<glyph glyph-name="uni0302" d="M309 1204h-160l-161 211l-157 -211h-155l224 328h184z" unicode="̂"/>
<glyph glyph-name="uni0303" d="M318 1475q0 -116 -51.5 -189.5t-139.5 -73.5q-72 0 -165 48q-78 45 -121 45q-84 0 -84 -111h-115q0 119 51 190.5t143 71.5q68 0 157 -51q72 -44 125 -44q81 0 81 114h119z" unicode="̃"/>
<glyph glyph-name="uni0304" d="M293 1186h-586v172h586v-172z" unicode="̄"/>
<glyph glyph-name="uni0305" d="M427 1396h-850v120h850v-120z" unicode="̅"/>
<glyph glyph-name="uni0306" d="M280 1480q-11 -124 -97.5 -200t-209.5 -76q-130 0 -211.5 75.5t-87.5 200.5h136q12 -146 166 -146q65 0 111 39.5t56 106.5h137z" unicode="̆"/>
<glyph glyph-name="uni0307" d="M-28 1203q-50 0 -86.5 33.5t-36.5 82.5q0 48 36 81t87 33t87 -32.5t36 -81.5q0 -48 -36 -82t-87 -34z" unicode="̇"/>
<glyph glyph-name="uni0308" d="M-235 1203q-52 0 -89 34.5t-37 82.5q0 49 35.5 82t86.5 33t88.5 -33.5t37.5 -81.5q0 -49 -36 -83t-86 -34zM181 1203q-50 0 -86.5 33t-36.5 84q0 49 35 82t85 33q53 0 89.5 -33.5t36.5 -81.5q0 -49 -35 -83t-88 -34z" unicode="̈"/>
<glyph glyph-name="hookabovecomb" horiz-adv-x="622" unicode="̉" d="M160 1570q39 4 85 4q94 0 154.5 -41.5t60.5 -112.5q0 -61 -39.5 -103t-98.5 -49v-50h-122v119q115 0 115 72q0 58 -89 58q-20 0 -66 -9v112z"/>
<glyph glyph-name="uni030A" d="M2 1490q-45 0 -74.5 -30t-29.5 -74q0 -104 104 -104q48 0 79.5 29.5t31.5 74.5t-31.5 74.5t-79.5 29.5zM2 1180q-94 0 -155.5 54t-61.5 142q0 98 63 156t161 58q96 0 157.5 -58.5t61.5 -149.5q0 -87 -65.5 -144.5t-160.5 -57.5z" unicode="̊"/>
<glyph glyph-name="uni030B" d="M-10 1522l-243 -318h-148l208 318h183zM296 1522l-248 -318h-148l211 318h185z" unicode="̋"/>
<glyph glyph-name="uni030C" d="M312 1531l-224 -327h-185l-224 327h155l160 -210l161 210h157z" unicode="̌"/>
<glyph glyph-name="uni030D" d="M67 1174h-134v362h134v-362z" unicode="̍"/>
<glyph glyph-name="uni030E" d="M234 1174h-134v362h134v-362zM-98 1174h-134v362h134v-362z" unicode="̎"/>
<glyph glyph-name="uni030F" d="M50 1204h-148l-248 318h185zM351 1204h-148l-243 318h183z" unicode="̏"/>
<glyph glyph-name="uni0310" d="M302 1480q-11 -123 -96.5 -200t-208.5 -77q-130 0 -212.5 76t-86.5 201h135q12 -146 167 -146q64 0 110 39.5t55 106.5h137zM4 1443q-43 0 -74 29t-31 71q0 43 31 70.5t74 27.5q44 0 75 -28t31 -70q0 -41 -31 -70.5t-75 -29.5z" unicode="̐"/>
<glyph glyph-name="uni0311" d="M290 1194h-139q-23 137 -167 137q-143 0 -166 -137h-139q11 120 95.5 194.5t211.5 74.5q126 0 209.5 -75t94.5 -194z" unicode="̑"/>
<glyph glyph-name="uni0312" d="M130 1439q-104 -51 -120 -145q108 -8 108 -105q0 -44 -32 -74.5t-80 -30.5q-56 0 -93 37t-37 97q0 88 60 171t149 123z" unicode="̒"/>
<glyph glyph-name="uni0313" d="M-91 1013l-45 72q105 51 121 146q-48 2 -78.5 31t-30.5 72q0 46 32 76.5t81 30.5q56 0 93.5 -38t37.5 -97q0 -86 -61.5 -169.5t-149.5 -123.5z" unicode="̓"/>
<glyph glyph-name="uni0314" d="M120 1086l-46 -73q-89 40 -149.5 123t-60.5 171q0 59 37 96.5t93 37.5q49 0 81 -30.5t32 -75.5q0 -97 -107 -104q16 -94 120 -145z" unicode="̔"/>
<glyph glyph-name="uni0315" d="M85 1013l-45 72q105 51 121 146q-48 2 -78.5 31t-30.5 72q0 46 32 76.5t81 30.5q56 0 93.5 -38t37.5 -97q0 -86 -61.5 -169.5t-149.5 -123.5z" unicode="̕"/>
<glyph glyph-name="uni0316" d="M202 -423h-173l-262 328h214z" unicode="̖"/>
<glyph glyph-name="uni0317" d="M243 -81l-286 -328h-172l242 328h216z" unicode="̗"/>
<glyph glyph-name="uni0318" d="M193 -433h-125v127h-261v127h261v127h125v-381z" unicode="̘"/>
<glyph glyph-name="uni0319" d="M193 -306h-261v-127h-125v381h125v-127h261v-127z" unicode="̙"/>
<glyph glyph-name="uni031A" d="M267 1165h-125v315h-409v122h534v-437z" unicode="̚"/>
<glyph glyph-name="uni031B" d="M-183 1165l2 134q213 0 213 121q0 77 -25 139h155q21 -59 21 -144q0 -112 -74.5 -181t-201.5 -69h-90z" unicode="̛"/>
<glyph glyph-name="uni031C" d="M100 -440q-86 0 -142 55t-56 137q0 81 55.5 136t142.5 55v-112q-94 0 -94 -79q0 -81 94 -81v-111z" unicode="̜"/>
<glyph glyph-name="uni031D" d="M-189 -435v125h127v263h128v-263h126v-125h-381z" unicode="̝"/>
<glyph glyph-name="uni031E" d="M192 -46v-126h-126v-262h-128v262h-127v126h381z" unicode="̞"/>
<glyph glyph-name="uni031F" d="M192 -300h-126v-127h-128v127h-127v125h127v127h128v-127h126v-125z" unicode="̟"/>
<glyph glyph-name="uni0320" d="M274 -186h-543v137h543v-137z" unicode="̠"/>
<glyph glyph-name="uni0321" d="M257 66q0 -207 -97.5 -331t-271.5 -124q-78 0 -145 25v200q51 -33 115 -33q164 0 164 263h235z" unicode="̡"/>
<glyph glyph-name="uni0322" d="M-257 66h235q0 -263 164 -263q64 0 115 33v-200q-67 -25 -145 -25q-174 0 -271.5 124t-97.5 331z" unicode="̢"/>
</font>
</defs>
</svg>
